<svg width="571" height="571" viewBox="0 0 571 571" fill="none" xmlns="http://www.w3.org/2000/svg">
<circle cx="285.467" cy="285.467" r="279.467" fill="#F3F1EB" stroke="#EE572D" stroke-width="12"/>
<circle cx="285" cy="285" r="211" fill="white" stroke="#D5E4E2" stroke-width="6" stroke-linecap="round" stroke-linejoin="round" stroke-dasharray="12 24"/>
<path d="M406.289 288.936C402.265 278.822 405.99 275.17 408.497 274.348C409.243 273.851 410.163 274.002 410.53 274.14C418.855 277.544 414.534 293.009 411.148 300.116L406.289 288.936Z" fill="#EE572D"/>
<path d="M431.175 257.124C423.926 249.003 426.173 244.295 428.245 242.663C428.776 241.941 429.692 241.768 430.084 241.771C439.071 242.113 440.317 258.122 439.574 265.959L431.175 257.124Z" fill="#EE572D"/>
<path d="M151.73 197.435C151.337 186.557 156.072 184.369 158.709 184.436C159.578 184.219 160.394 184.67 160.694 184.923C167.392 190.925 158.128 204.041 152.551 209.598L151.73 197.435Z" fill="#EE572D"/>
<path d="M264.643 160.047C262.91 149.3 257.839 148.077 255.265 148.657C254.37 148.613 253.658 149.215 253.414 149.521C248.014 156.713 259.655 167.773 266.207 172.137L264.643 160.047Z" fill="#EE572D"/>
<path d="M307.673 464.502L287.352 469.291C284.927 469.796 285.62 467.571 286.313 465.507C287.006 463.443 293.24 450.027 294.625 444.867C296.011 439.707 294.972 436.267 295.664 430.075C296.357 423.883 297.05 415.627 297.05 414.251C297.05 412.874 294.972 401.866 294.279 399.802C293.586 397.738 290.816 384.322 289.776 378.818C288.737 373.314 287.698 363.338 288.045 351.986C288.391 340.634 287.352 343.73 286.659 338.57C285.967 333.41 280.425 329.282 279.04 327.562C277.654 325.842 267.957 314.49 267.61 311.738C267.338 309.573 260.345 297.251 256.709 291.063C256.59 290.86 256.549 290.627 256.588 290.395C256.729 289.576 256.983 288.147 257.22 286.969C257.566 285.249 256.527 280.089 256.181 276.305C255.835 272.521 247.176 263.233 246.136 261.857C245.096 260.481 231.937 251.537 230.898 249.817C230.232 248.715 228.042 249.01 226.425 249.466C225.849 249.628 225.228 249.306 225.082 248.725L224.735 247.349C224.689 247.164 224.696 246.969 224.757 246.788L226.343 242.06C226.378 241.957 226.396 241.848 226.394 241.74C226.257 232.202 214.269 226.075 213.581 225.049C212.888 224.017 212.195 222.641 212.542 221.609C212.882 220.594 213.558 219.912 214.239 217.599C214.262 217.521 214.275 217.439 214.277 217.358C214.513 208.126 202.492 200.627 201.112 201.312C199.727 202 190.721 198.56 188.644 197.184C187.074 196.144 181.255 195.432 178.086 195.163C177.757 195.135 177.468 194.949 177.222 194.728C174.378 192.163 158.13 187.191 157.473 186.864C157.237 186.747 157.16 186.293 157.168 185.73C157.179 184.851 158.64 184.272 159.421 184.673C162.4 186.204 167.886 188.418 169.941 188.928C172.712 189.616 177.561 191.336 178.6 192.368C179.639 193.4 188.644 194.432 189.683 194.432C190.722 194.432 188.99 189.616 188.644 186.176C188.298 182.736 179.639 170.696 178.6 168.976C177.561 167.256 177.561 164.848 177.561 163.472C177.561 162.096 170.634 152.808 170.288 149.712C169.941 146.616 171.327 143.864 171.327 142.144C171.327 140.874 170.146 135.598 169.42 132.539C169.319 132.112 169.505 131.671 169.882 131.446L172.244 130.039C172.536 129.865 172.896 129.91 172.887 130.25C172.875 130.668 172.67 131.38 172.019 132.512C170.634 134.92 173.058 139.392 173.404 142.144C173.751 144.896 173.058 149.368 173.404 151.088C173.751 152.808 179.985 161.408 180.677 162.44C181.37 163.472 180.331 164.504 180.677 166.912C181.024 169.32 188.99 178.608 190.721 182.392C192.453 186.176 191.761 192.024 192.8 194.432C193.839 196.84 199.38 195.464 204.229 197.184C209.078 198.904 215.658 209.569 215.658 210.257C215.658 210.945 218.083 212.665 218.429 211.289C218.775 209.913 216.697 205.44 217.044 202.344C217.39 199.248 219.814 194.432 219.814 189.616C219.814 184.8 221.2 177.576 222.931 175.512C224.663 173.448 237.478 166.568 238.863 164.504C240.249 162.44 240.249 152.464 240.941 150.744C241.634 149.024 244.751 149.024 245.444 148.68C246.137 148.336 253.41 137.672 254.449 136.64C255.488 135.608 263.107 132.512 264.146 131.824C265.185 131.136 270.034 127.008 271.073 125.288C271.436 124.688 271.767 123.936 272.045 123.202C272.29 122.557 273.307 122.561 273.498 123.224C273.613 123.682 273.775 124.944 273.498 126.32C273.269 127.453 270.361 130.222 268.181 132.124C267.613 132.619 267.756 133.547 268.452 133.835L269.558 134.293C270.183 134.552 270.246 135.413 269.664 135.759C269.459 135.882 269.21 135.907 268.981 135.839C262.908 134.046 257.879 138.036 256.181 139.048C254.985 139.76 251.469 144.792 249.192 148.222C248.76 148.873 249.217 149.737 249.998 149.757L259.903 150.01C260.692 150.03 261.148 150.912 260.708 151.567L260.663 151.634C260.461 151.934 260.114 152.102 259.754 152.076C253.832 151.649 243.176 151.522 243.712 154.184C244.405 157.624 241.634 167.6 236.785 171.728C231.936 175.856 225.009 180.328 223.624 183.424C222.239 186.52 223.278 194.088 222.238 196.496C221.199 198.904 221.546 202.344 221.2 204.064C220.853 205.784 222.238 210.257 222.238 212.321C222.238 214.385 220.16 220.233 220.507 221.953C220.853 223.673 226.048 227.457 226.741 227.457C227.434 227.457 229.512 228.145 230.204 230.209C230.897 232.273 232.629 239.497 233.668 241.217C234.707 242.937 242.326 250.849 243.365 249.817C244.404 248.785 241.634 238.465 241.634 233.993C241.634 230.792 238.123 220.011 235.812 213.423C235.573 212.74 236.342 212.142 236.945 212.541C237.066 212.622 237.16 212.731 237.216 212.866C238.41 215.738 243.028 228.592 243.365 232.617C243.712 236.745 245.444 250.161 246.136 251.537C246.598 252.454 249.973 255.661 252.423 257.9C252.936 258.369 253.756 258.002 253.756 257.307C253.756 256.71 254.398 256.324 254.811 256.754C255.005 256.956 255.141 257.174 255.141 257.385C255.141 258.073 256.18 262.201 259.644 267.017C266.917 278.369 265.532 289.033 266.224 294.193C266.917 299.353 272.805 304.857 274.19 308.641C275.244 311.52 279.931 316.908 282.473 319.599C282.707 319.847 283.051 319.954 283.384 319.882C284.051 319.737 284.988 319.515 285.62 319.306C286.659 318.962 289.429 322.402 289.429 322.058C289.429 321.825 290.254 316.498 290.858 312.639C290.984 311.832 291.788 311.688 291.844 312.502C291.851 312.589 291.854 312.678 291.854 312.77C291.854 314.146 292.893 319.306 292.893 323.09C292.893 326.874 293.932 330.658 295.317 329.282C297.257 326.805 296.587 320.911 296.01 318.274C295.895 317.592 296.076 315.56 297.695 312.847C297.726 312.796 297.762 312.747 297.801 312.702C303.313 306.379 302.974 297.492 302.026 293.339C301.951 293.01 302.033 292.666 302.258 292.415L303.858 290.627C304.278 290.158 305.022 290.189 305.421 290.676C305.725 291.047 306.056 291.433 306.331 291.715C306.377 291.762 306.42 291.815 306.457 291.869C308.529 294.856 311.252 293.499 311.595 292.817C311.942 292.129 322.332 285.937 323.025 284.217C323.549 282.916 322.875 276.59 322.41 273.094C322.363 272.738 322.507 272.387 322.789 272.164C323.882 271.302 325.449 270.008 325.449 269.769C325.449 269.425 324.41 260.137 325.449 259.105C325.518 259.036 325.597 258.947 325.685 258.839C326.42 257.935 330.612 258.715 331.165 259.741C331.334 260.054 331.491 260.222 331.62 260.178C331.665 260.163 331.695 260.122 331.723 260.083L331.728 260.077C336.522 253.521 334.8 240.52 334.8 237.777C334.8 235.659 328.388 229.762 324.818 226.765C324.563 226.551 324.43 226.226 324.464 225.894L324.651 224.032C324.7 223.544 325.239 223.272 325.66 223.523C326.274 223.889 328.624 222.864 328.896 222.203C330.069 219.344 332.257 215.31 332.722 214.385C333.338 213.161 332.038 208.946 331.742 207.301C331.687 206.996 331.538 206.71 331.31 206.501C327.218 202.734 325.975 191.211 325.808 183.837C325.786 182.895 326.955 182.497 327.536 183.239L327.998 183.828C328.141 184.012 328.216 184.241 328.212 184.474C328.074 193.973 332.966 201.647 335.641 204.542C335.77 204.682 335.86 204.85 335.894 205.038C336.332 207.475 336.664 212.668 334.8 216.105C332.376 220.577 332.376 225.049 331.683 228.145C330.991 231.241 336.186 233.649 337.225 232.961C340.094 230.888 340.528 225.4 340.377 222.468C340.36 222.144 340.49 221.828 340.738 221.619L351.126 212.889C351.9 212.239 353.039 213.015 352.718 213.973L352.546 214.484C352.492 214.644 352.401 214.787 352.276 214.901C349.434 217.509 344.202 222.373 343.253 223.486C343.151 223.604 343.114 223.753 343.108 223.909C342.993 227.074 340.645 233.029 338.957 235.713C337.225 238.465 337.918 249.817 338.264 251.881C338.61 253.945 333.069 264.609 332.376 265.985C331.683 267.361 332.376 271.833 332.376 276.305C332.376 280.777 326.488 286.625 320.6 292.817C314.712 299.009 311.942 311.394 309.864 314.49C307.786 317.586 303.283 334.786 304.322 334.098C305.361 333.41 321.986 311.738 323.717 301.073C325.449 290.409 331.683 286.625 333.069 285.937C334.454 285.249 347.962 281.121 348.654 280.433C349.347 279.745 351.771 276.649 354.196 277.337C356.62 278.025 360.084 275.617 360.084 273.897C360.084 272.177 361.815 259.105 362.508 257.729C363.201 256.353 361.815 254.977 360.776 252.569C359.737 250.161 359.737 247.753 359.045 246.033C358.352 244.313 356.274 245.345 354.542 242.593C352.81 239.841 350.386 239.497 350.04 240.873C349.773 241.932 345.638 246.896 343.372 249.518C343.207 249.709 342.968 249.817 342.716 249.817C342.191 249.817 341.785 249.357 341.851 248.836L341.985 247.77C342.038 247.348 341.819 246.938 341.438 246.749L340.644 246.355C340.257 246.163 340.037 245.744 340.099 245.317L340.252 244.25C340.307 243.868 340.577 243.554 340.942 243.428C342.887 242.757 345.883 241.424 345.883 240.185C345.883 238.465 350.386 236.057 352.464 236.401C354.542 236.745 356.274 234.681 356.274 234.337C356.274 233.993 354.196 216.793 355.235 214.729C355.977 213.255 357.326 206.37 358.1 202.055C358.224 201.365 359.025 201.001 359.481 201.534C359.721 201.815 359.858 202.105 359.737 202.344C359.391 203.032 358.006 214.729 356.967 216.793C355.927 218.857 359.045 230.553 359.045 232.961C359.045 235.369 363.893 240.873 365.625 240.529C367.357 240.185 368.742 243.969 369.435 243.625C370.128 243.281 375.669 240.873 377.055 240.185C378.44 239.497 383.635 230.209 384.674 229.177C385.713 228.145 389.177 228.833 391.255 229.865C393.333 230.897 397.143 227.801 397.143 226.769C397.143 225.737 404.069 205.784 404.416 205.44C404.762 205.096 409.265 198.216 409.957 197.184C410.65 196.152 415.152 189.96 415.499 188.928C415.845 187.896 415.499 183.08 415.499 181.704C415.499 180.75 416.367 178.691 416.974 177.413C417.121 177.104 417.466 176.947 417.798 177.029C418.23 177.136 418.467 177.601 418.301 178.014L417.953 178.878C417.933 178.927 417.911 178.972 417.886 179.019C416.901 180.891 417.564 189.629 416.538 190.648C415.499 191.68 411.689 199.592 410.996 200.624C410.304 201.656 407.187 206.817 405.455 208.537C404.187 209.795 401.664 219.402 400.271 225.244C400.134 225.818 400.755 226.267 401.261 225.966C401.493 225.827 401.79 225.839 401.988 226.023C402.393 226.398 402.767 226.9 402.338 227.113C401.645 227.457 395.411 232.617 396.45 232.961C397.489 233.305 408.918 231.929 411.689 231.241C414.46 230.553 420.348 233.649 422.772 234.681C425.196 235.713 428.314 234.337 431.084 234.681C433.855 235.025 433.162 242.937 433.162 243.969C433.162 244.592 435.133 245.384 436.845 245.933C437.539 246.155 437.803 247.019 437.328 247.57C436.847 248.127 436.059 248.771 435.34 248.615C435.114 248.566 434.852 248.508 434.548 248.441C430.738 247.753 430.738 242.249 430.392 239.153C430.045 236.057 426.235 236.745 424.504 236.745C422.772 236.745 417.577 235.369 414.46 233.649C411.343 231.929 408.226 234.681 402.338 235.369C396.45 236.057 393.679 232.961 389.177 231.929C384.674 230.897 383.981 235.369 383.981 237.777C383.981 240.185 374.63 242.249 369.781 246.721C364.932 251.193 369.781 254.633 369.781 257.729C369.781 259.705 368.458 263.711 367.396 266.531C367.105 267.303 367.803 268.1 368.603 267.899C371.506 267.169 375.507 266.205 377.055 265.985C379.479 265.641 390.562 264.953 393.679 264.609C396.108 264.341 403.333 266.227 406.908 267.278C407.091 267.332 407.253 267.437 407.377 267.582C408.127 268.46 409.449 270.045 409.957 270.801C410.65 271.833 420.001 276.305 421.733 276.305H424.953C425.604 276.305 426.081 276.918 425.922 277.549L425.299 280.024C425.234 280.286 425.276 280.563 425.417 280.792L427.57 284.29C428.058 285.085 427.305 286.013 426.444 285.651C425.465 285.24 424.394 284.744 423.465 284.217C421.04 282.841 417.577 280.433 416.191 279.745C414.806 279.057 397.835 269.425 391.601 268.393C385.367 267.361 374.284 270.457 369.781 272.521C365.279 274.585 362.162 275.961 360.084 278.369C358.006 280.777 352.464 284.905 351.771 286.625C351.079 288.345 344.498 291.441 341.035 292.817C337.571 294.193 333.069 300.041 333.761 302.793C334.454 305.545 337.225 301.417 343.459 297.977C349.693 294.537 350.732 291.785 352.464 290.409C354.196 289.033 361.469 282.153 364.24 280.433C366.181 279.228 371.272 279.342 374.446 279.62C375.078 279.675 375.317 280.225 374.797 280.589C372.962 281.873 368.535 284.059 363.893 287.313C358.006 291.441 356.967 295.569 355.235 297.977C353.503 300.385 334.454 311.738 330.298 315.522C326.161 319.288 307.958 348.611 304.372 356.01C304.336 356.085 304.314 356.155 304.298 356.236C301.611 369.976 311.599 387.095 312.981 393.954C314.366 400.834 320.947 420.787 320.6 429.043C320.254 437.299 315.405 460.691 315.059 463.099C314.785 465.006 311.661 464.486 307.903 464.475C307.826 464.475 307.748 464.484 307.673 464.502Z" fill="#E8A274"/>
<path d="M125.661 100.907C126.794 102.169 127.622 103.514 128.146 104.944C128.67 106.373 128.89 107.807 128.806 109.246C128.722 110.685 128.328 112.091 127.626 113.463C126.923 114.836 125.911 116.104 124.591 117.268L117.977 123.097L102.518 105.883L109.133 100.054C110.453 98.8905 111.846 98.0469 113.311 97.5234C114.769 96.9919 116.224 96.7686 117.677 96.8534C119.122 96.9303 120.531 97.3097 121.903 97.9914C123.275 98.6732 124.527 99.645 125.661 100.907ZM122.348 103.827C121.499 102.882 120.612 102.15 119.686 101.629C118.761 101.094 117.827 100.78 116.884 100.687C115.941 100.58 115.005 100.687 114.075 101.008C113.154 101.323 112.269 101.854 111.42 102.602L108.047 105.574L118.93 117.693L122.303 114.72C123.152 113.973 123.787 113.164 124.21 112.294C124.641 111.416 124.86 110.512 124.869 109.58C124.879 108.633 124.673 107.677 124.251 106.713C123.83 105.733 123.196 104.771 122.348 103.827Z" fill="#A04121"/>
<path d="M143.786 86.9091C144.465 86.4661 144.998 85.9969 145.386 85.5017C145.783 85.0007 146.045 84.4987 146.172 83.9957C146.301 83.478 146.311 82.9624 146.2 82.449C146.089 81.9355 145.871 81.4345 145.546 80.946C144.896 79.969 144.071 79.4313 143.07 79.3329C142.079 79.2286 140.917 79.6108 139.586 80.4795L137.282 81.9836L141.535 88.3782L143.786 86.9091ZM159.775 90.9561L156.519 93.081C155.902 93.4833 155.296 93.535 154.7 93.2361L146.525 89.7263C146.219 89.5945 145.94 89.5409 145.688 89.5657C145.444 89.5846 145.143 89.7106 144.786 89.9438L143.245 90.9494L148.252 98.4765L144.647 100.829L131.834 81.5649L137.743 77.7084C139.056 76.8515 140.273 76.2546 141.394 75.9178C142.519 75.5663 143.542 75.4394 144.466 75.5373C145.398 75.6294 146.235 75.9241 146.975 76.4214C147.71 76.9098 148.349 77.5626 148.893 78.3797C149.324 79.0281 149.633 79.705 149.821 80.4106C150.017 81.1103 150.089 81.815 150.036 82.5248C149.991 83.2287 149.819 83.9331 149.52 84.6382C149.229 85.3374 148.812 86.0107 148.269 86.658C148.59 86.6397 148.911 86.6596 149.231 86.7179C149.546 86.7673 149.866 86.8638 150.193 87.0076L159.775 90.9561Z" fill="#A04121"/>
<path d="M189.442 62.8671C190.158 64.4043 190.566 65.9479 190.665 67.4978C190.769 69.0337 190.578 70.4931 190.093 71.8761C189.608 73.2591 188.837 74.5207 187.78 75.661C186.718 76.7916 185.387 77.7229 183.786 78.4549C182.195 79.1825 180.621 79.5798 179.064 79.647C177.502 79.7045 176.027 79.4698 174.64 78.943C173.263 78.4117 172.013 77.6111 170.89 76.541C169.763 75.4613 168.842 74.1529 168.125 72.6157C167.408 71.0785 167.003 69.5397 166.909 67.9995C166.81 66.4495 167.003 64.983 167.488 63.6C167.983 62.2126 168.761 60.9536 169.823 59.8229C170.88 58.6826 172.204 57.7487 173.795 57.0212C174.862 56.5332 175.925 56.1997 176.983 56.0208C178.036 55.8322 179.062 55.7854 180.059 55.8805C181.052 55.9658 182.01 56.1905 182.933 56.5543C183.861 56.904 184.728 57.3754 185.534 57.9686C186.34 58.5617 187.071 59.2713 187.727 60.0974C188.392 60.9191 188.964 61.8423 189.442 62.8671ZM185.44 64.697C184.904 63.5465 184.269 62.5879 183.535 61.8211C182.796 61.0446 181.992 60.4682 181.122 60.0918C180.253 59.7155 179.327 59.5467 178.344 59.5854C177.372 59.6196 176.371 59.8719 175.343 60.3421C174.315 60.8124 173.467 61.4052 172.8 62.1207C172.143 62.8317 171.673 63.6393 171.388 64.5436C171.113 65.4434 171.034 66.4235 171.152 67.4839C171.265 68.5346 171.59 69.6353 172.126 70.7857C172.663 71.9362 173.3 72.8997 174.039 73.6762C174.773 74.443 175.575 75.0146 176.444 75.3909C177.319 75.7532 178.243 75.9172 179.216 75.8829C180.198 75.8442 181.203 75.5897 182.231 75.1195C183.26 74.6493 184.102 74.0586 184.759 73.3476C185.426 72.6322 185.899 71.8294 186.179 70.9392C186.454 70.0394 186.534 69.0641 186.421 68.0134C186.303 66.953 185.976 65.8475 185.44 64.697Z" fill="#A04121"/>
<path d="M216.759 61.9841C217.559 61.7564 218.234 61.4203 218.782 60.9759C219.341 60.5286 219.766 60.0029 220.057 59.3988C220.348 58.7947 220.507 58.1174 220.534 57.3668C220.571 56.6133 220.466 55.8114 220.219 54.9611L216.359 41.6537L220.499 40.4759L224.359 53.7833C224.742 55.1049 224.882 56.3904 224.778 57.6398C224.681 58.8761 224.352 60.0179 223.789 61.0651C223.234 62.0992 222.454 63.0087 221.449 63.7937C220.441 64.5685 219.224 65.1587 217.797 65.5645C216.361 65.9731 215.008 66.1141 213.739 65.9873C212.466 65.8503 211.312 65.491 210.277 64.9094C209.25 64.3146 208.358 63.5202 207.604 62.5262C206.856 61.519 206.291 60.3546 205.907 59.0331L202.047 45.7256L206.187 44.5478L210.043 57.8399C210.289 58.6902 210.625 59.4264 211.05 60.0486C211.485 60.6678 211.989 61.162 212.563 61.5311C213.143 61.8871 213.785 62.1092 214.488 62.1975C215.202 62.2829 215.959 62.2118 216.759 61.9841Z" fill="#A04121"/>
<path d="M261.224 44.9231L262.447 54.2029C261.396 55.2097 260.236 55.9995 258.967 56.5721C257.707 57.1328 256.325 57.5102 254.823 57.7042C252.951 57.946 251.214 57.8745 249.614 57.4896C248.025 57.1033 246.623 56.4617 245.407 55.5646C244.202 54.6663 243.214 53.5355 242.442 52.1724C241.671 50.8093 241.173 49.2765 240.949 47.5739C240.722 45.8501 240.794 44.2329 241.165 42.7222C241.536 41.2116 242.166 39.8718 243.056 38.7029C243.956 37.5327 245.104 36.567 246.499 35.8061C247.894 35.0451 249.507 34.5464 251.337 34.3101C252.268 34.1899 253.145 34.1519 253.969 34.1961C254.803 34.2389 255.581 34.3481 256.303 34.5237C257.035 34.6874 257.711 34.9174 258.331 35.2137C258.951 35.5101 259.528 35.8496 260.063 36.2323L259.096 38.3253C258.946 38.6566 258.723 38.8791 258.425 38.9927C258.127 39.0958 257.783 39.0595 257.394 38.8839C257.019 38.728 256.643 38.5722 256.268 38.4164C255.892 38.2605 255.478 38.1366 255.024 38.0445C254.582 37.9511 254.084 37.8917 253.532 37.8662C252.991 37.8393 252.371 37.871 251.673 37.9611C250.541 38.1073 249.54 38.4302 248.67 38.9298C247.81 39.428 247.104 40.073 246.552 40.8649C246 41.6568 245.615 42.5723 245.397 43.6115C245.179 44.6506 245.151 45.7836 245.313 47.0103C245.485 48.3216 245.825 49.4716 246.332 50.4601C246.848 51.4367 247.492 52.2409 248.264 52.8726C249.045 53.4923 249.942 53.9304 250.954 54.1867C251.966 54.4326 253.064 54.4789 254.249 54.3259C255.095 54.2166 255.84 54.0291 256.482 53.7632C257.125 53.4974 257.744 53.1701 258.338 52.7814L257.79 48.6254L254.902 48.9983C254.627 49.0339 254.401 48.9879 254.223 48.8603C254.054 48.7208 253.954 48.54 253.925 48.3179L253.607 45.9068L261.224 44.9231Z" fill="#A04121"/>
<path d="M299.893 32.4297L299.356 55.5595L295.037 55.4603L295.272 45.351L284.411 45.1017L284.176 55.211L279.857 55.1118L280.394 31.982L284.713 32.0812L284.482 42.0305L295.343 42.2799L295.574 32.3305L299.893 32.4297Z" fill="#A04121"/>
<path d="M336.608 40.4126L329.732 39.2403L326.38 58.5517L322.137 57.8284L325.489 38.517L318.612 37.3447L319.217 33.8608L337.213 36.9287L336.608 40.4126Z" fill="#A04121"/>
<path d="M364.2 64.1359L363.129 67.5226L350.186 63.5036L357.163 41.4446L361.273 42.721L355.368 61.3934L364.2 64.1359Z" fill="#A04121"/>
<path d="M394.317 70.5855L395.089 62.446C395.111 62.0792 395.155 61.6523 395.223 61.1655C395.29 60.6786 395.373 60.1581 395.473 59.6038C395.113 60.0356 394.762 60.4363 394.419 60.8058C394.081 61.1657 393.774 61.475 393.497 61.7336L387.655 67.4571L394.317 70.5855ZM397.426 81.6967L394.414 80.2821C394.076 80.1234 393.84 79.9124 393.706 79.6491C393.576 79.3761 393.518 79.0896 393.531 78.7896L394.004 73.7972L385.329 69.7234L381.728 73.2468C381.545 73.4318 381.299 73.5636 380.989 73.6421C380.68 73.7207 380.361 73.6829 380.032 73.5287L376.991 72.1005L395.216 55.0994L399.184 56.9629L397.426 81.6967Z" fill="#A04121"/>
<path d="M441.115 81.1862L428.056 100.284L426.223 99.054C425.939 98.8638 425.73 98.6593 425.596 98.4404C425.476 98.2188 425.403 97.9384 425.376 97.5994L424.051 78.1355C423.707 78.7523 423.366 79.3073 423.029 79.8004L415.01 91.5288L411.861 89.4156L424.92 70.3174L426.793 71.5746C426.944 71.6756 427.066 71.7706 427.16 71.8595C427.269 71.9456 427.349 72.0374 427.398 72.1349C427.463 72.2296 427.508 72.3433 427.533 72.476C427.565 72.6 427.587 72.7563 427.6 72.9449L428.929 92.4884C429.113 92.1624 429.299 91.8437 429.486 91.5325C429.673 91.2212 429.853 90.9379 430.028 90.6826L437.966 79.073L441.115 81.1862Z" fill="#A04121"/>
<path d="M465.437 116.484C464.281 117.725 463.011 118.674 461.626 119.33C460.242 119.986 458.823 120.344 457.369 120.402C455.916 120.46 454.465 120.21 453.017 119.652C451.569 119.094 450.195 118.221 448.896 117.033L442.39 111.084L458.163 94.157L464.669 100.106C465.967 101.294 466.952 102.585 467.622 103.978C468.299 105.363 468.666 106.776 468.724 108.216C468.789 109.649 468.546 111.074 467.996 112.494C467.446 113.913 466.593 115.243 465.437 116.484ZM462.178 113.504C463.044 112.575 463.692 111.629 464.124 110.665C464.571 109.701 464.794 108.749 464.795 107.81C464.81 106.87 464.611 105.958 464.196 105.073C463.789 104.195 463.169 103.374 462.334 102.611L459.016 99.5773L447.913 111.494L451.23 114.528C452.065 115.291 452.94 115.838 453.856 116.17C454.779 116.508 455.71 116.637 456.647 116.554C457.599 116.471 458.539 116.174 459.466 115.664C460.409 115.153 461.313 114.433 462.178 113.504Z" fill="#A04121"/>
<path d="M117.151 460.127L120.814 452.796C120.967 452.461 121.163 452.078 121.402 451.647C121.64 451.216 121.906 450.76 122.199 450.278C121.709 450.55 121.237 450.797 120.786 451.018C120.342 451.232 119.945 451.409 119.594 451.55L112.099 454.775L117.151 460.127ZM116.016 471.65L113.732 469.23C113.475 468.959 113.333 468.676 113.303 468.38C113.282 468.078 113.332 467.789 113.453 467.513L115.699 463.016L109.119 456.048L104.501 458.031C104.264 458.138 103.988 458.171 103.672 458.132C103.356 458.093 103.074 457.941 102.825 457.678L100.518 455.234L123.591 445.972L126.6 449.159L116.016 471.65Z" fill="#5E817A"/>
<path d="M133.603 472.025C132.799 473.008 132.209 473.999 131.831 475C131.461 475.992 131.296 476.96 131.338 477.903C131.394 478.845 131.651 479.744 132.109 480.6C132.574 481.463 133.245 482.252 134.12 482.968C134.995 483.684 135.898 484.181 136.828 484.459C137.766 484.744 138.698 484.817 139.624 484.679C140.557 484.532 141.473 484.179 142.372 483.619C143.278 483.051 144.132 482.275 144.936 481.293C145.739 480.31 146.326 479.322 146.697 478.33C147.074 477.33 147.242 476.358 147.2 475.414C147.159 474.471 146.905 473.568 146.44 472.705C145.982 471.849 145.316 471.063 144.441 470.347C143.566 469.631 142.659 469.131 141.721 468.846C140.791 468.568 139.855 468.499 138.914 468.638C137.981 468.785 137.062 469.142 136.156 469.711C135.257 470.271 134.406 471.042 133.603 472.025ZM139.081 497.298L136.332 495.049C135.935 494.725 135.62 494.378 135.386 494.007C135.16 493.643 135.033 493.209 135.005 492.704L134.749 487.658C134.234 487.429 133.729 487.161 133.236 486.855C132.751 486.555 132.269 486.209 131.79 485.817C130.436 484.71 129.387 483.473 128.644 482.107C127.907 480.733 127.473 479.31 127.34 477.838C127.216 476.372 127.391 474.903 127.865 473.43C128.346 471.949 129.123 470.552 130.196 469.24C131.27 467.927 132.481 466.892 133.831 466.135C135.187 465.37 136.595 464.903 138.056 464.733C139.526 464.571 141.004 464.718 142.49 465.176C143.983 465.625 145.406 466.403 146.76 467.511C147.669 468.253 148.435 469.06 149.061 469.929C149.693 470.791 150.185 471.689 150.536 472.624C150.895 473.551 151.112 474.507 151.188 475.492C151.279 476.476 151.233 477.458 151.051 478.439C150.869 479.42 150.549 480.385 150.091 481.333C149.641 482.288 149.058 483.203 148.342 484.078C147.687 484.879 146.976 485.579 146.21 486.179C145.451 486.771 144.654 487.256 143.821 487.635C142.995 488.021 142.14 488.3 141.255 488.472C140.377 488.636 139.488 488.688 138.587 488.626L139.081 497.298Z" fill="#5E817A"/>
<path d="M158.723 500.564C159.429 501.004 160.132 501.278 160.831 501.386C161.539 501.5 162.215 501.463 162.86 501.274C163.506 501.085 164.117 500.749 164.694 500.267C165.28 499.79 165.807 499.175 166.274 498.424L173.597 486.661L177.251 488.935L169.928 500.698C169.201 501.866 168.337 502.83 167.337 503.589C166.351 504.345 165.28 504.866 164.123 505.15C162.98 505.432 161.779 505.463 160.52 505.245C159.267 505.018 158.011 504.512 156.753 503.729C155.485 502.94 154.472 502.033 153.715 501.009C152.964 499.976 152.457 498.882 152.196 497.727C151.95 496.568 151.944 495.377 152.178 494.153C152.427 492.926 152.915 491.728 153.642 490.56L160.965 478.797L164.618 481.071L157.304 492.821C156.837 493.573 156.513 494.314 156.335 495.044C156.166 495.781 156.136 496.485 156.245 497.156C156.37 497.824 156.635 498.448 157.041 499.027C157.456 499.612 158.016 500.124 158.723 500.564Z" fill="#5E817A"/>
<path d="M190.108 511.355L190.761 503.186C190.777 502.818 190.815 502.389 190.875 501.9C190.936 501.412 191.011 500.889 191.103 500.332C190.75 500.769 190.405 501.174 190.069 501.548C189.737 501.912 189.435 502.225 189.162 502.487L183.42 508.283L190.108 511.355ZM193.369 522.465L190.345 521.076C190.006 520.921 189.767 520.711 189.63 520.449C189.497 520.176 189.435 519.89 189.444 519.589L189.843 514.578L181.133 510.579L177.593 514.147C177.413 514.334 177.17 514.469 176.862 514.551C176.555 514.633 176.236 514.598 175.906 514.447L172.853 513.044L190.781 495.818L194.765 497.647L193.369 522.465Z" fill="#5E817A"/>
<path d="M226.64 512.824L224.928 519.455L233.324 521.623L232.464 524.954L224.068 522.786L221.712 531.911L217.529 530.831L223.313 508.429L237.441 512.077L236.585 515.392L226.64 512.824Z" fill="#5E817A"/>
<path d="M247.198 537.388L242.936 536.683L246.708 513.857L250.97 514.561L247.198 537.388Z" fill="#5E817A"/>
<path d="M280.724 517.429L279.263 540.519L277.06 540.379C276.719 540.358 276.435 540.287 276.207 540.165C275.991 540.034 275.785 539.829 275.589 539.549L264.507 523.393C264.526 524.1 264.517 524.751 264.479 525.347L263.582 539.527L259.798 539.288L261.258 516.198L263.51 516.34C263.691 516.352 263.845 516.372 263.971 516.401C264.109 516.421 264.224 516.46 264.316 516.519C264.42 516.569 264.517 516.644 264.607 516.746C264.697 516.837 264.796 516.961 264.904 517.118L276.03 533.34C276.021 532.966 276.018 532.597 276.02 532.234C276.021 531.87 276.032 531.534 276.051 531.226L276.939 517.19L280.724 517.429Z" fill="#5E817A"/>
<path d="M295.826 540.213L291.509 540.374L290.643 517.255L294.96 517.093L295.826 540.213Z" fill="#5E817A"/>
<path d="M321.996 517.948L315.079 518.859L317.64 538.291L313.373 538.854L310.812 519.422L303.896 520.333L303.434 516.827L321.534 514.442L321.996 517.948Z" fill="#5E817A"/>
<path d="M344.734 529.504C345.539 529.296 346.222 528.977 346.783 528.546C347.354 528.112 347.794 527.596 348.102 526.999C348.411 526.401 348.589 525.727 348.638 524.977C348.697 524.223 348.616 523.418 348.394 522.561L344.93 509.145L349.098 508.069L352.562 521.485C352.906 522.817 353.007 524.107 352.867 525.355C352.734 526.591 352.372 527.725 351.779 528.759C351.195 529.781 350.389 530.672 349.363 531.432C348.334 532.183 347.101 532.743 345.666 533.114C344.22 533.487 342.865 533.595 341.601 533.436C340.335 533.267 339.194 532.879 338.177 532.271C337.169 531.65 336.302 530.833 335.578 529.819C334.861 528.792 334.331 527.613 333.987 526.281L330.523 512.864L334.69 511.789L338.15 525.189C338.371 526.046 338.685 526.792 339.091 527.425C339.507 528.056 339.996 528.563 340.558 528.947C341.127 529.317 341.762 529.556 342.461 529.662C343.171 529.765 343.928 529.712 344.734 529.504Z" fill="#5E817A"/>
<path d="M380.403 496.027L389.314 517.378L385.815 518.839L380.059 505.048C379.829 504.497 379.61 503.889 379.402 503.224L378.009 518.04C377.946 518.748 377.599 519.233 376.969 519.496L376.408 519.731C375.778 519.993 375.19 519.898 374.642 519.445L363.038 510.002C363.203 510.314 363.361 510.624 363.512 510.931C363.663 511.237 363.794 511.524 363.905 511.79L369.661 525.581L366.161 527.041L357.251 505.69L360.248 504.439C360.425 504.365 360.58 504.306 360.712 504.263C360.844 504.219 360.968 504.197 361.082 504.195C361.207 504.189 361.327 504.214 361.443 504.27C361.569 504.321 361.702 504.405 361.842 504.519L373.184 513.708C373.483 513.953 373.771 514.214 374.048 514.491C374.336 514.764 374.622 515.049 374.908 515.346C374.894 514.924 374.891 514.515 374.899 514.119C374.902 513.713 374.922 513.317 374.958 512.933L376.327 498.474C376.344 498.293 376.379 498.14 376.43 498.015C376.482 497.889 376.549 497.786 376.631 497.706C376.722 497.621 376.83 497.547 376.954 497.484C377.078 497.421 377.229 497.352 377.406 497.278L380.403 496.027Z" fill="#5E817A"/>
<path d="M406.653 484.93L410.221 490.263L416.95 485.762L418.791 488.514L412.062 493.016L415.7 498.455L424.238 492.744L426.151 495.603L414.022 503.716L401.159 484.486L413.288 476.373L415.191 479.219L406.653 484.93Z" fill="#5E817A"/>
<path d="M432.598 466.34C432.645 466.594 432.645 466.81 432.6 466.987C432.556 467.15 432.453 467.301 432.29 467.438C432.119 467.583 431.88 467.68 431.573 467.73C431.267 467.765 430.911 467.822 430.503 467.902C430.095 467.981 429.652 468.118 429.174 468.313C428.697 468.492 428.207 468.796 427.701 469.223C427.245 469.608 426.894 470.003 426.649 470.406C426.396 470.801 426.234 471.196 426.163 471.591C426.101 471.98 426.129 472.361 426.249 472.734C426.363 473.099 426.557 473.445 426.832 473.771C427.184 474.186 427.59 474.436 428.053 474.52C428.523 474.597 429.032 474.572 429.58 474.443C430.128 474.315 430.712 474.122 431.332 473.864C431.951 473.605 432.594 473.349 433.258 473.094C433.916 472.831 434.589 472.611 435.278 472.434C435.959 472.249 436.643 472.174 437.329 472.209C438.008 472.235 438.678 472.409 439.34 472.729C440.01 473.043 440.655 473.566 441.275 474.299C441.95 475.097 442.445 475.964 442.76 476.898C443.077 477.818 443.191 478.762 443.102 479.731C443.015 480.685 442.719 481.633 442.217 482.575C441.707 483.509 440.964 484.389 439.986 485.215C439.424 485.69 438.822 486.101 438.18 486.449C437.544 486.804 436.888 487.094 436.211 487.317C435.542 487.534 434.867 487.685 434.186 487.772C433.505 487.859 432.846 487.872 432.207 487.811L431.84 485.418C431.825 485.235 431.852 485.052 431.92 484.869C431.982 484.677 432.086 484.519 432.232 484.395C432.436 484.223 432.728 484.123 433.109 484.094C433.483 484.057 433.919 484.003 434.417 483.931C434.915 483.859 435.452 483.726 436.028 483.533C436.606 483.324 437.2 482.961 437.811 482.444C438.748 481.652 439.287 480.82 439.428 479.946C439.563 479.064 439.279 478.208 438.576 477.377C438.184 476.912 437.745 476.633 437.261 476.54C436.785 476.44 436.273 476.453 435.725 476.582C435.17 476.702 434.59 476.899 433.984 477.174C433.378 477.448 432.754 477.718 432.111 477.982C431.468 478.246 430.806 478.471 430.124 478.656C429.443 478.841 428.756 478.912 428.063 478.869C427.37 478.826 426.675 478.632 425.977 478.286C425.281 477.925 424.592 477.341 423.91 476.534C423.366 475.891 422.962 475.157 422.698 474.333C422.442 473.501 422.359 472.643 422.448 471.757C422.538 470.871 422.82 469.983 423.296 469.092C423.772 468.201 424.474 467.363 425.403 466.578C426.445 465.696 427.544 465.046 428.699 464.629C429.855 464.211 430.99 464.033 432.104 464.096L432.598 466.34Z" fill="#5E817A"/>
<path d="M453.38 444.759L448.615 449.854L462.93 463.242L459.99 466.386L445.675 452.997L440.91 458.092L438.328 455.677L450.798 442.344L453.38 444.759Z" fill="#5E817A"/>
</svg>
