<svg width="998" height="1194" viewBox="0 0 998 1194" fill="none" xmlns="http://www.w3.org/2000/svg">
<g opacity="0.4" clip-path="url(#clip0_449_65)">
<path d="M534.747 1220.17L462.223 1237.27C453.612 1239.06 456.075 1231.16 458.534 1223.83C460.994 1216.5 483.128 1168.87 488.047 1150.55C492.966 1132.23 489.277 1120.01 491.736 1098.03C494.195 1076.04 496.655 1046.73 496.655 1041.84C496.655 1036.96 489.277 997.873 486.817 990.545C484.358 983.217 474.52 935.583 470.831 916.04C467.142 896.498 463.453 861.078 464.683 820.772C465.912 780.466 462.223 791.459 459.764 773.138C457.304 754.817 437.629 740.161 432.71 734.054C427.792 727.947 393.36 687.641 392.13 677.87C391.148 670.062 365.547 625.048 352.824 603.441C352.795 603.391 352.785 603.336 352.795 603.278C353.215 600.78 354.267 594.759 355.239 589.93C356.469 583.823 352.78 565.502 351.55 552.067C350.321 538.632 319.578 505.654 315.886 500.769C312.194 495.883 265.471 464.127 261.782 458.02C258.878 453.212 247.795 455.896 242.365 457.923C242.225 457.975 242.075 457.893 242.039 457.749L239.665 448.32C239.654 448.274 239.655 448.227 239.67 448.182L245.783 429.966C245.792 429.941 245.796 429.914 245.796 429.887C245.762 395.712 202.755 373.743 200.297 370.08C197.838 366.416 195.378 361.531 196.608 357.866C197.836 354.207 200.291 351.765 202.748 343.24C202.753 343.22 202.757 343.199 202.758 343.179C203.96 310.216 160.945 283.363 156.028 285.805C151.109 288.247 119.135 276.034 111.759 271.148C105.882 267.255 83.2475 264.655 72.5362 263.829C72.4542 263.823 72.3917 263.788 72.3482 263.718C66.9889 255.116 3.5361 235.723 1.08637 234.506C-0.785049 233.577 0.161883 226.681 0.964297 222.856C1.00916 222.642 1.30329 222.57 1.46067 222.722C5.80226 226.903 35.8695 239.479 45.3556 241.835C55.1932 244.277 72.409 250.384 76.0981 254.049C79.7872 257.713 111.759 261.377 115.449 261.377C119.138 261.377 112.989 244.277 111.759 232.064C110.53 219.85 79.7872 177.101 76.0981 170.994C72.409 164.887 72.409 156.338 72.409 151.452C72.409 146.566 47.815 113.589 46.5853 102.597C45.3556 91.604 50.2744 81.8329 50.2744 75.726C50.2744 70.868 45.411 49.5057 42.9381 39.2578C42.9125 39.1519 42.96 39.0463 43.0537 38.9905L55.0767 31.8255C55.1493 31.7822 55.2403 31.7762 55.3073 31.8278C56.0639 32.4102 56.4823 35.0092 52.7327 41.5272C47.8144 50.0769 56.4213 65.9549 57.651 75.726C58.8807 85.4971 56.4213 101.375 57.651 107.482C58.8807 113.589 81.0147 144.124 83.4741 147.788C85.9335 151.452 82.2444 155.116 83.4741 163.666C84.7038 172.216 112.987 205.193 119.135 218.628C125.284 232.064 122.824 252.827 126.514 261.377C130.203 269.927 149.878 265.041 167.094 271.148C184.309 277.255 207.674 315.118 207.674 317.561C207.674 320.003 216.281 326.11 217.511 321.225C218.741 316.339 211.362 300.461 212.592 289.469C213.822 278.476 222.43 261.377 222.43 244.277C222.43 227.178 227.349 201.529 233.497 194.201C239.646 186.872 285.144 162.444 290.063 155.116C294.982 147.788 294.982 112.368 297.441 106.261C299.901 100.154 310.968 100.154 313.428 98.9324C315.887 97.711 341.711 59.848 345.4 56.1838C349.089 52.5196 376.142 41.5272 379.831 39.0844C383.52 36.6416 400.736 21.985 404.425 15.878C407.134 11.394 409.359 4.50918 410.341 0.889656C410.407 0.644452 410.759 0.642429 410.829 0.886584L413.033 8.54971C413.443 10.1782 414.017 14.6566 413.033 19.5422C412.063 24.3598 397.462 37.4908 389.981 43.7108C389.837 43.8307 389.878 44.0562 390.051 44.1279L403.967 49.8873C404.156 49.9655 404.175 50.2259 403.999 50.3307L398.375 53.6828C398.312 53.7198 398.236 53.7275 398.168 53.705C376.082 46.4609 357.687 61.0754 351.548 64.7335C346.681 67.6339 330.979 90.7031 323.501 102.232C323.396 102.395 323.515 102.603 323.709 102.608L370.771 103.806C370.967 103.811 371.081 104.031 370.971 104.194L366.386 111.025C366.336 111.1 366.253 111.142 366.163 111.135C345.624 109.514 305.316 108.726 307.279 118.475C309.738 130.688 299.901 166.109 282.685 180.765C265.469 195.422 240.875 211.3 235.956 222.292C231.038 233.285 234.727 260.155 231.037 268.705C227.346 277.255 228.578 289.469 227.349 295.576C226.119 301.683 231.037 317.561 231.037 324.889C231.037 332.217 223.658 352.981 224.888 359.088C226.118 365.195 244.563 378.63 247.023 378.63C249.482 378.63 256.86 381.073 259.32 388.401C261.779 395.729 267.928 421.379 271.617 427.486C275.306 433.592 302.359 461.684 306.048 458.02C309.737 454.356 299.9 417.714 299.9 401.836C299.9 389.268 284.651 343.777 276.785 321.916C276.703 321.691 276.962 321.507 277.162 321.639L283.852 326.069C283.892 326.096 283.921 326.126 283.94 326.171C287.683 334.882 304.821 382.328 306.048 396.951C307.278 411.607 313.427 459.242 315.886 464.127C317.821 467.972 334.194 483.162 342.531 490.633C342.691 490.776 342.939 490.657 342.939 490.442V480.406C342.939 480.222 343.132 480.102 343.295 480.189C345.01 481.107 347.858 483.069 347.858 484.891C347.858 487.333 351.547 501.99 363.844 519.09C389.668 559.395 384.749 597.258 387.208 615.579C389.668 633.9 410.573 653.442 415.492 666.877C419.413 677.588 437.498 698.081 446.143 707.088C446.202 707.149 446.283 707.174 446.366 707.157C448.484 706.732 453.182 705.697 456.072 704.74C459.761 703.519 469.598 715.733 469.598 714.511C469.598 713.546 473.6 687.858 475.673 674.678C475.704 674.477 475.942 674.411 476.069 674.57C476.932 675.655 478.206 678.088 478.206 681.534C478.206 686.42 481.895 704.74 481.895 718.176C481.895 731.611 485.585 745.046 490.503 740.161C497.39 731.367 495.012 710.44 492.963 701.076C492.553 698.635 493.208 691.315 499.1 681.553C499.107 681.541 499.116 681.528 499.126 681.517C519.707 658.138 517.569 624.734 513.901 610.819C513.88 610.738 513.901 610.656 513.957 610.593L523.504 599.926C523.608 599.81 523.792 599.816 523.887 599.94C525.202 601.667 527.961 605.144 529.837 607.012C529.848 607.024 529.859 607.037 529.868 607.05C537.245 618.016 547.07 613.135 548.299 610.694C549.529 608.251 586.42 586.266 588.879 580.159C590.839 575.292 588.081 550.632 586.439 538.771C586.427 538.682 586.461 538.6 586.532 538.545C590.256 535.663 597.487 529.828 597.487 528.861C597.487 527.639 593.798 494.662 597.487 490.998C600.215 488.288 607.357 476.325 611.335 469.386C611.479 469.134 612.082 469.329 612.083 469.619C612.123 476.962 617.367 496.788 619.607 494.677C619.616 494.668 619.626 494.657 619.633 494.647C636.835 471.435 630.689 425.041 630.689 415.272C630.689 407.476 606.227 385.264 593.897 375.048C593.834 374.995 593.803 374.916 593.811 374.834L594.989 363.141C595.007 362.96 595.207 362.859 595.364 362.952L606.374 369.514C606.602 369.65 607.075 369.288 607.07 369.022C606.934 362.622 621.015 336.778 623.311 332.217C625.746 327.38 619.743 309.372 619.624 305.46C619.621 305.383 619.588 305.321 619.527 305.273C602.062 291.604 598.375 239.496 598.707 214.428C598.71 214.194 599.005 214.111 599.15 214.296L607.27 224.665C607.305 224.71 607.324 224.768 607.322 224.825C606.375 259.9 624.895 288.159 634.33 297.968C634.363 298.002 634.383 298.041 634.392 298.087C636.027 306.27 637.556 325.657 630.689 338.324C622.081 354.202 622.081 370.08 619.622 381.073C617.163 392.065 635.608 400.615 639.297 398.172C650.073 390.388 651.175 369.04 650.375 359.212C650.368 359.132 650.401 359.057 650.463 359.005L697.645 319.351C697.838 319.19 698.121 319.383 698.041 319.621L693.424 333.378C693.411 333.418 693.389 333.452 693.358 333.481C682.755 343.203 661.468 362.98 660.224 365.154C660.205 365.187 660.202 365.213 660.202 365.252C660.172 376.264 651.583 398.189 645.446 407.943C639.297 417.714 641.757 458.02 642.986 465.349C644.216 472.677 624.541 510.54 622.081 515.425C619.622 520.311 622.081 536.189 622.081 552.067C622.081 567.945 601.176 588.709 580.271 610.694C559.367 632.679 549.529 676.648 542.151 687.641C534.773 698.633 518.786 759.703 522.476 757.26C526.165 754.817 585.19 677.87 591.339 640.007C597.487 602.144 619.622 588.709 624.541 586.266C629.46 583.823 677.418 569.166 679.877 566.724C682.337 564.281 690.945 553.288 699.552 555.731C708.16 558.174 720.457 549.624 720.457 543.517C720.457 537.41 726.606 490.998 729.065 486.112C731.525 481.227 726.606 476.341 722.917 467.791C719.228 459.242 719.228 450.692 716.768 444.585C714.309 438.478 706.931 442.142 700.782 432.371C694.634 422.6 686.026 421.379 684.796 426.264C683.815 430.161 668.088 448.947 660.274 457.937C660.227 457.991 660.161 458.02 660.089 458.02H655.565C655.416 458.02 655.3 457.889 655.318 457.74L656.491 448.424C656.504 448.319 656.449 448.218 656.355 448.171L649.296 444.665C649.2 444.617 649.145 444.513 649.16 444.407L650.342 436.191C650.356 436.096 650.419 436.018 650.511 435.99C657.116 433.921 670.04 428.671 670.04 423.821C670.04 417.714 686.026 409.165 693.404 410.386C700.782 411.607 706.931 404.279 706.931 403.058C706.931 401.836 699.552 340.767 703.242 333.439C706.169 327.623 711.758 298.093 714.249 283.71C714.279 283.538 714.469 283.457 714.616 283.55C716.718 284.863 720.164 287.609 719.228 289.469C717.998 291.912 713.079 333.439 709.39 340.767C705.701 348.095 716.768 389.622 716.768 398.172C716.768 406.722 733.984 426.264 740.133 425.043C746.281 423.821 751.2 437.257 753.659 436.035C756.119 434.814 775.794 426.264 780.713 423.821C785.632 421.379 804.077 388.401 807.766 384.737C811.455 381.073 823.752 383.516 831.13 387.18C838.509 390.844 852.035 379.851 852.035 376.187C852.035 372.523 876.629 301.683 877.859 300.461C879.089 299.24 895.075 274.812 897.534 271.148C899.994 267.484 915.98 245.499 917.209 241.835C918.439 238.17 917.209 221.071 917.209 216.186C917.209 212.332 921.194 203.412 923.271 199.26C923.323 199.156 923.438 199.106 923.551 199.134L927.999 200.239C928.146 200.275 928.226 200.433 928.17 200.573L925.825 206.396C925.82 206.408 925.815 206.419 925.808 206.43C922.133 212.576 924.585 244.281 920.899 247.942C917.209 251.606 903.683 279.698 901.223 283.362C898.764 287.026 887.697 305.347 881.548 311.454C876.676 316.293 866.574 355.892 862.001 375.632C861.952 375.845 862.186 376.001 862.374 375.889L867.879 372.608C867.965 372.557 868.074 372.562 868.154 372.623C869.805 373.885 872.396 376.457 870.481 377.409C868.021 378.63 845.887 396.951 849.576 398.172C853.265 399.394 893.845 394.508 903.683 392.065C913.52 389.622 934.425 400.615 943.033 404.279C951.641 407.943 962.708 403.058 972.546 404.279C982.384 405.501 979.924 433.592 979.924 437.257C979.924 440.129 991.729 444.017 997.99 445.705C998.167 445.753 998.23 445.968 998.11 446.107L991.256 454.05C991.135 454.19 991.205 454.409 991.385 454.455C992.74 454.802 992.958 454.926 984.843 453.135C971.316 450.692 971.316 431.15 970.087 420.157C968.857 409.165 955.33 411.607 949.182 411.607C943.033 411.607 924.588 406.722 913.52 400.615C902.453 394.508 891.386 404.279 870.481 406.722C849.576 409.165 839.738 398.172 823.752 394.508C807.766 390.844 805.307 406.722 805.307 415.272C805.307 423.821 772.105 431.15 754.889 447.028C737.673 462.906 754.889 475.12 754.889 486.112C754.889 494.761 747.753 514.357 744.008 523.522C743.93 523.712 744.097 523.904 744.296 523.852C753.923 521.365 773.94 516.386 780.713 515.425C789.321 514.204 828.671 511.761 839.738 510.54C848.576 509.565 875.302 516.621 887.629 520.291C887.675 520.304 887.712 520.328 887.743 520.364C890.223 523.241 895.579 529.612 897.534 532.525C899.994 536.189 933.196 552.067 939.344 552.067H955.011C955.173 552.067 955.292 552.219 955.252 552.376L951.667 566.622C951.65 566.687 951.661 566.756 951.696 566.813L964.81 588.128C964.932 588.325 964.744 588.567 964.525 588.492C960.503 587.117 952.007 583.856 945.493 580.159C936.885 575.273 924.588 566.724 919.669 564.281C914.75 561.838 854.495 527.639 832.36 523.975C810.226 520.311 770.875 531.303 754.889 538.632C738.903 545.96 727.836 550.846 720.457 559.395C713.079 567.945 693.404 582.602 690.945 588.709C688.485 594.816 665.121 605.808 652.824 610.694C640.527 615.579 624.541 636.343 627 646.114C629.46 655.885 639.297 641.228 661.432 629.014C683.566 616.801 687.255 607.029 693.404 602.144C699.552 597.258 725.376 572.831 735.214 566.724C743.009 561.885 765.119 563.037 775.497 564.246C775.654 564.264 775.748 564.416 775.673 564.555C773.613 568.362 754.384 576.849 733.984 591.151C713.079 605.808 709.39 620.465 703.242 629.014C697.093 637.564 629.46 677.87 614.703 691.305C599.952 704.736 534.816 809.71 522.488 835.403C522.479 835.422 522.474 835.439 522.469 835.459C512.653 884.31 548.3 945.359 553.218 969.781C558.137 994.209 581.501 1065.05 580.271 1094.36C579.042 1123.68 561.826 1206.73 560.596 1215.28C559.613 1222.12 548.318 1220.17 534.805 1220.17C534.785 1220.17 534.766 1220.17 534.747 1220.17Z" fill="#F5A053"/>
</g>
<defs>
<clipPath id="clip0_449_65">
<rect width="998" height="1194" fill="white"/>
</clipPath>
</defs>
</svg>
