<svg width="1600" height="427" viewBox="0 0 1600 427" fill="none" xmlns="http://www.w3.org/2000/svg">
<g clip-path="url(#clip0_4_1481)">
<path d="M1332.5 492C1462.01 492 1567 387.011 1567 257.5C1567 127.989 1462.01 23 1332.5 23C1202.99 23 1098 127.989 1098 257.5C1098 387.011 1202.99 492 1332.5 492Z" fill="#EFCB71"/>
<path d="M1332.5 454.32C1441.2 454.32 1529.32 366.201 1529.32 257.5C1529.32 148.799 1441.2 60.6801 1332.5 60.6801C1223.8 60.6801 1135.68 148.799 1135.68 257.5C1135.68 366.201 1223.8 454.32 1332.5 454.32Z" fill="#F5A053"/>
<path d="M1332.5 416.639C1420.39 416.639 1491.64 345.39 1491.64 257.5C1491.64 169.609 1420.39 98.3602 1332.5 98.3602C1244.61 98.3602 1173.36 169.609 1173.36 257.5C1173.36 345.39 1244.61 416.639 1332.5 416.639Z" fill="#F28445"/>
<path d="M1332.5 374.028C1396.86 374.028 1449.03 321.857 1449.03 257.5C1449.03 193.143 1396.86 140.972 1332.5 140.972C1268.14 140.972 1215.97 193.143 1215.97 257.5C1215.97 321.857 1268.14 374.028 1332.5 374.028Z" fill="#EA5830"/>
<path fill-rule="evenodd" clip-rule="evenodd" d="M90.006 65.2204L90 65.2173C90.045 65.2092 159.105 52.7572 171.902 107.684H171.928L171.928 107.774L171.928 406.966H159.108V110.343C108.559 116.227 90.1701 65.6743 90.006 65.2204ZM312.603 406.876V204.919C353.748 196.386 351.211 147 351.211 147C351.211 147 296.638 155.715 303.206 204.514V209.938C287.282 187.78 257 199.989 257 199.989C257 199.989 274.069 232.169 303.206 220.789V406.876H312.603Z" fill="#8EB8A2"/>
<rect y="407" width="1600" height="20" fill="#8EB8A2"/>
</g>
<defs>
<clipPath id="clip0_4_1481">
<rect width="1600" height="427" fill="white"/>
</clipPath>
</defs>
</svg>
