<svg width="24" height="24" viewBox="0 0 24 24" fill="none" xmlns="http://www.w3.org/2000/svg">
<path fill-rule="evenodd" clip-rule="evenodd" d="M8.03952 8.38086L8.06938 8.54943L8.17806 9.16301L8.72274 8.65943L8.8386 8.55232H8.99639H12.205C12.9839 8.55232 13.6307 7.98675 13.7572 7.24388C13.7788 6.89446 13.696 6.53818 13.5744 6.23449C13.5588 6.19539 13.5425 6.15715 13.5257 6.11992C13.2448 5.68841 12.7582 5.4031 12.205 5.4031H8.77512C7.90549 5.4031 7.20052 6.10808 7.20052 6.97771C7.20052 7.52191 7.47625 8.00186 7.89749 8.2853L8.03952 8.38086ZM13.8168 5.83139C13.4583 5.32817 12.87 5 12.205 5H8.77512C7.68287 5 6.79742 5.88545 6.79742 6.97771C6.79742 7.6617 7.14465 8.2646 7.67246 8.61974L7.8263 9.48824L7.90985 9.95997L8.26162 9.63475L8.99639 8.95542H9.30363C9.3496 9.01994 9.39935 9.08159 9.45255 9.14003C9.81429 9.5374 10.3357 9.78681 10.9154 9.78681H14.1239L14.8587 10.4661L15.2105 10.7914L15.294 10.3196L15.4478 9.45122C15.9757 9.09609 16.323 8.49315 16.323 7.8091C16.323 6.71684 15.4376 5.83139 14.3453 5.83139H13.8345H13.8168ZM14.1581 7.29058C14.1743 7.18867 14.1827 7.08417 14.1827 6.97771C14.1827 6.71484 14.1314 6.46395 14.0383 6.23449H14.3453C15.2149 6.23449 15.9199 6.93947 15.9199 7.8091C15.9199 8.35335 15.6441 8.83334 15.2228 9.11676L15.0808 9.21233L15.0509 9.38091L14.9422 9.99441L14.3976 9.49083L14.2817 9.38371H14.1239H10.9154C10.6151 9.38371 10.3342 9.29963 10.0951 9.15349C10.611 9.15791 11.3215 9.15183 12.2409 9.12296L12.2768 9.12183L12.312 9.11437C12.6763 9.037 12.9852 8.91985 13.241 8.76646H14.924C15.0353 8.76646 15.1255 8.67623 15.1255 8.56491C15.1255 8.4536 15.0353 8.36336 14.924 8.36336H13.7264C13.851 8.21913 13.9452 8.06373 14.0136 7.90263C14.0308 7.90735 14.0488 7.90988 14.0674 7.90988H15.5412C15.6525 7.90988 15.7428 7.81964 15.7428 7.70833C15.7428 7.59701 15.6525 7.50678 15.5412 7.50678H14.131C14.1331 7.49551 14.135 7.48423 14.1368 7.47295C14.1467 7.41219 14.1537 7.35134 14.1581 7.29058ZM9.18421 15.2751C9.12523 15.3144 9.13336 15.4089 9.19884 15.4361C9.57459 15.5917 9.916 15.8198 10.2036 16.1074C10.4912 16.395 10.7193 16.7364 10.8749 17.1121C10.9274 17.2387 10.9712 17.3684 11.0063 17.5002C11.1209 17.9304 10.7497 18.2973 10.3045 18.2973H8.01367H5.72286C5.27761 18.2973 4.90641 17.9304 5.02101 17.5002C5.05612 17.3684 5.09998 17.2387 5.15241 17.1121C5.30805 16.7364 5.53617 16.395 5.82376 16.1074C6.11134 15.8198 6.45275 15.5917 6.8285 15.4361C6.89438 15.4088 6.9026 15.3136 6.84329 15.2741C6.27601 14.8953 5.90237 14.2494 5.90237 13.5161C5.90237 12.3496 6.84802 11.4039 8.01454 11.4039C9.18106 11.4039 10.1267 12.3496 10.1267 13.5161C10.1267 14.25 9.75237 14.8965 9.18421 15.2751ZM16.3219 15.2751C16.2629 15.3144 16.2711 15.4089 16.3365 15.4361C16.7123 15.5917 17.0537 15.8198 17.3413 16.1074C17.6289 16.395 17.857 16.7364 18.0126 17.1121C18.0651 17.2387 18.1089 17.3684 18.144 17.5002C18.2586 17.9304 17.8874 18.2973 17.4422 18.2973H15.1514H12.8606C12.4153 18.2973 12.0441 17.9304 12.1587 17.5002C12.1938 17.3684 12.2377 17.2387 12.2901 17.1121C12.4457 16.7364 12.6739 16.395 12.9615 16.1074C13.249 15.8198 13.5905 15.5917 13.9662 15.4361C14.0321 15.4088 14.0403 15.3136 13.981 15.2741C13.4137 14.8953 13.0401 14.2494 13.0401 13.5161C13.0401 12.3496 13.9857 11.4039 15.1522 11.4039C16.3188 11.4039 17.2644 12.3496 17.2644 13.5161C17.2644 14.25 16.8901 14.8965 16.3219 15.2751ZM7.68077 6.57461C7.68077 6.4633 7.77101 6.37306 7.88232 6.37306H12.455C12.5663 6.37306 12.6565 6.4633 12.6565 6.57461C12.6565 6.68592 12.5663 6.77616 12.455 6.77616H7.88232C7.77101 6.77616 7.68077 6.68592 7.68077 6.57461ZM7.68077 7.22965C7.68077 7.11833 7.77101 7.0281 7.88232 7.0281H11.6488C11.7601 7.0281 11.8503 7.11833 11.8503 7.22965C11.8503 7.34096 11.7601 7.4312 11.6488 7.4312H7.88232C7.77101 7.4312 7.68077 7.34096 7.68077 7.22965Z" fill="#625D59"/>
</svg>
