<svg width="24" height="24" viewBox="0 0 24 24" fill="none" xmlns="http://www.w3.org/2000/svg">
<path d="M16.249 5.79458C16.296 5.66474 16.2288 5.52141 16.099 5.47445C15.9691 5.42748 15.8258 5.49467 15.7789 5.62451L15.14 7.39076C15.093 7.5206 15.1602 7.66393 15.29 7.71089C15.4199 7.75786 15.5632 7.69067 15.6102 7.56084L16.249 5.79458Z" fill="#625D59"/>
<path d="M17.7585 8.03245L16.0183 8.84814C15.8933 8.90674 15.8395 9.0556 15.8981 9.18061C15.9567 9.30563 16.1055 9.35947 16.2306 9.30087L17.9707 8.48518C18.0958 8.42658 18.1496 8.27772 18.091 8.1527C18.0324 8.02769 17.8836 7.97384 17.7585 8.03245Z" fill="#625D59"/>
<path d="M16.9407 10.4447C16.8068 10.4114 16.6711 10.4931 16.6378 10.6271C16.6045 10.7611 16.6862 10.8967 16.8202 10.93L18.4803 11.3425C18.6143 11.3758 18.7499 11.2942 18.7832 11.1602C18.8165 11.0262 18.7349 10.8905 18.6009 10.8572L16.9407 10.4447Z" fill="#625D59"/>
<path d="M11.9191 17.2581L10.7254 14.7115C10.6982 14.6535 10.6834 14.5935 10.6799 14.5348L9.11459 15.2613C9.1598 15.3036 9.19787 15.355 9.22574 15.4144L10.4194 17.961C10.5366 18.2111 10.8343 18.3188 11.0844 18.2016L11.6786 17.923C11.9286 17.8058 12.0363 17.5081 11.9191 17.2581Z" fill="#625D59"/>
<path d="M8.2594 15.2996L6.60121 11.7987C10.6596 10.1003 12.3121 7.20813 12.5417 6.78974C12.5889 6.70359 12.5715 6.54943 12.5527 6.38229C12.5222 6.11274 12.488 5.8094 12.7151 5.70297C13.0829 5.53054 13.3552 5.81704 13.6205 6.38295L16.7772 13.1173C16.8445 13.3101 16.8943 13.7354 16.5548 13.8946C16.2977 14.0151 16.081 13.857 15.8909 13.7184C15.7672 13.6282 15.6548 13.5462 15.5499 13.5546L15.5232 13.5567C15.1473 13.5864 12.2744 13.8132 10.989 14.1117C10.9359 14.124 10.8889 14.1451 10.8485 14.173L8.2594 15.2996Z" fill="#625D59"/>
<path d="M5.91253 12.1012C6.03006 12.0517 6.15522 11.9972 6.2868 11.938L7.9542 15.4583L7.57045 15.6381C7.09325 15.8963 6.05717 16.0289 5.35156 14.5235C4.64595 13.0182 5.39996 12.2839 5.91253 12.1012Z" fill="#625D59"/>
</svg>
