<svg width="24" height="24" viewBox="0 0 24 24" fill="none" xmlns="http://www.w3.org/2000/svg">
<path d="M15.9029 4.44019C15.8687 4.42972 15.8321 4.42534 15.7948 4.42801C15.7776 4.42899 15.7608 4.43191 15.7441 4.43605L13.4247 5.01481L13.4001 5.02138L13.3898 5.02576C13.3696 5.03331 13.3505 5.04305 13.3325 5.05498L13.3235 5.06131C13.3053 5.07446 13.2888 5.08956 13.2741 5.10636L13.2706 5.10952C13.2547 5.12851 13.2411 5.14945 13.2306 5.17185L13.2293 5.17405C13.2193 5.19596 13.2121 5.2186 13.2077 5.24222L13.206 5.2466C13.2043 5.25756 13.2031 5.26876 13.2026 5.27996L13.2021 5.30382L13.2031 5.32598L13.206 5.34302L13.2065 5.34862L13.209 5.35982L13.2119 5.37127C13.2149 5.38247 13.2185 5.39367 13.2227 5.40462C13.2276 5.4168 13.2333 5.42848 13.2397 5.43968L13.249 5.45502L13.2628 5.47377L13.2645 5.47694L13.2723 5.48692L14.7208 7.36563C14.7677 7.42723 14.8375 7.46765 14.9146 7.47788C14.9918 7.48835 15.0699 7.46789 15.1316 7.42139C15.1935 7.3744 15.2338 7.30525 15.2441 7.22879C15.2505 7.18058 15.2446 7.13213 15.2277 7.08757C15.2176 7.06152 15.2036 7.03669 15.1859 7.01404L14.2254 5.76644C17.2729 6.65807 19.4137 9.44351 19.4137 12.6589C19.4137 13.0388 19.3835 13.4174 19.3236 13.7914C19.2892 14.0052 19.2449 14.2175 19.1911 14.4276C19.1717 14.5026 19.183 14.582 19.2228 14.6484C19.2626 14.7147 19.3275 14.7626 19.4029 14.7819C19.4784 14.8009 19.5585 14.7897 19.6255 14.7502C19.6926 14.7108 19.741 14.6467 19.7602 14.572C19.9201 13.9467 20 13.3042 20 12.6589C20 9.29109 17.8196 6.35396 14.6839 5.30139L15.8891 5.00069C15.9645 4.98145 16.0294 4.93348 16.0692 4.86726C16.1088 4.80079 16.1203 4.72117 16.1009 4.64666C16.0751 4.54586 15.9982 4.46941 15.9029 4.44019Z" fill="#625D59"/>
<path d="M11.1335 5.2466C11.1106 5.11731 11.0025 5.01919 10.8703 5.00775C10.8448 5.00556 10.819 5.00677 10.7937 5.01116C7.06141 5.6727 4.33974 8.89762 4.33974 12.6587C4.33974 12.9443 4.35546 13.2294 4.38691 13.5126L3.5154 12.5175C3.48075 12.4775 3.43604 12.4483 3.3864 12.432C3.36306 12.4242 3.33849 12.4194 3.31367 12.4176C3.23554 12.4125 3.15863 12.4386 3.09991 12.4897C2.97853 12.5951 2.966 12.778 3.0719 12.8988L4.63704 14.6801C4.64933 14.6952 4.66333 14.7093 4.67881 14.722C4.73926 14.7709 4.81592 14.794 4.89282 14.7865L4.90609 14.7853L4.91223 14.7843L4.9368 14.7811L4.95179 14.7758C4.96776 14.7707 4.98324 14.7646 4.99823 14.757L5.01199 14.7492L5.02231 14.7427C5.03508 14.7346 5.04737 14.7256 5.05892 14.7154L5.07268 14.7037C5.08693 14.6891 5.09995 14.6733 5.11101 14.6562L5.12182 14.6375L5.12919 14.6251L6.17 12.479C6.20366 12.4094 6.20808 12.3293 6.18228 12.2565C6.17196 12.2275 6.15722 12.2005 6.13855 12.1764C6.11054 12.1403 6.07417 12.1109 6.03191 12.0909C5.96213 12.0573 5.88203 12.0527 5.80881 12.0777C5.73559 12.1036 5.67588 12.1566 5.64198 12.2258L4.98594 13.581C4.95867 13.3711 4.94049 13.16 4.93189 12.9482C4.92796 12.8518 4.92599 12.7554 4.92599 12.6587C4.92599 9.17495 7.43882 6.19643 10.8954 5.58358C10.9723 5.57043 11.0404 5.52734 11.0851 5.46428C11.1298 5.40097 11.1472 5.32281 11.1335 5.2466Z" fill="#625D59"/>
<path d="M18.2557 16.8434C18.2353 16.84 18.2145 16.8388 18.1938 16.8398L18.1683 16.8439L18.1452 16.8473L15.8046 17.3786C15.7753 17.3852 15.7481 17.3959 15.7233 17.41C15.6147 17.4716 15.5545 17.5985 15.5837 17.7258C15.6056 17.822 15.6734 17.896 15.7591 17.9306C15.8127 17.9522 15.8734 17.9583 15.9341 17.9449L17.4248 17.6063C16.0653 19.0275 14.1689 19.8463 12.1696 19.8463C9.88309 19.8463 7.73244 18.7745 6.36509 16.9559C6.31816 16.8941 6.24862 16.8532 6.17123 16.8422C6.09407 16.8315 6.01569 16.8515 5.95328 16.8982C5.89628 16.9406 5.85918 16.9995 5.8437 17.0633C5.82404 17.1439 5.83952 17.232 5.89333 17.3039C7.371 19.2688 9.69832 20.4272 12.1699 20.4272C14.2714 20.4272 16.2687 19.5892 17.7282 18.1297L17.4901 19.4136C17.4761 19.4894 17.4928 19.5678 17.5371 19.6313C17.5813 19.6949 17.6493 19.7384 17.726 19.7523C17.7675 19.7599 17.8095 19.7584 17.8496 19.7487C17.8837 19.7404 17.9164 19.726 17.9459 19.7058C18.01 19.662 18.0538 19.5945 18.0678 19.5186L18.4982 17.1836L18.4995 17.1738L18.5017 17.1531C18.5032 17.1346 18.5027 17.1161 18.5005 17.0979L18.4982 17.0813C18.4946 17.0611 18.4889 17.0416 18.4811 17.0229L18.4764 17.0114C18.4673 16.9905 18.4553 16.9703 18.441 16.9518L18.4381 16.9486C18.4238 16.9308 18.4071 16.915 18.3889 16.9011L18.3845 16.8968" fill="#625D59"/>
<path d="M18.2557 16.8434C18.2774 16.8468 18.2985 16.8527 18.3191 16.861Z" fill="#625D59"/>
<path d="M18.3191 16.861C18.3425 16.87 18.3643 16.8819 18.3845 16.8968Z" fill="#625D59"/>
<path d="M13.0728 12.5669C13.0741 12.5679 11.9372 10.1912 11.9372 10.1912L10.8018 12.5669C10.7416 12.7113 10.7082 12.8686 10.7082 13.0334C10.7082 13.7066 11.2578 14.2513 11.9372 14.2513C12.6166 14.2513 13.1664 13.7066 13.1664 13.0334C13.1664 12.8686 13.1328 12.711 13.0728 12.5669Z" fill="#625D59"/>
<path fill-rule="evenodd" clip-rule="evenodd" d="M10.3654 7.02037C10.3654 6.74499 10.5907 6.52172 10.8686 6.52172H13.0055C13.2834 6.52172 13.5087 6.74499 13.5087 7.02037V7.95583C14.0829 8.15403 14.6073 8.45765 15.0579 8.84333L15.8766 8.37487C15.9554 8.32982 16.0417 8.30815 16.1267 8.30791C16.3012 8.30766 16.4707 8.39727 16.5641 8.55748L17.6324 10.3914C17.7715 10.6298 17.6889 10.9348 17.4484 11.0727L16.6302 11.5406C16.6852 11.8277 16.7139 12.124 16.7139 12.4271C16.7139 12.7303 16.6852 13.0266 16.6302 13.3139L17.4484 13.7819C17.6889 13.9197 17.7715 14.2248 17.6324 14.4631L16.5641 16.2971C16.425 16.5354 16.1174 16.6172 15.8766 16.4797L15.0576 16.011C14.8852 16.1585 14.7021 16.2941 14.5095 16.4164C14.1987 16.6136 13.8633 16.7762 13.5087 16.8985V17.8342C13.5087 18.1095 13.2834 18.3328 13.0055 18.3328H10.8686C10.5907 18.3328 10.3654 18.1095 10.3654 17.8342V16.8985C9.79144 16.7003 9.26711 16.3966 8.81649 16.011L7.9978 16.4794C7.75701 16.6172 7.44938 16.5354 7.31031 16.2968L6.24199 14.4631C6.16287 14.3275 6.1555 14.1707 6.20784 14.0351C6.24764 13.9321 6.32209 13.8413 6.42602 13.7819L7.24397 13.3139C7.18918 13.0266 7.16043 12.7303 7.16043 12.4271C7.16043 12.1243 7.18918 11.8277 7.24397 11.5406L6.42602 11.0727C6.18548 10.9348 6.10292 10.63 6.24199 10.3914L7.31031 8.55772C7.44938 8.31911 7.75701 8.2373 7.9978 8.37511L8.81624 8.84333C9.26711 8.45765 9.79144 8.15403 10.3654 7.95583V7.02037ZM11.9372 14.9869C13.3637 14.9869 14.5203 13.8408 14.5203 12.4271C14.5203 11.0135 13.3637 9.86741 11.9372 9.86741C10.5106 9.86741 9.35409 11.0135 9.35409 12.4271C9.35409 13.8408 10.5106 14.9869 11.9372 14.9869Z" fill="#625D59"/>
</svg>
