<svg width="24" height="24" viewBox="0 0 24 24" fill="none" xmlns="http://www.w3.org/2000/svg">
<circle cx="12.0312" cy="12.0312" r="6.53125" stroke="#625D59"/>
<path d="M14.7255 9.10147C14.4065 9.07507 14.3731 8.80635 14.3731 8.47141C14.3731 8.13648 14.5787 7.6875 14.7338 7.6875C14.8889 7.6875 15.077 8.16633 15.077 8.50127C15.077 8.8362 15.0016 9.07096 14.7255 9.10147Z" fill="#625D59"/>
<path d="M14.8762 9.94531C15.1169 10.1562 15.3333 9.99347 15.5741 9.76064C15.8149 9.5278 15.9947 9.06792 15.8869 8.9564C15.7791 8.84489 15.3041 9.04257 15.0633 9.2754C14.8226 9.50824 14.7062 9.72564 14.8762 9.94531Z" fill="#625D59"/>
<path d="M14.8762 11.1838C15.1169 11.3947 15.3333 11.2319 15.5741 10.9991C15.8149 10.7663 15.9947 10.3064 15.8869 10.1949C15.7791 10.0833 15.3041 10.281 15.0633 10.5139C14.8226 10.7467 14.7062 10.9641 14.8762 11.1838Z" fill="#625D59"/>
<path d="M14.8762 12.3967C15.1169 12.6076 15.3333 12.4449 15.5741 12.212C15.8149 11.9792 15.9947 11.5193 15.8869 11.4078C15.7791 11.2963 15.3041 11.4939 15.0633 11.7268C14.8226 11.9596 14.7062 12.177 14.8762 12.3967Z" fill="#625D59"/>
<path d="M13.8672 13.4249C14.108 13.6578 14.3244 13.8205 14.5651 13.6096C14.7351 13.3899 14.6188 13.1725 14.378 12.9397C14.1372 12.7069 13.6623 12.5092 13.5545 12.6207C13.4466 12.7322 13.6265 13.1921 13.8672 13.4249Z" fill="#625D59"/>
<path d="M14.8762 13.6096C15.1169 13.8205 15.3333 13.6578 15.5741 13.4249C15.8149 13.1921 15.9947 12.7322 15.8869 12.6207C15.7791 12.5092 15.3041 12.7069 15.0633 12.9397C14.8226 13.1725 14.7062 13.3899 14.8762 13.6096Z" fill="#625D59"/>
<path d="M14.8885 13.9995C14.8885 13.9092 14.8153 13.8361 14.7251 13.8361C14.6348 13.8361 14.5616 13.9092 14.5616 13.9995V15.6848C14.5616 15.7751 14.6348 15.8482 14.7251 15.8482C14.8153 15.8482 14.8885 15.7751 14.8885 15.6848V13.9995Z" fill="#625D59"/>
<path d="M13.8672 12.212C14.108 12.4449 14.3244 12.6076 14.5651 12.3967C14.7351 12.177 14.6188 11.9596 14.378 11.7268C14.1372 11.4939 13.6623 11.2963 13.5545 11.4078C13.4466 11.5193 13.6265 11.9792 13.8672 12.212Z" fill="#625D59"/>
<path d="M13.8672 10.9991C14.108 11.2319 14.3244 11.3947 14.5651 11.1838C14.7351 10.9641 14.6188 10.7467 14.378 10.5139C14.1372 10.281 13.6623 10.0833 13.5545 10.1949C13.4466 10.3064 13.6265 10.7663 13.8672 10.9991Z" fill="#625D59"/>
<path d="M13.8672 9.76064C14.108 9.99347 14.3244 10.1562 14.5651 9.94531C14.7351 9.72564 14.6188 9.50824 14.378 9.2754C14.1372 9.04257 13.6623 8.84489 13.5545 8.9564C13.4466 9.06792 13.6265 9.5278 13.8672 9.76064Z" fill="#625D59"/>
<path fill-rule="evenodd" clip-rule="evenodd" d="M12.0481 13.2655C11.9865 13.24 11.9789 13.1511 12.0343 13.1141C12.5685 12.7582 12.9203 12.1504 12.9203 11.4604C12.9203 10.3637 12.0313 9.47461 10.9345 9.47461C9.83778 9.47461 8.9487 10.3637 8.9487 11.4604C8.9487 12.1499 9.30005 12.7573 9.83346 13.1133C9.8892 13.1505 9.88147 13.2399 9.81957 13.2655V13.2655C9.4663 13.4119 9.14531 13.6263 8.87493 13.8967C8.60455 14.1671 8.39007 14.4881 8.24374 14.8414C8.22543 14.8856 8.20822 14.9302 8.19214 14.9752C8.00617 15.4952 8.46982 15.9556 9.0221 15.9556L10.9338 15.9556H12.8456C13.3979 15.9556 13.8615 15.4952 13.6755 14.9752C13.6595 14.9302 13.6423 14.8856 13.6239 14.8414C13.4776 14.4881 13.2631 14.1671 12.9928 13.8967C12.7224 13.6263 12.4014 13.4119 12.0481 13.2655V13.2655Z" fill="#625D59"/>
</svg>
