<svg width="24" height="24" viewBox="0 0 24 24" fill="none" xmlns="http://www.w3.org/2000/svg">
<path d="M11.9503 5.54017C11.9503 5.71972 11.9697 5.86376 12.1547 5.87792C12.3149 5.86157 12.3587 5.73572 12.3587 5.55617C12.3587 5.37663 12.2495 5.11995 12.1595 5.11995C12.0695 5.11995 11.9503 5.36063 11.9503 5.54017Z" fill="#625D59"/>
<path d="M12.6471 6.23127C12.5074 6.35608 12.3818 6.44333 12.2422 6.33027C12.1436 6.21251 12.2111 6.09597 12.3507 5.97116C12.4904 5.84634 12.766 5.74038 12.8285 5.80016C12.8911 5.85993 12.7868 6.10646 12.6471 6.23127Z" fill="#625D59"/>
<path d="M12.2422 6.99415C12.3818 7.10722 12.5074 7.01997 12.6471 6.89516C12.7868 6.77034 12.8911 6.52382 12.8285 6.46404C12.766 6.40426 12.4904 6.51023 12.3507 6.63504C12.2111 6.75986 12.1436 6.87639 12.2422 6.99415Z" fill="#625D59"/>
<path d="M12.6471 7.54535C12.5074 7.67017 12.3818 7.75741 12.2422 7.64435C12.1436 7.52659 12.2111 7.41005 12.3507 7.28524C12.4904 7.16042 12.766 7.05446 12.8285 7.11424C12.8911 7.17402 12.7868 7.42054 12.6471 7.54535Z" fill="#625D59"/>
<path d="M11.6568 8.19555C11.7965 8.32036 11.922 8.40761 12.0617 8.29454C12.1603 8.17679 12.0928 8.06025 11.9531 7.93543C11.8134 7.81062 11.5379 7.70465 11.4753 7.76443C11.4128 7.82421 11.5171 8.07073 11.6568 8.19555Z" fill="#625D59"/>
<path d="M12.6471 8.19555C12.5074 8.32036 12.3818 8.40761 12.2422 8.29454C12.1436 8.17679 12.2111 8.06025 12.3507 7.93543C12.4904 7.81062 12.766 7.70465 12.8285 7.76443C12.8911 7.82421 12.7868 8.07073 12.6471 8.19555Z" fill="#625D59"/>
<path d="M12.2493 8.50354C12.2493 8.45515 12.2068 8.41593 12.1545 8.41593C12.1021 8.41593 12.0597 8.45515 12.0597 8.50354V9.40697C12.0597 9.45535 12.1021 9.49457 12.1545 9.49457C12.2068 9.49457 12.2493 9.45535 12.2493 9.40697V8.50354Z" fill="#625D59"/>
<path d="M12.0617 7.64435C11.922 7.75741 11.7965 7.67017 11.6568 7.54535C11.5171 7.42054 11.4128 7.17402 11.4753 7.11424C11.5379 7.05446 11.8134 7.16042 11.9531 7.28524C12.0928 7.41005 12.1603 7.52659 12.0617 7.64435Z" fill="#625D59"/>
<path d="M11.6568 6.89516C11.7965 7.01997 11.922 7.10722 12.0617 6.99415C12.1603 6.87639 12.0928 6.75986 11.9531 6.63504C11.8134 6.51023 11.5379 6.40426 11.4753 6.46404C11.4128 6.52382 11.5171 6.77034 11.6568 6.89516Z" fill="#625D59"/>
<path d="M12.0617 6.33027C11.922 6.44333 11.7965 6.35608 11.6568 6.23127C11.5171 6.10646 11.4128 5.85993 11.4753 5.80016C11.5379 5.74038 11.8134 5.84634 11.9531 5.97116C12.0928 6.09597 12.1603 6.21251 12.0617 6.33027Z" fill="#625D59"/>
<path fill-rule="evenodd" clip-rule="evenodd" d="M13.5972 10.041C13.442 10.023 13.2867 9.96921 13.1315 9.87963C12.8405 10.3457 12.2972 10.6147 11.7345 10.6147C11.6189 10.6147 11.5034 10.5969 11.3878 10.5792L11.3853 10.5788C11.3271 10.5788 11.1912 10.5429 11.133 10.525C10.5897 10.3995 10.1629 10.0589 9.96889 9.59277C9.83309 9.61067 9.67779 9.59277 9.5226 9.55687C8.9406 9.44937 8.47494 9.05491 8.30026 8.53506C8.21769 8.53506 8.14908 8.522 8.07066 8.50707L8.02863 8.49916C7.15551 8.30197 6.59288 7.49524 6.78693 6.68851C6.98098 5.86377 7.87346 5.34393 8.74659 5.52321C8.76595 5.54111 8.78544 5.54111 8.80481 5.54111C8.92125 5.23645 9.15403 4.94957 9.46452 4.77028C9.8331 4.5552 10.2794 4.48351 10.7062 4.5731C10.8614 4.5911 11.0167 4.6449 11.1719 4.73449C11.5211 4.19673 12.2197 3.89196 12.9181 4.03534C12.9764 4.03534 13.1122 4.07124 13.1704 4.08914C13.7137 4.21461 14.1405 4.55517 14.3345 5.02134C14.4703 5.00345 14.6256 5.02134 14.7808 5.05725C15.3628 5.16474 15.8285 5.55921 16.0032 6.07906C16.0808 6.07906 16.1778 6.07906 16.2748 6.11496C17.1479 6.29426 17.7105 7.11888 17.5165 7.92561C17.3224 8.75035 16.43 9.27019 15.5568 9.0909C15.5375 9.07301 15.518 9.07301 15.4986 9.07301C15.3822 9.37766 15.1494 9.66455 14.8389 9.84384C14.4703 10.0589 14.024 10.1306 13.5972 10.041ZM11.4241 10.2382H11.463C12.0645 10.3637 12.6465 10.0768 12.8987 9.57494L12.9957 9.35987L13.1897 9.50325C13.3644 9.61073 13.5196 9.68242 13.6943 9.71833C14.0241 9.79002 14.354 9.71833 14.645 9.55694C14.9166 9.37764 15.1107 9.12666 15.1883 8.83978V8.5529L15.4599 8.67839L15.4631 8.67937C15.5202 8.69695 15.5777 8.71462 15.6539 8.73219C16.333 8.87559 16.9927 8.48121 17.1479 7.85378C17.3031 7.22634 16.8763 6.61679 16.1972 6.4734C16.0807 6.4375 15.9643 6.4375 15.8673 6.4375H15.7122L15.6733 6.29412C15.5763 5.84598 15.2076 5.50529 14.7226 5.4157C14.5285 5.37991 14.3734 5.37991 14.2569 5.39781L14.0822 5.43371L14.0434 5.27232C13.9269 4.86005 13.5777 4.53728 13.112 4.44769L13.0732 4.4298C13.0538 4.41179 12.9569 4.3939 12.918 4.3939H12.8791C12.2776 4.26842 11.6762 4.5553 11.4434 5.07515L11.3464 5.29023L11.1524 5.14684C10.9777 5.03936 10.8225 4.96767 10.6478 4.93177C10.318 4.86008 9.98813 4.93177 9.69713 5.09316C9.4255 5.27245 9.23146 5.52343 9.15387 5.81031V6.09719L8.88223 5.9717L8.87906 5.97073C8.82188 5.95315 8.76437 5.93547 8.68819 5.91791C8.00912 5.77451 7.3494 6.16888 7.19422 6.79632C7.03902 7.42375 7.46585 8.03331 8.14492 8.17669H8.16429C8.26137 8.19459 8.37782 8.19459 8.47478 8.19459H8.62996L8.66882 8.33797C8.76577 8.78611 9.13448 9.1268 9.61953 9.21639C9.81358 9.25218 9.96876 9.25218 10.0852 9.23428L10.2599 9.19838L10.2987 9.35977C10.4152 9.77204 10.7644 10.0948 11.2301 10.1844L11.2689 10.2023C11.2883 10.2203 11.3853 10.2382 11.4241 10.2382Z" fill="#625D59"/>
<path d="M9.17764 17.212C9.11877 17.2483 9.12689 17.3354 9.19225 17.3605C9.5674 17.504 9.90828 17.7145 10.1954 17.9798C10.4825 18.2451 10.7103 18.56 10.8657 18.9067C10.9181 19.0234 10.9618 19.143 10.9969 19.2646C11.1113 19.6615 10.7407 20 10.2961 20L5.72173 20C5.27718 20 4.90655 19.6615 5.02097 19.2646C5.05603 19.143 5.09982 19.0234 5.15217 18.9067C5.30757 18.56 5.53533 18.2451 5.82246 17.9798C6.10959 17.7145 6.45047 17.504 6.82563 17.3605C6.89137 17.3353 6.89957 17.2476 6.84039 17.2111C6.27399 16.8617 5.90092 16.2658 5.90092 15.5894C5.90092 14.5132 6.84509 13.6409 8.00977 13.6409C9.17446 13.6409 10.1186 14.5132 10.1186 15.5894C10.1186 16.2664 9.74489 16.8628 9.17764 17.212Z" fill="#625D59"/>
<path d="M17.1744 17.3605C17.109 17.3354 17.1009 17.2483 17.1598 17.212C17.727 16.8628 18.1008 16.2664 18.1008 15.5894C18.1008 14.5132 17.1566 13.6409 15.9919 13.6409C14.8272 13.6409 13.883 14.5132 13.883 15.5894C13.883 16.2658 14.2561 16.8617 14.8225 17.2111C14.8817 17.2476 14.8735 17.3353 14.8078 17.3605C14.4326 17.504 14.0917 17.7145 13.8046 17.9798C13.5175 18.2451 13.2897 18.56 13.1343 18.9067C13.0819 19.0234 13.0382 19.143 13.0031 19.2646C12.8887 19.6615 13.2593 20 13.7039 20L18.2783 20C18.7228 20 19.0934 19.6615 18.979 19.2646C18.944 19.143 18.9002 19.0234 18.8478 18.9067C18.6924 18.56 18.4647 18.2451 18.1775 17.9798C17.8904 17.7145 17.5495 17.504 17.1744 17.3605Z" fill="#625D59"/>
<path fill-rule="evenodd" clip-rule="evenodd" d="M9.88934 12.4762C10.5082 12.4762 11.0099 12.0127 11.0099 11.4409C11.0099 10.8691 10.5082 10.4056 9.88934 10.4056C9.27048 10.4056 8.7688 10.8691 8.7688 11.4409C8.7688 12.0127 9.27048 12.4762 9.88934 12.4762ZM9.88934 12.1044C10.2859 12.1044 10.6074 11.8073 10.6074 11.4409C10.6074 11.0745 10.2859 10.7774 9.88934 10.7774C9.49276 10.7774 9.17127 11.0745 9.17127 11.4409C9.17127 11.8073 9.49276 12.1044 9.88934 12.1044Z" fill="#625D59"/>
<path fill-rule="evenodd" clip-rule="evenodd" d="M12.9821 11.4409C12.9821 12.0127 13.4838 12.4762 14.1027 12.4762C14.7215 12.4762 15.2232 12.0127 15.2232 11.4409C15.2232 10.8691 14.7215 10.4056 14.1027 10.4056C13.4838 10.4056 12.9821 10.8691 12.9821 11.4409ZM13.3846 11.4409C13.3846 11.8073 13.7061 12.1044 14.1027 12.1044C14.4992 12.1044 14.8207 11.8073 14.8207 11.4409C14.8207 11.0745 14.4992 10.7774 14.1027 10.7774C13.7061 10.7774 13.3846 11.0745 13.3846 11.4409Z" fill="#625D59"/>
<path fill-rule="evenodd" clip-rule="evenodd" d="M8.7682 13.6408C9.18768 13.6408 9.52773 13.3266 9.52773 12.9391C9.52773 12.5515 9.18768 12.2373 8.7682 12.2373C8.34873 12.2373 8.00867 12.5515 8.00867 12.9391C8.00867 13.3266 8.34873 13.6408 8.7682 13.6408ZM8.7682 13.269C8.9654 13.269 9.12527 13.1213 9.12527 12.9391C9.12527 12.7569 8.9654 12.6092 8.7682 12.6092C8.571 12.6092 8.41114 12.7569 8.41114 12.9391C8.41114 13.1213 8.571 13.269 8.7682 13.269Z" fill="#625D59"/>
<path fill-rule="evenodd" clip-rule="evenodd" d="M14.4639 12.9391C14.4639 13.3266 14.8039 13.6408 15.2234 13.6408C15.6429 13.6408 15.9829 13.3266 15.9829 12.9391C15.9829 12.5515 15.6429 12.2373 15.2234 12.2373C14.8039 12.2373 14.4639 12.5515 14.4639 12.9391ZM14.8663 12.9391C14.8663 13.1213 15.0262 13.269 15.2234 13.269C15.4206 13.269 15.5805 13.1213 15.5805 12.9391C15.5805 12.7569 15.4206 12.6092 15.2234 12.6092C15.0262 12.6092 14.8663 12.7569 14.8663 12.9391Z" fill="#625D59"/>
</svg>
