<svg width="24" height="24" viewBox="0 0 24 24" fill="none" xmlns="http://www.w3.org/2000/svg">
<path d="M17.4408 15.7109L17.2925 15.5096L17.4408 15.7109ZM16.6358 14.4707L16.7835 14.6725L16.7871 14.6697L16.6358 14.4707ZM10.1302 16.3225C9.99225 16.3171 9.87609 16.4247 9.87076 16.5626C9.86542 16.7006 9.97295 16.8168 10.1109 16.8221L10.1302 16.3225ZM15.536 15.2756L15.6797 15.4802L15.6836 15.4773L15.536 15.2756ZM9.50424 17.9951L9.49889 18.245L9.50424 17.9951ZM13.7621 18.1596L13.8625 18.3885L13.7621 18.1596ZM15.0477 15.6184L14.904 15.4137L14.897 15.419L15.0477 15.6184ZM8.20599 18.5162L8.33162 18.7323L8.20599 18.5162ZM17.589 15.9122C17.8382 15.7287 18.0651 15.4976 18.1641 15.2257C18.2153 15.0851 18.2324 14.9326 18.1982 14.7758C18.1641 14.6197 18.0828 14.4755 17.9619 14.345L17.595 14.6846C17.6669 14.7623 17.698 14.8288 17.7097 14.8824C17.7212 14.9352 17.7174 14.9912 17.6943 15.0546C17.6447 15.1907 17.5101 15.3494 17.2925 15.5096L17.589 15.9122ZM17.9619 14.345C17.7058 14.0683 17.3893 14.0008 17.1163 14.0281C16.8534 14.0544 16.6212 14.1678 16.4845 14.2717L16.7871 14.6697C16.8599 14.6144 17.0063 14.5416 17.166 14.5256C17.3155 14.5107 17.4656 14.5449 17.595 14.6846L17.9619 14.345ZM14.1967 16.0087C14.1598 16.1318 14.109 16.2252 13.9651 16.2989C13.7996 16.3837 13.49 16.4523 12.9005 16.4295L12.8812 16.9291C13.499 16.953 13.9125 16.8876 14.193 16.744C14.4951 16.5893 14.6134 16.3599 14.6756 16.1523L14.1967 16.0087ZM12.9005 16.4295C12.8979 16.4294 12.8954 16.4293 12.8928 16.4292C12.8903 16.4291 12.8877 16.429 12.8852 16.4289C12.8826 16.4288 12.88 16.4287 12.8775 16.4286C12.8749 16.4285 12.8724 16.4284 12.8698 16.4283C12.8673 16.4282 12.8647 16.4281 12.8622 16.428C12.8596 16.4279 12.8571 16.4278 12.8545 16.4277C12.852 16.4276 12.8494 16.4275 12.8469 16.4274C12.8443 16.4273 12.8418 16.4272 12.8392 16.4271C12.8367 16.427 12.8341 16.4269 12.8316 16.4268C12.8291 16.4267 12.8265 16.4266 12.824 16.4265C12.8214 16.4264 12.8189 16.4263 12.8163 16.4262C12.8138 16.4261 12.8113 16.4261 12.8087 16.426C12.8062 16.4259 12.8037 16.4258 12.8011 16.4257C12.7986 16.4256 12.796 16.4255 12.7935 16.4254C12.791 16.4253 12.7884 16.4252 12.7859 16.4251C12.7834 16.425 12.7808 16.4249 12.7783 16.4248C12.7758 16.4247 12.7732 16.4246 12.7707 16.4245C12.7682 16.4244 12.7657 16.4243 12.7631 16.4242C12.7606 16.4241 12.7581 16.424 12.7556 16.4239C12.753 16.4238 12.7505 16.4237 12.748 16.4236C12.7455 16.4235 12.7429 16.4234 12.7404 16.4233C12.7379 16.4232 12.7354 16.4231 12.7328 16.423C12.7303 16.4229 12.7278 16.4228 12.7253 16.4227C12.7228 16.4226 12.7203 16.4225 12.7177 16.4224C12.7152 16.4223 12.7127 16.4222 12.7102 16.4221C12.7077 16.422 12.7052 16.422 12.7027 16.4219C12.7001 16.4218 12.6976 16.4217 12.6951 16.4216C12.6926 16.4215 12.6901 16.4214 12.6876 16.4213C12.6851 16.4212 12.6826 16.4211 12.6801 16.421C12.6776 16.4209 12.6751 16.4208 12.6726 16.4207C12.67 16.4206 12.6675 16.4205 12.665 16.4204C12.6625 16.4203 12.66 16.4202 12.6575 16.4201C12.655 16.42 12.6525 16.4199 12.65 16.4198C12.6475 16.4197 12.645 16.4196 12.6425 16.4195C12.64 16.4194 12.6376 16.4193 12.6351 16.4192C12.6326 16.4191 12.6301 16.4191 12.6276 16.419C12.6251 16.4189 12.6226 16.4188 12.6201 16.4187C12.6176 16.4186 12.6151 16.4185 12.6126 16.4184C12.6101 16.4183 12.6077 16.4182 12.6052 16.4181C12.6027 16.418 12.6002 16.4179 12.5977 16.4178C12.5952 16.4177 12.5927 16.4176 12.5903 16.4175C12.5878 16.4174 12.5853 16.4173 12.5828 16.4172C12.5803 16.4171 12.5779 16.417 12.5754 16.4169C12.5729 16.4168 12.5704 16.4167 12.5679 16.4167C12.5655 16.4166 12.563 16.4165 12.5605 16.4164C12.558 16.4163 12.5556 16.4162 12.5531 16.4161C12.5506 16.416 12.5482 16.4159 12.5457 16.4158C12.5432 16.4157 12.5407 16.4156 12.5383 16.4155C12.5358 16.4154 12.5333 16.4153 12.5309 16.4152C12.5284 16.4151 12.5259 16.415 12.5235 16.4149C12.521 16.4148 12.5186 16.4147 12.5161 16.4146C12.5136 16.4146 12.5112 16.4145 12.5087 16.4144C12.5062 16.4143 12.5038 16.4142 12.5013 16.4141C12.4989 16.414 12.4964 16.4139 12.494 16.4138C12.4915 16.4137 12.489 16.4136 12.4866 16.4135C12.4841 16.4134 12.4817 16.4133 12.4792 16.4132C12.4768 16.4131 12.4743 16.413 12.4719 16.4129C12.4694 16.4128 12.467 16.4128 12.4645 16.4127C12.4621 16.4126 12.4597 16.4125 12.4572 16.4124C12.4548 16.4123 12.4523 16.4122 12.4499 16.4121C12.4474 16.412 12.445 16.4119 12.4425 16.4118C12.4401 16.4117 12.4377 16.4116 12.4352 16.4115C12.4328 16.4114 12.4304 16.4113 12.4279 16.4112C12.4255 16.4111 12.423 16.4111 12.4206 16.411C12.4182 16.4109 12.4157 16.4108 12.4133 16.4107C12.4109 16.4106 12.4085 16.4105 12.406 16.4104C12.4036 16.4103 12.4012 16.4102 12.3987 16.4101C12.3963 16.41 12.3939 16.4099 12.3915 16.4098C12.389 16.4097 12.3866 16.4096 12.3842 16.4096C12.3818 16.4095 12.3793 16.4094 12.3769 16.4093C12.3745 16.4092 12.3721 16.4091 12.3697 16.409C12.3672 16.4089 12.3648 16.4088 12.3624 16.4087C12.36 16.4086 12.3576 16.4085 12.3552 16.4084C12.3528 16.4083 12.3503 16.4082 12.3479 16.4082C12.3455 16.4081 12.3431 16.408 12.3407 16.4079C12.3383 16.4078 12.3359 16.4077 12.3335 16.4076C12.3311 16.4075 12.3287 16.4074 12.3263 16.4073C12.3238 16.4072 12.3214 16.4071 12.319 16.407C12.3166 16.4069 12.3142 16.4068 12.3118 16.4068C12.3094 16.4067 12.307 16.4066 12.3046 16.4065C12.3022 16.4064 12.2998 16.4063 12.2975 16.4062C12.2951 16.4061 12.2927 16.406 12.2903 16.4059C12.2879 16.4058 12.2855 16.4057 12.2831 16.4056C12.2807 16.4056 12.2783 16.4055 12.2759 16.4054C12.2735 16.4053 12.2711 16.4052 12.2688 16.4051C12.2664 16.405 12.264 16.4049 12.2616 16.4048C12.2592 16.4047 12.2568 16.4046 12.2545 16.4045C12.2521 16.4044 12.2497 16.4044 12.2473 16.4043C12.2449 16.4042 12.2426 16.4041 12.2402 16.404C12.2378 16.4039 12.2354 16.4038 12.2331 16.4037C12.2307 16.4036 12.2283 16.4035 12.2259 16.4034C12.2236 16.4033 12.2212 16.4033 12.2188 16.4032C12.2165 16.4031 12.2141 16.403 12.2117 16.4029C12.2094 16.4028 12.207 16.4027 12.2046 16.4026C12.2023 16.4025 12.1999 16.4024 12.1975 16.4023C12.1952 16.4022 12.1928 16.4022 12.1904 16.4021C12.1881 16.402 12.1857 16.4019 12.1834 16.4018C12.181 16.4017 12.1787 16.4016 12.1763 16.4015C12.1739 16.4014 12.1716 16.4013 12.1692 16.4012C12.1669 16.4012 12.1645 16.4011 12.1622 16.401C12.1598 16.4009 12.1575 16.4008 12.1551 16.4007C12.1528 16.4006 12.1504 16.4005 12.1481 16.4004C12.1458 16.4003 12.1434 16.4002 12.1411 16.4002C12.1387 16.4001 12.1364 16.4 12.134 16.3999C12.1317 16.3998 12.1294 16.3997 12.127 16.3996C12.1247 16.3995 12.1223 16.3994 12.12 16.3993C12.1177 16.3993 12.1153 16.3992 12.113 16.3991C12.1107 16.399 12.1083 16.3989 12.106 16.3988C12.1037 16.3987 12.1014 16.3986 12.099 16.3985C12.0967 16.3984 12.0944 16.3984 12.092 16.3983C12.0897 16.3982 12.0874 16.3981 12.0851 16.398C12.0828 16.3979 12.0804 16.3978 12.0781 16.3977C12.0758 16.3976 12.0735 16.3975 12.0712 16.3975C12.0688 16.3974 12.0665 16.3973 12.0642 16.3972C12.0619 16.3971 12.0596 16.397 12.0573 16.3969C12.055 16.3968 12.0526 16.3967 12.0503 16.3967C12.048 16.3966 12.0457 16.3965 12.0434 16.3964C12.0411 16.3963 12.0388 16.3962 12.0365 16.3961C12.0342 16.396 12.0319 16.3959 12.0296 16.3959C12.0273 16.3958 12.025 16.3957 12.0227 16.3956C12.0204 16.3955 12.0181 16.3954 12.0158 16.3953C12.0135 16.3952 12.0112 16.3951 12.0089 16.3951C12.0066 16.395 12.0043 16.3949 12.002 16.3948C11.9997 16.3947 11.9974 16.3946 11.9951 16.3945C11.9928 16.3944 11.9906 16.3943 11.9883 16.3943C11.986 16.3942 11.9837 16.3941 11.9814 16.394C11.9791 16.3939 11.9768 16.3938 11.9746 16.3937C11.9723 16.3936 11.97 16.3935 11.9677 16.3935C11.9654 16.3934 11.9632 16.3933 11.9609 16.3932C11.9586 16.3931 11.9563 16.393 11.9541 16.3929C11.9518 16.3928 11.9495 16.3928 11.9473 16.3927C11.945 16.3926 11.9427 16.3925 11.9404 16.3924C11.9382 16.3923 11.9359 16.3922 11.9336 16.3921C11.9314 16.3921 11.9291 16.392 11.9269 16.3919C11.9246 16.3918 11.9223 16.3917 11.9201 16.3916C11.9178 16.3915 11.9155 16.3914 11.9133 16.3914C11.911 16.3913 11.9088 16.3912 11.9065 16.3911C11.9043 16.391 11.902 16.3909 11.8998 16.3908C11.8975 16.3907 11.8953 16.3907 11.893 16.3906C11.8908 16.3905 11.8885 16.3904 11.8863 16.3903C11.884 16.3902 11.8818 16.3901 11.8795 16.3901C11.8773 16.39 11.875 16.3899 11.8728 16.3898C11.8706 16.3897 11.8683 16.3896 11.8661 16.3895C11.8639 16.3894 11.8616 16.3894 11.8594 16.3893C11.8571 16.3892 11.8549 16.3891 11.8527 16.389C11.8504 16.3889 11.8482 16.3888 11.846 16.3888C11.8438 16.3887 11.8415 16.3886 11.8393 16.3885C11.8371 16.3884 11.8348 16.3883 11.8326 16.3882C11.8304 16.3882 11.8282 16.3881 11.826 16.388C11.8237 16.3879 11.8215 16.3878 11.8193 16.3877C11.8171 16.3876 11.8149 16.3876 11.8126 16.3875C11.8104 16.3874 11.8082 16.3873 11.806 16.3872C11.8038 16.3871 11.8016 16.387 11.7994 16.387C11.7972 16.3869 11.7949 16.3868 11.7927 16.3867C11.7905 16.3866 11.7883 16.3865 11.7861 16.3864C11.7839 16.3864 11.7817 16.3863 11.7795 16.3862C11.7773 16.3861 11.7751 16.386 11.7729 16.3859C11.7707 16.3858 11.7685 16.3858 11.7663 16.3857C11.7641 16.3856 11.7619 16.3855 11.7597 16.3854C11.7575 16.3853 11.7553 16.3853 11.7532 16.3852C11.751 16.3851 11.7488 16.385 11.7466 16.3849C11.7444 16.3848 11.7422 16.3847 11.74 16.3847C11.7378 16.3846 11.7357 16.3845 11.7335 16.3844C11.7313 16.3843 11.7291 16.3842 11.7269 16.3842C11.7248 16.3841 11.7226 16.384 11.7204 16.3839C11.7182 16.3838 11.7161 16.3837 11.7139 16.3837C11.7117 16.3836 11.7095 16.3835 11.7074 16.3834C11.7052 16.3833 11.703 16.3832 11.7009 16.3832C11.6987 16.3831 11.6965 16.383 11.6944 16.3829C11.6922 16.3828 11.69 16.3827 11.6879 16.3826C11.6857 16.3826 11.6836 16.3825 11.6814 16.3824C11.6792 16.3823 11.6771 16.3822 11.6749 16.3821C11.6728 16.3821 11.6706 16.382 11.6685 16.3819C11.6663 16.3818 11.6642 16.3817 11.662 16.3816C11.6599 16.3816 11.6577 16.3815 11.6556 16.3814C11.6534 16.3813 11.6513 16.3812 11.6491 16.3812C11.647 16.3811 11.6449 16.381 11.6427 16.3809C11.6406 16.3808 11.6384 16.3807 11.6363 16.3807C11.6342 16.3806 11.632 16.3805 11.6299 16.3804C11.6278 16.3803 11.6256 16.3802 11.6235 16.3802C11.6214 16.3801 11.6192 16.38 11.6171 16.3799C11.615 16.3798 11.6129 16.3797 11.6107 16.3797C11.6086 16.3796 11.6065 16.3795 11.6044 16.3794C11.6022 16.3793 11.6001 16.3793 11.598 16.3792C11.5959 16.3791 11.5938 16.379 11.5916 16.3789C11.5895 16.3788 11.5874 16.3788 11.5853 16.3787C11.5832 16.3786 11.5811 16.3785 11.579 16.3784C11.5769 16.3784 11.5747 16.3783 11.5726 16.3782C11.5705 16.3781 11.5684 16.378 11.5663 16.378C11.5642 16.3779 11.5621 16.3778 11.56 16.3777C11.5579 16.3776 11.5558 16.3775 11.5537 16.3775C11.5516 16.3774 11.5495 16.3773 11.5474 16.3772C11.5453 16.3771 11.5432 16.3771 11.5412 16.377C11.5391 16.3769 11.537 16.3768 11.5349 16.3767C11.5328 16.3767 11.5307 16.3766 11.5286 16.3765C11.5265 16.3764 11.5245 16.3763 11.5224 16.3763C11.5203 16.3762 11.5182 16.3761 11.5161 16.376C11.514 16.3759 11.512 16.3759 11.5099 16.3758C11.5078 16.3757 11.5057 16.3756 11.5037 16.3755C11.5016 16.3755 11.4995 16.3754 11.4975 16.3753C11.4954 16.3752 11.4933 16.3751 11.4913 16.3751C11.4892 16.375 11.4871 16.3749 11.4851 16.3748C11.483 16.3747 11.4809 16.3747 11.4789 16.3746C11.4768 16.3745 11.4748 16.3744 11.4727 16.3743C11.4706 16.3743 11.4686 16.3742 11.4665 16.3741C11.4645 16.374 11.4624 16.3739 11.4604 16.3739C11.4583 16.3738 11.4563 16.3737 11.4542 16.3736C11.4522 16.3735 11.4501 16.3735 11.4481 16.3734C11.4461 16.3733 11.444 16.3732 11.442 16.3731C11.4399 16.3731 11.4379 16.373 11.4359 16.3729C11.4338 16.3728 11.4318 16.3728 11.4298 16.3727C11.4277 16.3726 11.4257 16.3725 11.4237 16.3724C11.4216 16.3724 11.4196 16.3723 11.4176 16.3722C11.4155 16.3721 11.4135 16.372 11.4115 16.372C11.4095 16.3719 11.4074 16.3718 11.4054 16.3717C11.4034 16.3717 11.4014 16.3716 11.3994 16.3715C11.3973 16.3714 11.3953 16.3713 11.3933 16.3713C11.3913 16.3712 11.3893 16.3711 11.3873 16.371C11.3853 16.371 11.3833 16.3709 11.3812 16.3708C11.3792 16.3707 11.3772 16.3706 11.3752 16.3706C11.3732 16.3705 11.3712 16.3704 11.3692 16.3703C11.3672 16.3703 11.3652 16.3702 11.3632 16.3701C11.3612 16.37 11.3592 16.37 11.3572 16.3699C11.3552 16.3698 11.3532 16.3697 11.3512 16.3696C11.3493 16.3696 11.3473 16.3695 11.3453 16.3694C11.3433 16.3693 11.3413 16.3693 11.3393 16.3692C11.3373 16.3691 11.3354 16.369 11.3334 16.369C11.3314 16.3689 11.3294 16.3688 11.3274 16.3687C11.3255 16.3686 11.3235 16.3686 11.3215 16.3685C11.3195 16.3684 11.3176 16.3683 11.3156 16.3683C11.3136 16.3682 11.3116 16.3681 11.3097 16.368C11.3077 16.368 11.3057 16.3679 11.3038 16.3678C11.3018 16.3677 11.2998 16.3677 11.2979 16.3676C11.2959 16.3675 11.294 16.3674 11.292 16.3674C11.29 16.3673 11.2881 16.3672 11.2861 16.3671C11.2842 16.3671 11.2822 16.367 11.2803 16.3669C11.2783 16.3668 11.2764 16.3668 11.2744 16.3667C11.2725 16.3666 11.2705 16.3665 11.2686 16.3664C11.2667 16.3664 11.2647 16.3663 11.2628 16.3662C11.2608 16.3661 11.2589 16.3661 11.257 16.366C11.255 16.3659 11.2531 16.3659 11.2511 16.3658C11.2492 16.3657 11.2473 16.3656 11.2454 16.3656C11.2434 16.3655 11.2415 16.3654 11.2396 16.3653C11.2376 16.3653 11.2357 16.3652 11.2338 16.3651C11.2319 16.365 11.2299 16.365 11.228 16.3649C11.2261 16.3648 11.2242 16.3647 11.2223 16.3647C11.2204 16.3646 11.2184 16.3645 11.2165 16.3644C11.2146 16.3644 11.2127 16.3643 11.2108 16.3642C11.2089 16.3641 11.207 16.3641 11.2051 16.364C11.2032 16.3639 11.2013 16.3638 11.1994 16.3638C11.1975 16.3637 11.1956 16.3636 11.1937 16.3636C11.1918 16.3635 11.1899 16.3634 11.188 16.3633C11.1861 16.3633 11.1842 16.3632 11.1823 16.3631C11.1804 16.363 11.1785 16.363 11.1766 16.3629C11.1747 16.3628 11.1728 16.3627 11.171 16.3627C11.1691 16.3626 11.1672 16.3625 11.1653 16.3625C11.1634 16.3624 11.1615 16.3623 11.1597 16.3622C11.1578 16.3622 11.1559 16.3621 11.154 16.362C11.1522 16.362 11.1503 16.3619 11.1484 16.3618C11.1466 16.3617 11.1447 16.3617 11.1428 16.3616C11.141 16.3615 11.1391 16.3614 11.1372 16.3614C11.1354 16.3613 11.1335 16.3612 11.1316 16.3612C11.1298 16.3611 11.1279 16.361 11.1261 16.3609C11.1242 16.3609 11.1224 16.3608 11.1205 16.3607C11.1187 16.3607 11.1168 16.3606 11.115 16.3605C11.1131 16.3604 11.1113 16.3604 11.1094 16.3603C11.1076 16.3602 11.1057 16.3602 11.1039 16.3601C11.102 16.36 11.1002 16.3599 11.0984 16.3599C11.0965 16.3598 11.0947 16.3597 11.0929 16.3597C11.091 16.3596 11.0892 16.3595 11.0874 16.3594C11.0855 16.3594 11.0837 16.3593 11.0819 16.3592C11.08 16.3592 11.0782 16.3591 11.0764 16.359C11.0746 16.359 11.0727 16.3589 11.0709 16.3588C11.0691 16.3587 11.0673 16.3587 11.0655 16.3586C11.0637 16.3585 11.0618 16.3585 11.06 16.3584C11.0582 16.3583 11.0564 16.3583 11.0546 16.3582C11.0528 16.3581 11.051 16.358 11.0492 16.358C11.0474 16.3579 11.0456 16.3578 11.0438 16.3578C11.042 16.3577 11.0402 16.3576 11.0384 16.3576C11.0366 16.3575 11.0348 16.3574 11.033 16.3573C11.0312 16.3573 11.0294 16.3572 11.0276 16.3571C11.0258 16.3571 11.024 16.357 11.0223 16.3569C11.0205 16.3569 11.0187 16.3568 11.0169 16.3567C11.0151 16.3567 11.0133 16.3566 11.0116 16.3565C11.0098 16.3564 11.008 16.3564 11.0062 16.3563C11.0045 16.3562 11.0027 16.3562 11.0009 16.3561C10.9991 16.356 10.9974 16.356 10.9956 16.3559C10.9938 16.3558 10.9921 16.3558 10.9903 16.3557C10.9885 16.3556 10.9868 16.3556 10.985 16.3555C10.9833 16.3554 10.9815 16.3554 10.9797 16.3553C10.978 16.3552 10.9762 16.3552 10.9745 16.3551C10.9727 16.355 10.971 16.355 10.9692 16.3549C10.9675 16.3548 10.9657 16.3547 10.964 16.3547C10.9622 16.3546 10.9605 16.3545 10.9588 16.3545C10.957 16.3544 10.9553 16.3543 10.9535 16.3543C10.9518 16.3542 10.9501 16.3541 10.9483 16.3541C10.9466 16.354 10.9449 16.3539 10.9432 16.3539C10.9414 16.3538 10.9397 16.3537 10.938 16.3537C10.9362 16.3536 10.9345 16.3535 10.9328 16.3535C10.9311 16.3534 10.9294 16.3533 10.9276 16.3533C10.9259 16.3532 10.9242 16.3531 10.9225 16.3531C10.9208 16.353 10.9191 16.3529 10.9174 16.3529C10.9156 16.3528 10.9139 16.3527 10.9122 16.3527C10.9105 16.3526 10.9088 16.3525 10.9071 16.3525C10.9054 16.3524 10.9037 16.3524 10.902 16.3523C10.9003 16.3522 10.8986 16.3522 10.8969 16.3521C10.8952 16.352 10.8935 16.352 10.8919 16.3519C10.8902 16.3518 10.8885 16.3518 10.8868 16.3517C10.8851 16.3516 10.8834 16.3516 10.8817 16.3515C10.8801 16.3514 10.8784 16.3514 10.8767 16.3513C10.875 16.3512 10.8733 16.3512 10.8717 16.3511C10.87 16.351 10.8683 16.351 10.8667 16.3509C10.865 16.3509 10.8633 16.3508 10.8616 16.3507C10.86 16.3507 10.8583 16.3506 10.8567 16.3505C10.855 16.3505 10.8533 16.3504 10.8517 16.3503C10.85 16.3503 10.8484 16.3502 10.8467 16.3501C10.845 16.3501 10.8434 16.35 10.8417 16.35C10.8401 16.3499 10.8384 16.3498 10.8368 16.3498C10.8351 16.3497 10.8335 16.3496 10.8319 16.3496C10.8302 16.3495 10.8286 16.3494 10.8269 16.3494C10.8253 16.3493 10.8237 16.3493 10.822 16.3492C10.8204 16.3491 10.8188 16.3491 10.8171 16.349C10.8155 16.3489 10.8139 16.3489 10.8122 16.3488C10.8106 16.3488 10.809 16.3487 10.8074 16.3486C10.8058 16.3486 10.8041 16.3485 10.8025 16.3484C10.8009 16.3484 10.7993 16.3483 10.7977 16.3483C10.796 16.3482 10.7944 16.3481 10.7928 16.3481C10.7912 16.348 10.7896 16.3479 10.788 16.3479C10.7864 16.3478 10.7848 16.3478 10.7832 16.3477C10.7816 16.3476 10.78 16.3476 10.7784 16.3475C10.7768 16.3474 10.7752 16.3474 10.7736 16.3473C10.772 16.3473 10.7704 16.3472 10.7688 16.3471C10.7672 16.3471 10.7656 16.347 10.7641 16.347C10.7625 16.3469 10.7609 16.3468 10.7593 16.3468C10.7577 16.3467 10.7561 16.3467 10.7546 16.3466C10.753 16.3465 10.7514 16.3465 10.7498 16.3464C10.7483 16.3463 10.7467 16.3463 10.7451 16.3462C10.7436 16.3462 10.742 16.3461 10.7404 16.346C10.7389 16.346 10.7373 16.3459 10.7357 16.3459C10.7342 16.3458 10.7326 16.3457 10.7311 16.3457C10.7295 16.3456 10.7279 16.3456 10.7264 16.3455C10.7248 16.3454 10.7233 16.3454 10.7217 16.3453C10.7202 16.3453 10.7186 16.3452 10.7171 16.3451C10.7156 16.3451 10.714 16.345 10.7125 16.345C10.7109 16.3449 10.7094 16.3448 10.7079 16.3448C10.7063 16.3447 10.7048 16.3447 10.7033 16.3446C10.7017 16.3445 10.7002 16.3445 10.6987 16.3444C10.6971 16.3444 10.6956 16.3443 10.6941 16.3443C10.6926 16.3442 10.691 16.3441 10.6895 16.3441C10.688 16.344 10.6865 16.344 10.685 16.3439C10.6835 16.3438 10.6819 16.3438 10.6804 16.3437C10.6789 16.3437 10.6774 16.3436 10.6759 16.3436C10.6744 16.3435 10.6729 16.3434 10.6714 16.3434C10.6699 16.3433 10.6684 16.3433 10.6669 16.3432C10.6654 16.3431 10.6639 16.3431 10.6624 16.343C10.6609 16.343 10.6594 16.3429 10.6579 16.3429C10.6564 16.3428 10.655 16.3427 10.6535 16.3427C10.652 16.3426 10.6505 16.3426 10.649 16.3425C10.6475 16.3425 10.6461 16.3424 10.6446 16.3423C10.6431 16.3423 10.6416 16.3422 10.6402 16.3422C10.6387 16.3421 10.6372 16.3421 10.6358 16.342C10.6343 16.3419 10.6328 16.3419 10.6314 16.3418C10.6299 16.3418 10.6284 16.3417 10.627 16.3417C10.6255 16.3416 10.6241 16.3415 10.6226 16.3415C10.6211 16.3414 10.6197 16.3414 10.6182 16.3413C10.6168 16.3413 10.6153 16.3412 10.6139 16.3412C10.6124 16.3411 10.611 16.341 10.6096 16.341C10.6081 16.3409 10.6067 16.3409 10.6052 16.3408C10.6038 16.3408 10.6024 16.3407 10.6009 16.3407C10.5995 16.3406 10.5981 16.3405 10.5966 16.3405C10.5952 16.3404 10.5938 16.3404 10.5924 16.3403C10.5909 16.3403 10.5895 16.3402 10.5881 16.3402C10.5867 16.3401 10.5853 16.34 10.5838 16.34C10.5824 16.3399 10.581 16.3399 10.5796 16.3398C10.5782 16.3398 10.5768 16.3397 10.5754 16.3397C10.574 16.3396 10.5726 16.3396 10.5712 16.3395C10.5698 16.3394 10.5684 16.3394 10.567 16.3393C10.5656 16.3393 10.5642 16.3392 10.5628 16.3392C10.5614 16.3391 10.56 16.3391 10.5586 16.339C10.5572 16.339 10.5558 16.3389 10.5544 16.3389C10.553 16.3388 10.5517 16.3388 10.5503 16.3387C10.5489 16.3386 10.5475 16.3386 10.5461 16.3385C10.5448 16.3385 10.5434 16.3384 10.542 16.3384C10.5407 16.3383 10.5393 16.3383 10.5379 16.3382C10.5365 16.3382 10.5352 16.3381 10.5338 16.3381C10.5325 16.338 10.5311 16.338 10.5297 16.3379C10.5284 16.3379 10.527 16.3378 10.5257 16.3377C10.5243 16.3377 10.523 16.3376 10.5216 16.3376C10.5203 16.3375 10.5189 16.3375 10.5176 16.3374C10.5162 16.3374 10.5149 16.3373 10.5135 16.3373C10.5122 16.3372 10.5109 16.3372 10.5095 16.3371C10.5082 16.3371 10.5069 16.337 10.5055 16.337C10.5042 16.3369 10.5029 16.3369 10.5015 16.3368C10.5002 16.3368 10.4989 16.3367 10.4976 16.3367C10.4963 16.3366 10.4949 16.3366 10.4936 16.3365C10.4923 16.3365 10.491 16.3364 10.4897 16.3364C10.4884 16.3363 10.487 16.3363 10.4857 16.3362C10.4844 16.3362 10.4831 16.3361 10.4818 16.3361C10.4805 16.336 10.4792 16.336 10.4779 16.3359C10.4766 16.3359 10.4753 16.3358 10.474 16.3358C10.4727 16.3357 10.4714 16.3357 10.4701 16.3356C10.4689 16.3356 10.4676 16.3355 10.4663 16.3355C10.465 16.3354 10.4637 16.3354 10.4624 16.3353C10.4612 16.3353 10.4599 16.3352 10.4586 16.3352C10.4573 16.3351 10.456 16.3351 10.4548 16.335C10.4535 16.335 10.4522 16.3349 10.451 16.3349C10.4497 16.3348 10.4484 16.3348 10.4472 16.3347C10.4459 16.3347 10.4446 16.3346 10.4434 16.3346C10.4421 16.3345 10.4409 16.3345 10.4396 16.3344C10.4384 16.3344 10.4371 16.3343 10.4359 16.3343C10.4346 16.3342 10.4334 16.3342 10.4321 16.3341C10.4309 16.3341 10.4296 16.334 10.4284 16.334C10.4272 16.3339 10.4259 16.3339 10.4247 16.3338C10.4235 16.3338 10.4222 16.3337 10.421 16.3337C10.4198 16.3337 10.4185 16.3336 10.4173 16.3336C10.4161 16.3335 10.4149 16.3335 10.4137 16.3334C10.4124 16.3334 10.4112 16.3333 10.41 16.3333C10.4088 16.3332 10.4076 16.3332 10.4064 16.3331C10.4051 16.3331 10.4039 16.333 10.4027 16.333C10.4015 16.3329 10.4003 16.3329 10.3991 16.3329C10.3979 16.3328 10.3967 16.3328 10.3955 16.3327C10.3943 16.3327 10.3931 16.3326 10.3919 16.3326C10.3907 16.3325 10.3896 16.3325 10.3884 16.3324C10.3872 16.3324 10.386 16.3323 10.3848 16.3323C10.3836 16.3323 10.3824 16.3322 10.3813 16.3322C10.3801 16.3321 10.3789 16.3321 10.3777 16.332C10.3766 16.332 10.3754 16.3319 10.3742 16.3319C10.3731 16.3319 10.3719 16.3318 10.3707 16.3318C10.3696 16.3317 10.3684 16.3317 10.3672 16.3316C10.3661 16.3316 10.3649 16.3315 10.3638 16.3315C10.3626 16.3314 10.3615 16.3314 10.3603 16.3314C10.3592 16.3313 10.358 16.3313 10.3569 16.3312C10.3557 16.3312 10.3546 16.3311 10.3535 16.3311C10.3523 16.331 10.3512 16.331 10.35 16.331C10.3489 16.3309 10.3478 16.3309 10.3467 16.3308C10.3455 16.3308 10.3444 16.3307 10.3433 16.3307C10.3421 16.3307 10.341 16.3306 10.3399 16.3306C10.3388 16.3305 10.3377 16.3305 10.3365 16.3304C10.3354 16.3304 10.3343 16.3304 10.3332 16.3303C10.3321 16.3303 10.331 16.3302 10.3299 16.3302C10.3288 16.3301 10.3277 16.3301 10.3266 16.3301C10.3255 16.33 10.3244 16.33 10.3233 16.3299C10.3222 16.3299 10.3211 16.3298 10.32 16.3298C10.3189 16.3298 10.3178 16.3297 10.3167 16.3297C10.3156 16.3296 10.3146 16.3296 10.3135 16.3295C10.3124 16.3295 10.3113 16.3295 10.3102 16.3294C10.3092 16.3294 10.3081 16.3293 10.307 16.3293C10.3059 16.3293 10.3049 16.3292 10.3038 16.3292C10.3027 16.3291 10.3017 16.3291 10.3006 16.3291C10.2996 16.329 10.2985 16.329 10.2974 16.3289C10.2964 16.3289 10.2953 16.3288 10.2943 16.3288C10.2932 16.3288 10.2922 16.3287 10.2911 16.3287C10.2901 16.3286 10.289 16.3286 10.288 16.3286C10.287 16.3285 10.2859 16.3285 10.2849 16.3284C10.2838 16.3284 10.2828 16.3284 10.2818 16.3283C10.2807 16.3283 10.2797 16.3282 10.2787 16.3282C10.2777 16.3282 10.2766 16.3281 10.2756 16.3281C10.2746 16.328 10.2736 16.328 10.2726 16.328C10.2715 16.3279 10.2705 16.3279 10.2695 16.3278C10.2685 16.3278 10.2675 16.3278 10.2665 16.3277C10.2655 16.3277 10.2645 16.3277 10.2635 16.3276C10.2625 16.3276 10.2615 16.3275 10.2605 16.3275C10.2595 16.3275 10.2585 16.3274 10.2575 16.3274C10.2565 16.3273 10.2555 16.3273 10.2545 16.3273C10.2535 16.3272 10.2526 16.3272 10.2516 16.3272C10.2506 16.3271 10.2496 16.3271 10.2486 16.327C10.2477 16.327 10.2467 16.327 10.2457 16.3269C10.2447 16.3269 10.2438 16.3269 10.2428 16.3268C10.2418 16.3268 10.2409 16.3267 10.2399 16.3267C10.2389 16.3267 10.238 16.3266 10.237 16.3266C10.2361 16.3266 10.2351 16.3265 10.2342 16.3265C10.2332 16.3264 10.2323 16.3264 10.2313 16.3264C10.2304 16.3263 10.2294 16.3263 10.2285 16.3263C10.2276 16.3262 10.2266 16.3262 10.2257 16.3262C10.2247 16.3261 10.2238 16.3261 10.2229 16.326C10.2219 16.326 10.221 16.326 10.2201 16.3259C10.2192 16.3259 10.2182 16.3259 10.2173 16.3258C10.2164 16.3258 10.2155 16.3258 10.2146 16.3257C10.2137 16.3257 10.2127 16.3257 10.2118 16.3256C10.2109 16.3256 10.21 16.3256 10.2091 16.3255C10.2082 16.3255 10.2073 16.3254 10.2064 16.3254C10.2055 16.3254 10.2046 16.3253 10.2037 16.3253C10.2028 16.3253 10.2019 16.3252 10.201 16.3252C10.2001 16.3252 10.1992 16.3251 10.1984 16.3251C10.1975 16.3251 10.1966 16.325 10.1957 16.325C10.1948 16.325 10.194 16.3249 10.1931 16.3249C10.1922 16.3249 10.1913 16.3248 10.1905 16.3248C10.1896 16.3248 10.1887 16.3247 10.1879 16.3247C10.187 16.3247 10.1861 16.3246 10.1853 16.3246C10.1844 16.3246 10.1836 16.3245 10.1827 16.3245C10.1819 16.3245 10.181 16.3244 10.1802 16.3244C10.1793 16.3244 10.1785 16.3243 10.1776 16.3243C10.1768 16.3243 10.1759 16.3242 10.1751 16.3242C10.1743 16.3242 10.1734 16.3241 10.1726 16.3241C10.1718 16.3241 10.1709 16.324 10.1701 16.324C10.1693 16.324 10.1685 16.3239 10.1676 16.3239C10.1668 16.3239 10.166 16.3239 10.1652 16.3238C10.1644 16.3238 10.1636 16.3238 10.1627 16.3237C10.1619 16.3237 10.1611 16.3237 10.1603 16.3236C10.1595 16.3236 10.1587 16.3236 10.1579 16.3235C10.1571 16.3235 10.1563 16.3235 10.1555 16.3234C10.1547 16.3234 10.1539 16.3234 10.1531 16.3234C10.1523 16.3233 10.1516 16.3233 10.1508 16.3233C10.15 16.3232 10.1492 16.3232 10.1484 16.3232C10.1476 16.3231 10.1469 16.3231 10.1461 16.3231C10.1453 16.3231 10.1445 16.323 10.1438 16.323C10.143 16.323 10.1422 16.3229 10.1415 16.3229C10.1407 16.3229 10.14 16.3228 10.1392 16.3228C10.1384 16.3228 10.1377 16.3228 10.1369 16.3227C10.1362 16.3227 10.1354 16.3227 10.1347 16.3226C10.1339 16.3226 10.1332 16.3226 10.1324 16.3226C10.1317 16.3225 10.131 16.3225 10.1302 16.3225L10.1109 16.8221C10.1117 16.8221 10.1124 16.8222 10.1131 16.8222C10.1139 16.8222 10.1146 16.8222 10.1154 16.8223C10.1161 16.8223 10.1169 16.8223 10.1176 16.8224C10.1184 16.8224 10.1191 16.8224 10.1199 16.8224C10.1206 16.8225 10.1214 16.8225 10.1222 16.8225C10.1229 16.8226 10.1237 16.8226 10.1245 16.8226C10.1252 16.8226 10.126 16.8227 10.1268 16.8227C10.1276 16.8227 10.1283 16.8228 10.1291 16.8228C10.1299 16.8228 10.1307 16.8229 10.1315 16.8229C10.1322 16.8229 10.133 16.8229 10.1338 16.823C10.1346 16.823 10.1354 16.823 10.1362 16.8231C10.137 16.8231 10.1378 16.8231 10.1386 16.8232C10.1394 16.8232 10.1402 16.8232 10.141 16.8233C10.1418 16.8233 10.1426 16.8233 10.1434 16.8234C10.1442 16.8234 10.1451 16.8234 10.1459 16.8234C10.1467 16.8235 10.1475 16.8235 10.1483 16.8235C10.1492 16.8236 10.15 16.8236 10.1508 16.8236C10.1516 16.8237 10.1525 16.8237 10.1533 16.8237C10.1541 16.8238 10.155 16.8238 10.1558 16.8238C10.1566 16.8239 10.1575 16.8239 10.1583 16.8239C10.1592 16.824 10.16 16.824 10.1609 16.824C10.1617 16.8241 10.1626 16.8241 10.1634 16.8241C10.1643 16.8242 10.1651 16.8242 10.166 16.8242C10.1668 16.8243 10.1677 16.8243 10.1686 16.8243C10.1694 16.8244 10.1703 16.8244 10.1712 16.8244C10.172 16.8245 10.1729 16.8245 10.1738 16.8245C10.1747 16.8246 10.1755 16.8246 10.1764 16.8246C10.1773 16.8247 10.1782 16.8247 10.1791 16.8247C10.1799 16.8248 10.1808 16.8248 10.1817 16.8248C10.1826 16.8249 10.1835 16.8249 10.1844 16.8249C10.1853 16.825 10.1862 16.825 10.1871 16.825C10.188 16.8251 10.1889 16.8251 10.1898 16.8251C10.1907 16.8252 10.1916 16.8252 10.1925 16.8252C10.1934 16.8253 10.1943 16.8253 10.1953 16.8254C10.1962 16.8254 10.1971 16.8254 10.198 16.8255C10.1989 16.8255 10.1999 16.8255 10.2008 16.8256C10.2017 16.8256 10.2026 16.8256 10.2036 16.8257C10.2045 16.8257 10.2054 16.8257 10.2064 16.8258C10.2073 16.8258 10.2082 16.8259 10.2092 16.8259C10.2101 16.8259 10.2111 16.826 10.212 16.826C10.213 16.826 10.2139 16.8261 10.2149 16.8261C10.2158 16.8261 10.2168 16.8262 10.2177 16.8262C10.2187 16.8263 10.2196 16.8263 10.2206 16.8263C10.2216 16.8264 10.2225 16.8264 10.2235 16.8264C10.2245 16.8265 10.2254 16.8265 10.2264 16.8266C10.2274 16.8266 10.2284 16.8266 10.2293 16.8267C10.2303 16.8267 10.2313 16.8267 10.2323 16.8268C10.2333 16.8268 10.2342 16.8269 10.2352 16.8269C10.2362 16.8269 10.2372 16.827 10.2382 16.827C10.2392 16.8271 10.2402 16.8271 10.2412 16.8271C10.2422 16.8272 10.2432 16.8272 10.2442 16.8272C10.2452 16.8273 10.2462 16.8273 10.2472 16.8274C10.2482 16.8274 10.2492 16.8274 10.2502 16.8275C10.2512 16.8275 10.2522 16.8276 10.2533 16.8276C10.2543 16.8276 10.2553 16.8277 10.2563 16.8277C10.2573 16.8278 10.2584 16.8278 10.2594 16.8278C10.2604 16.8279 10.2614 16.8279 10.2625 16.828C10.2635 16.828 10.2645 16.828 10.2656 16.8281C10.2666 16.8281 10.2677 16.8282 10.2687 16.8282C10.2697 16.8282 10.2708 16.8283 10.2718 16.8283C10.2729 16.8284 10.2739 16.8284 10.275 16.8284C10.276 16.8285 10.2771 16.8285 10.2781 16.8286C10.2792 16.8286 10.2803 16.8286 10.2813 16.8287C10.2824 16.8287 10.2834 16.8288 10.2845 16.8288C10.2856 16.8288 10.2866 16.8289 10.2877 16.8289C10.2888 16.829 10.2899 16.829 10.2909 16.8291C10.292 16.8291 10.2931 16.8291 10.2942 16.8292C10.2953 16.8292 10.2963 16.8293 10.2974 16.8293C10.2985 16.8293 10.2996 16.8294 10.3007 16.8294C10.3018 16.8295 10.3029 16.8295 10.304 16.8296C10.3051 16.8296 10.3062 16.8296 10.3073 16.8297C10.3084 16.8297 10.3095 16.8298 10.3106 16.8298C10.3117 16.8299 10.3128 16.8299 10.3139 16.8299C10.315 16.83 10.3161 16.83 10.3172 16.8301C10.3184 16.8301 10.3195 16.8302 10.3206 16.8302C10.3217 16.8302 10.3228 16.8303 10.324 16.8303C10.3251 16.8304 10.3262 16.8304 10.3273 16.8305C10.3285 16.8305 10.3296 16.8305 10.3307 16.8306C10.3319 16.8306 10.333 16.8307 10.3342 16.8307C10.3353 16.8308 10.3364 16.8308 10.3376 16.8309C10.3387 16.8309 10.3399 16.8309 10.341 16.831C10.3422 16.831 10.3433 16.8311 10.3445 16.8311C10.3456 16.8312 10.3468 16.8312 10.3479 16.8313C10.3491 16.8313 10.3503 16.8313 10.3514 16.8314C10.3526 16.8314 10.3538 16.8315 10.3549 16.8315C10.3561 16.8316 10.3573 16.8316 10.3584 16.8317C10.3596 16.8317 10.3608 16.8317 10.362 16.8318C10.3631 16.8318 10.3643 16.8319 10.3655 16.8319C10.3667 16.832 10.3679 16.832 10.3691 16.8321C10.3703 16.8321 10.3714 16.8322 10.3726 16.8322C10.3738 16.8323 10.375 16.8323 10.3762 16.8323C10.3774 16.8324 10.3786 16.8324 10.3798 16.8325C10.381 16.8325 10.3822 16.8326 10.3834 16.8326C10.3846 16.8327 10.3858 16.8327 10.3871 16.8328C10.3883 16.8328 10.3895 16.8329 10.3907 16.8329C10.3919 16.833 10.3931 16.833 10.3943 16.833C10.3956 16.8331 10.3968 16.8331 10.398 16.8332C10.3992 16.8332 10.4005 16.8333 10.4017 16.8333C10.4029 16.8334 10.4042 16.8334 10.4054 16.8335C10.4066 16.8335 10.4079 16.8336 10.4091 16.8336C10.4103 16.8337 10.4116 16.8337 10.4128 16.8338C10.4141 16.8338 10.4153 16.8339 10.4166 16.8339C10.4178 16.834 10.4191 16.834 10.4203 16.834C10.4216 16.8341 10.4228 16.8341 10.4241 16.8342C10.4253 16.8342 10.4266 16.8343 10.4279 16.8343C10.4291 16.8344 10.4304 16.8344 10.4317 16.8345C10.4329 16.8345 10.4342 16.8346 10.4355 16.8346C10.4367 16.8347 10.438 16.8347 10.4393 16.8348C10.4406 16.8348 10.4418 16.8349 10.4431 16.8349C10.4444 16.835 10.4457 16.835 10.447 16.8351C10.4483 16.8351 10.4496 16.8352 10.4508 16.8352C10.4521 16.8353 10.4534 16.8353 10.4547 16.8354C10.456 16.8354 10.4573 16.8355 10.4586 16.8355C10.4599 16.8356 10.4612 16.8356 10.4625 16.8357C10.4638 16.8357 10.4651 16.8358 10.4664 16.8358C10.4677 16.8359 10.4691 16.8359 10.4704 16.836C10.4717 16.836 10.473 16.8361 10.4743 16.8361C10.4756 16.8362 10.4769 16.8362 10.4783 16.8363C10.4796 16.8363 10.4809 16.8364 10.4822 16.8364C10.4836 16.8365 10.4849 16.8365 10.4862 16.8366C10.4876 16.8366 10.4889 16.8367 10.4902 16.8367C10.4916 16.8368 10.4929 16.8369 10.4942 16.8369C10.4956 16.837 10.4969 16.837 10.4983 16.8371C10.4996 16.8371 10.501 16.8372 10.5023 16.8372C10.5037 16.8373 10.505 16.8373 10.5064 16.8374C10.5077 16.8374 10.5091 16.8375 10.5104 16.8375C10.5118 16.8376 10.5132 16.8376 10.5145 16.8377C10.5159 16.8377 10.5172 16.8378 10.5186 16.8378C10.52 16.8379 10.5213 16.838 10.5227 16.838C10.5241 16.8381 10.5255 16.8381 10.5268 16.8382C10.5282 16.8382 10.5296 16.8383 10.531 16.8383C10.5324 16.8384 10.5337 16.8384 10.5351 16.8385C10.5365 16.8385 10.5379 16.8386 10.5393 16.8386C10.5407 16.8387 10.5421 16.8388 10.5435 16.8388C10.5449 16.8389 10.5463 16.8389 10.5476 16.839C10.549 16.839 10.5504 16.8391 10.5519 16.8391C10.5533 16.8392 10.5547 16.8392 10.5561 16.8393C10.5575 16.8393 10.5589 16.8394 10.5603 16.8395C10.5617 16.8395 10.5631 16.8396 10.5645 16.8396C10.566 16.8397 10.5674 16.8397 10.5688 16.8398C10.5702 16.8398 10.5716 16.8399 10.5731 16.8399C10.5745 16.84 10.5759 16.8401 10.5773 16.8401C10.5788 16.8402 10.5802 16.8402 10.5816 16.8403C10.5831 16.8403 10.5845 16.8404 10.5859 16.8404C10.5874 16.8405 10.5888 16.8406 10.5903 16.8406C10.5917 16.8407 10.5931 16.8407 10.5946 16.8408C10.596 16.8408 10.5975 16.8409 10.5989 16.8409C10.6004 16.841 10.6018 16.8411 10.6033 16.8411C10.6047 16.8412 10.6062 16.8412 10.6077 16.8413C10.6091 16.8413 10.6106 16.8414 10.6121 16.8415C10.6135 16.8415 10.615 16.8416 10.6164 16.8416C10.6179 16.8417 10.6194 16.8417 10.6209 16.8418C10.6223 16.8419 10.6238 16.8419 10.6253 16.842C10.6268 16.842 10.6282 16.8421 10.6297 16.8421C10.6312 16.8422 10.6327 16.8423 10.6342 16.8423C10.6357 16.8424 10.6371 16.8424 10.6386 16.8425C10.6401 16.8425 10.6416 16.8426 10.6431 16.8427C10.6446 16.8427 10.6461 16.8428 10.6476 16.8428C10.6491 16.8429 10.6506 16.8429 10.6521 16.843C10.6536 16.8431 10.6551 16.8431 10.6566 16.8432C10.6581 16.8432 10.6596 16.8433 10.6611 16.8434C10.6626 16.8434 10.6642 16.8435 10.6657 16.8435C10.6672 16.8436 10.6687 16.8436 10.6702 16.8437C10.6717 16.8438 10.6733 16.8438 10.6748 16.8439C10.6763 16.8439 10.6778 16.844 10.6794 16.8441C10.6809 16.8441 10.6824 16.8442 10.684 16.8442C10.6855 16.8443 10.687 16.8444 10.6886 16.8444C10.6901 16.8445 10.6916 16.8445 10.6932 16.8446C10.6947 16.8447 10.6963 16.8447 10.6978 16.8448C10.6993 16.8448 10.7009 16.8449 10.7024 16.8449C10.704 16.845 10.7055 16.8451 10.7071 16.8451C10.7086 16.8452 10.7102 16.8452 10.7118 16.8453C10.7133 16.8454 10.7149 16.8454 10.7164 16.8455C10.718 16.8455 10.7196 16.8456 10.7211 16.8457C10.7227 16.8457 10.7243 16.8458 10.7258 16.8459C10.7274 16.8459 10.729 16.846 10.7305 16.846C10.7321 16.8461 10.7337 16.8462 10.7353 16.8462C10.7368 16.8463 10.7384 16.8463 10.74 16.8464C10.7416 16.8465 10.7432 16.8465 10.7448 16.8466C10.7463 16.8466 10.7479 16.8467 10.7495 16.8468C10.7511 16.8468 10.7527 16.8469 10.7543 16.847C10.7559 16.847 10.7575 16.8471 10.7591 16.8471C10.7607 16.8472 10.7623 16.8473 10.7639 16.8473C10.7655 16.8474 10.7671 16.8474 10.7687 16.8475C10.7703 16.8476 10.7719 16.8476 10.7735 16.8477C10.7751 16.8478 10.7767 16.8478 10.7784 16.8479C10.78 16.8479 10.7816 16.848 10.7832 16.8481C10.7848 16.8481 10.7864 16.8482 10.7881 16.8483C10.7897 16.8483 10.7913 16.8484 10.7929 16.8484C10.7946 16.8485 10.7962 16.8486 10.7978 16.8486C10.7995 16.8487 10.8011 16.8488 10.8027 16.8488C10.8044 16.8489 10.806 16.8489 10.8076 16.849C10.8093 16.8491 10.8109 16.8491 10.8126 16.8492C10.8142 16.8493 10.8158 16.8493 10.8175 16.8494C10.8191 16.8495 10.8208 16.8495 10.8224 16.8496C10.8241 16.8496 10.8257 16.8497 10.8274 16.8498C10.8291 16.8498 10.8307 16.8499 10.8324 16.85C10.834 16.85 10.8357 16.8501 10.8373 16.8502C10.839 16.8502 10.8407 16.8503 10.8423 16.8504C10.844 16.8504 10.8457 16.8505 10.8473 16.8505C10.849 16.8506 10.8507 16.8507 10.8524 16.8507C10.854 16.8508 10.8557 16.8509 10.8574 16.8509C10.8591 16.851 10.8608 16.8511 10.8624 16.8511C10.8641 16.8512 10.8658 16.8513 10.8675 16.8513C10.8692 16.8514 10.8709 16.8515 10.8726 16.8515C10.8742 16.8516 10.8759 16.8517 10.8776 16.8517C10.8793 16.8518 10.881 16.8518 10.8827 16.8519C10.8844 16.852 10.8861 16.852 10.8878 16.8521C10.8895 16.8522 10.8912 16.8522 10.8929 16.8523C10.8946 16.8524 10.8963 16.8524 10.8981 16.8525C10.8998 16.8526 10.9015 16.8526 10.9032 16.8527C10.9049 16.8528 10.9066 16.8528 10.9083 16.8529C10.9101 16.853 10.9118 16.853 10.9135 16.8531C10.9152 16.8532 10.9169 16.8532 10.9187 16.8533C10.9204 16.8534 10.9221 16.8534 10.9238 16.8535C10.9256 16.8536 10.9273 16.8536 10.929 16.8537C10.9308 16.8538 10.9325 16.8538 10.9342 16.8539C10.936 16.854 10.9377 16.854 10.9395 16.8541C10.9412 16.8542 10.9429 16.8542 10.9447 16.8543C10.9464 16.8544 10.9482 16.8544 10.9499 16.8545C10.9517 16.8546 10.9534 16.8546 10.9552 16.8547C10.9569 16.8548 10.9587 16.8548 10.9604 16.8549C10.9622 16.855 10.964 16.8551 10.9657 16.8551C10.9675 16.8552 10.9692 16.8553 10.971 16.8553C10.9728 16.8554 10.9745 16.8555 10.9763 16.8555C10.9781 16.8556 10.9798 16.8557 10.9816 16.8557C10.9834 16.8558 10.9851 16.8559 10.9869 16.8559C10.9887 16.856 10.9905 16.8561 10.9923 16.8561C10.994 16.8562 10.9958 16.8563 10.9976 16.8564C10.9994 16.8564 11.0012 16.8565 11.0029 16.8566C11.0047 16.8566 11.0065 16.8567 11.0083 16.8568C11.0101 16.8568 11.0119 16.8569 11.0137 16.857C11.0155 16.857 11.0173 16.8571 11.0191 16.8572C11.0209 16.8573 11.0227 16.8573 11.0245 16.8574C11.0263 16.8575 11.0281 16.8575 11.0299 16.8576C11.0317 16.8577 11.0335 16.8577 11.0353 16.8578C11.0371 16.8579 11.0389 16.8579 11.0407 16.858C11.0425 16.8581 11.0444 16.8582 11.0462 16.8582C11.048 16.8583 11.0498 16.8584 11.0516 16.8584C11.0534 16.8585 11.0553 16.8586 11.0571 16.8587C11.0589 16.8587 11.0607 16.8588 11.0626 16.8589C11.0644 16.8589 11.0662 16.859 11.0681 16.8591C11.0699 16.8591 11.0717 16.8592 11.0735 16.8593C11.0754 16.8594 11.0772 16.8594 11.0791 16.8595C11.0809 16.8596 11.0827 16.8596 11.0846 16.8597C11.0864 16.8598 11.0883 16.8599 11.0901 16.8599C11.092 16.86 11.0938 16.8601 11.0956 16.8601C11.0975 16.8602 11.0993 16.8603 11.1012 16.8604C11.1031 16.8604 11.1049 16.8605 11.1068 16.8606C11.1086 16.8606 11.1105 16.8607 11.1123 16.8608C11.1142 16.8609 11.1161 16.8609 11.1179 16.861C11.1198 16.8611 11.1216 16.8611 11.1235 16.8612C11.1254 16.8613 11.1273 16.8614 11.1291 16.8614C11.131 16.8615 11.1329 16.8616 11.1347 16.8617C11.1366 16.8617 11.1385 16.8618 11.1404 16.8619C11.1422 16.8619 11.1441 16.862 11.146 16.8621C11.1479 16.8622 11.1498 16.8622 11.1517 16.8623C11.1535 16.8624 11.1554 16.8624 11.1573 16.8625C11.1592 16.8626 11.1611 16.8627 11.163 16.8627C11.1649 16.8628 11.1668 16.8629 11.1687 16.863C11.1706 16.863 11.1725 16.8631 11.1744 16.8632C11.1763 16.8633 11.1782 16.8633 11.1801 16.8634C11.182 16.8635 11.1839 16.8635 11.1858 16.8636C11.1877 16.8637 11.1896 16.8638 11.1915 16.8638C11.1934 16.8639 11.1953 16.864 11.1972 16.8641C11.1991 16.8641 11.2011 16.8642 11.203 16.8643C11.2049 16.8644 11.2068 16.8644 11.2087 16.8645C11.2106 16.8646 11.2126 16.8647 11.2145 16.8647C11.2164 16.8648 11.2183 16.8649 11.2203 16.865C11.2222 16.865 11.2241 16.8651 11.226 16.8652C11.228 16.8653 11.2299 16.8653 11.2318 16.8654C11.2338 16.8655 11.2357 16.8656 11.2376 16.8656C11.2396 16.8657 11.2415 16.8658 11.2435 16.8659C11.2454 16.8659 11.2473 16.866 11.2493 16.8661C11.2512 16.8662 11.2532 16.8662 11.2551 16.8663C11.2571 16.8664 11.259 16.8665 11.261 16.8665C11.2629 16.8666 11.2649 16.8667 11.2668 16.8668C11.2688 16.8668 11.2707 16.8669 11.2727 16.867C11.2747 16.8671 11.2766 16.8671 11.2786 16.8672C11.2805 16.8673 11.2825 16.8674 11.2845 16.8674C11.2864 16.8675 11.2884 16.8676 11.2904 16.8677C11.2923 16.8677 11.2943 16.8678 11.2963 16.8679C11.2982 16.868 11.3002 16.868 11.3022 16.8681C11.3042 16.8682 11.3061 16.8683 11.3081 16.8683C11.3101 16.8684 11.3121 16.8685 11.3141 16.8686C11.316 16.8687 11.318 16.8687 11.32 16.8688C11.322 16.8689 11.324 16.869 11.326 16.869C11.328 16.8691 11.33 16.8692 11.3319 16.8693C11.3339 16.8693 11.3359 16.8694 11.3379 16.8695C11.3399 16.8696 11.3419 16.8697 11.3439 16.8697C11.3459 16.8698 11.3479 16.8699 11.3499 16.87C11.3519 16.87 11.3539 16.8701 11.3559 16.8702C11.3579 16.8703 11.3599 16.8704 11.3619 16.8704C11.3639 16.8705 11.366 16.8706 11.368 16.8707C11.37 16.8707 11.372 16.8708 11.374 16.8709C11.376 16.871 11.378 16.8711 11.3801 16.8711C11.3821 16.8712 11.3841 16.8713 11.3861 16.8714C11.3881 16.8714 11.3902 16.8715 11.3922 16.8716C11.3942 16.8717 11.3962 16.8718 11.3983 16.8718C11.4003 16.8719 11.4023 16.872 11.4043 16.8721C11.4064 16.8721 11.4084 16.8722 11.4104 16.8723C11.4125 16.8724 11.4145 16.8725 11.4166 16.8725C11.4186 16.8726 11.4206 16.8727 11.4227 16.8728C11.4247 16.8729 11.4268 16.8729 11.4288 16.873C11.4308 16.8731 11.4329 16.8732 11.4349 16.8732C11.437 16.8733 11.439 16.8734 11.4411 16.8735C11.4431 16.8736 11.4452 16.8736 11.4472 16.8737C11.4493 16.8738 11.4513 16.8739 11.4534 16.874C11.4555 16.874 11.4575 16.8741 11.4596 16.8742C11.4616 16.8743 11.4637 16.8744 11.4658 16.8744C11.4678 16.8745 11.4699 16.8746 11.472 16.8747C11.474 16.8748 11.4761 16.8748 11.4782 16.8749C11.4802 16.875 11.4823 16.8751 11.4844 16.8752C11.4864 16.8752 11.4885 16.8753 11.4906 16.8754C11.4927 16.8755 11.4947 16.8756 11.4968 16.8756C11.4989 16.8757 11.501 16.8758 11.5031 16.8759C11.5051 16.876 11.5072 16.876 11.5093 16.8761C11.5114 16.8762 11.5135 16.8763 11.5156 16.8764C11.5177 16.8764 11.5198 16.8765 11.5218 16.8766C11.5239 16.8767 11.526 16.8768 11.5281 16.8768C11.5302 16.8769 11.5323 16.877 11.5344 16.8771C11.5365 16.8772 11.5386 16.8773 11.5407 16.8773C11.5428 16.8774 11.5449 16.8775 11.547 16.8776C11.5491 16.8777 11.5512 16.8777 11.5533 16.8778C11.5554 16.8779 11.5575 16.878 11.5597 16.8781C11.5618 16.8781 11.5639 16.8782 11.566 16.8783C11.5681 16.8784 11.5702 16.8785 11.5723 16.8786C11.5745 16.8786 11.5766 16.8787 11.5787 16.8788C11.5808 16.8789 11.5829 16.879 11.5851 16.879C11.5872 16.8791 11.5893 16.8792 11.5914 16.8793C11.5935 16.8794 11.5957 16.8795 11.5978 16.8795C11.5999 16.8796 11.6021 16.8797 11.6042 16.8798C11.6063 16.8799 11.6085 16.88 11.6106 16.88C11.6127 16.8801 11.6149 16.8802 11.617 16.8803C11.6191 16.8804 11.6213 16.8804 11.6234 16.8805C11.6256 16.8806 11.6277 16.8807 11.6298 16.8808C11.632 16.8809 11.6341 16.8809 11.6363 16.881C11.6384 16.8811 11.6406 16.8812 11.6427 16.8813C11.6449 16.8814 11.647 16.8814 11.6492 16.8815C11.6513 16.8816 11.6535 16.8817 11.6556 16.8818C11.6578 16.8819 11.6599 16.8819 11.6621 16.882C11.6643 16.8821 11.6664 16.8822 11.6686 16.8823C11.6707 16.8824 11.6729 16.8824 11.6751 16.8825C11.6772 16.8826 11.6794 16.8827 11.6816 16.8828C11.6837 16.8829 11.6859 16.8829 11.6881 16.883C11.6902 16.8831 11.6924 16.8832 11.6946 16.8833C11.6968 16.8834 11.6989 16.8834 11.7011 16.8835C11.7033 16.8836 11.7055 16.8837 11.7076 16.8838C11.7098 16.8839 11.712 16.884 11.7142 16.884C11.7164 16.8841 11.7185 16.8842 11.7207 16.8843C11.7229 16.8844 11.7251 16.8845 11.7273 16.8845C11.7295 16.8846 11.7317 16.8847 11.7339 16.8848C11.736 16.8849 11.7382 16.885 11.7404 16.8851C11.7426 16.8851 11.7448 16.8852 11.747 16.8853C11.7492 16.8854 11.7514 16.8855 11.7536 16.8856C11.7558 16.8856 11.758 16.8857 11.7602 16.8858C11.7624 16.8859 11.7646 16.886 11.7668 16.8861C11.769 16.8862 11.7712 16.8862 11.7734 16.8863C11.7756 16.8864 11.7778 16.8865 11.7801 16.8866C11.7823 16.8867 11.7845 16.8868 11.7867 16.8868C11.7889 16.8869 11.7911 16.887 11.7933 16.8871C11.7956 16.8872 11.7978 16.8873 11.8 16.8874C11.8022 16.8874 11.8044 16.8875 11.8066 16.8876C11.8089 16.8877 11.8111 16.8878 11.8133 16.8879C11.8155 16.888 11.8178 16.888 11.82 16.8881C11.8222 16.8882 11.8244 16.8883 11.8267 16.8884C11.8289 16.8885 11.8311 16.8886 11.8334 16.8886C11.8356 16.8887 11.8378 16.8888 11.8401 16.8889C11.8423 16.889 11.8445 16.8891 11.8468 16.8892C11.849 16.8892 11.8513 16.8893 11.8535 16.8894C11.8557 16.8895 11.858 16.8896 11.8602 16.8897C11.8625 16.8898 11.8647 16.8899 11.867 16.8899C11.8692 16.89 11.8715 16.8901 11.8737 16.8902C11.876 16.8903 11.8782 16.8904 11.8805 16.8905C11.8827 16.8905 11.885 16.8906 11.8872 16.8907C11.8895 16.8908 11.8917 16.8909 11.894 16.891C11.8962 16.8911 11.8985 16.8912 11.9008 16.8912C11.903 16.8913 11.9053 16.8914 11.9075 16.8915C11.9098 16.8916 11.9121 16.8917 11.9143 16.8918C11.9166 16.8919 11.9189 16.8919 11.9211 16.892C11.9234 16.8921 11.9257 16.8922 11.9279 16.8923C11.9302 16.8924 11.9325 16.8925 11.9348 16.8926C11.937 16.8926 11.9393 16.8927 11.9416 16.8928C11.9439 16.8929 11.9461 16.893 11.9484 16.8931C11.9507 16.8932 11.953 16.8933 11.9553 16.8934C11.9575 16.8934 11.9598 16.8935 11.9621 16.8936C11.9644 16.8937 11.9667 16.8938 11.969 16.8939C11.9713 16.894 11.9735 16.8941 11.9758 16.8941C11.9781 16.8942 11.9804 16.8943 11.9827 16.8944C11.985 16.8945 11.9873 16.8946 11.9896 16.8947C11.9919 16.8948 11.9942 16.8949 11.9965 16.8949C11.9988 16.895 12.0011 16.8951 12.0034 16.8952C12.0057 16.8953 12.008 16.8954 12.0103 16.8955C12.0126 16.8956 12.0149 16.8957 12.0172 16.8957C12.0195 16.8958 12.0218 16.8959 12.0241 16.896C12.0264 16.8961 12.0287 16.8962 12.031 16.8963C12.0333 16.8964 12.0356 16.8965 12.038 16.8965C12.0403 16.8966 12.0426 16.8967 12.0449 16.8968C12.0472 16.8969 12.0495 16.897 12.0519 16.8971C12.0542 16.8972 12.0565 16.8973 12.0588 16.8974C12.0611 16.8974 12.0634 16.8975 12.0658 16.8976C12.0681 16.8977 12.0704 16.8978 12.0727 16.8979C12.0751 16.898 12.0774 16.8981 12.0797 16.8982C12.0821 16.8983 12.0844 16.8983 12.0867 16.8984C12.089 16.8985 12.0914 16.8986 12.0937 16.8987C12.096 16.8988 12.0984 16.8989 12.1007 16.899C12.103 16.8991 12.1054 16.8992 12.1077 16.8992C12.1101 16.8993 12.1124 16.8994 12.1147 16.8995C12.1171 16.8996 12.1194 16.8997 12.1218 16.8998C12.1241 16.8999 12.1264 16.9 12.1288 16.9001C12.1311 16.9001 12.1335 16.9002 12.1358 16.9003C12.1382 16.9004 12.1405 16.9005 12.1429 16.9006C12.1452 16.9007 12.1476 16.9008 12.1499 16.9009C12.1523 16.901 12.1546 16.9011 12.157 16.9011C12.1594 16.9012 12.1617 16.9013 12.1641 16.9014C12.1664 16.9015 12.1688 16.9016 12.1711 16.9017C12.1735 16.9018 12.1759 16.9019 12.1782 16.902C12.1806 16.9021 12.183 16.9021 12.1853 16.9022C12.1877 16.9023 12.19 16.9024 12.1924 16.9025C12.1948 16.9026 12.1972 16.9027 12.1995 16.9028C12.2019 16.9029 12.2043 16.903 12.2066 16.9031C12.209 16.9032 12.2114 16.9032 12.2138 16.9033C12.2161 16.9034 12.2185 16.9035 12.2209 16.9036C12.2233 16.9037 12.2256 16.9038 12.228 16.9039C12.2304 16.904 12.2328 16.9041 12.2352 16.9042C12.2375 16.9043 12.2399 16.9044 12.2423 16.9044C12.2447 16.9045 12.2471 16.9046 12.2495 16.9047C12.2518 16.9048 12.2542 16.9049 12.2566 16.905C12.259 16.9051 12.2614 16.9052 12.2638 16.9053C12.2662 16.9054 12.2686 16.9055 12.271 16.9055C12.2734 16.9056 12.2758 16.9057 12.2781 16.9058C12.2805 16.9059 12.2829 16.906 12.2853 16.9061C12.2877 16.9062 12.2901 16.9063 12.2925 16.9064C12.2949 16.9065 12.2973 16.9066 12.2997 16.9067C12.3021 16.9068 12.3045 16.9068 12.307 16.9069C12.3094 16.907 12.3118 16.9071 12.3142 16.9072C12.3166 16.9073 12.319 16.9074 12.3214 16.9075C12.3238 16.9076 12.3262 16.9077 12.3286 16.9078C12.331 16.9079 12.3334 16.908 12.3359 16.9081C12.3383 16.9082 12.3407 16.9082 12.3431 16.9083C12.3455 16.9084 12.3479 16.9085 12.3504 16.9086C12.3528 16.9087 12.3552 16.9088 12.3576 16.9089C12.36 16.909 12.3625 16.9091 12.3649 16.9092C12.3673 16.9093 12.3697 16.9094 12.3722 16.9095C12.3746 16.9096 12.377 16.9096 12.3794 16.9097C12.3819 16.9098 12.3843 16.9099 12.3867 16.91C12.3891 16.9101 12.3916 16.9102 12.394 16.9103C12.3964 16.9104 12.3989 16.9105 12.4013 16.9106C12.4037 16.9107 12.4062 16.9108 12.4086 16.9109C12.4111 16.911 12.4135 16.9111 12.4159 16.9112C12.4184 16.9112 12.4208 16.9113 12.4232 16.9114C12.4257 16.9115 12.4281 16.9116 12.4306 16.9117C12.433 16.9118 12.4355 16.9119 12.4379 16.912C12.4403 16.9121 12.4428 16.9122 12.4452 16.9123C12.4477 16.9124 12.4501 16.9125 12.4526 16.9126C12.455 16.9127 12.4575 16.9128 12.4599 16.9129C12.4624 16.9129 12.4648 16.913 12.4673 16.9131C12.4697 16.9132 12.4722 16.9133 12.4747 16.9134C12.4771 16.9135 12.4796 16.9136 12.482 16.9137C12.4845 16.9138 12.4869 16.9139 12.4894 16.914C12.4919 16.9141 12.4943 16.9142 12.4968 16.9143C12.4992 16.9144 12.5017 16.9145 12.5042 16.9146C12.5066 16.9147 12.5091 16.9148 12.5116 16.9148C12.514 16.9149 12.5165 16.915 12.519 16.9151C12.5214 16.9152 12.5239 16.9153 12.5264 16.9154C12.5288 16.9155 12.5313 16.9156 12.5338 16.9157C12.5363 16.9158 12.5387 16.9159 12.5412 16.916C12.5437 16.9161 12.5462 16.9162 12.5486 16.9163C12.5511 16.9164 12.5536 16.9165 12.5561 16.9166C12.5586 16.9167 12.561 16.9168 12.5635 16.9169C12.566 16.9169 12.5685 16.917 12.571 16.9171C12.5734 16.9172 12.5759 16.9173 12.5784 16.9174C12.5809 16.9175 12.5834 16.9176 12.5859 16.9177C12.5884 16.9178 12.5908 16.9179 12.5933 16.918C12.5958 16.9181 12.5983 16.9182 12.6008 16.9183C12.6033 16.9184 12.6058 16.9185 12.6083 16.9186C12.6108 16.9187 12.6133 16.9188 12.6158 16.9189C12.6182 16.919 12.6207 16.9191 12.6232 16.9192C12.6257 16.9193 12.6282 16.9194 12.6307 16.9194C12.6332 16.9195 12.6357 16.9196 12.6382 16.9197C12.6407 16.9198 12.6432 16.9199 12.6457 16.92C12.6482 16.9201 12.6507 16.9202 12.6532 16.9203C12.6558 16.9204 12.6583 16.9205 12.6608 16.9206C12.6633 16.9207 12.6658 16.9208 12.6683 16.9209C12.6708 16.921 12.6733 16.9211 12.6758 16.9212C12.6783 16.9213 12.6808 16.9214 12.6833 16.9215C12.6859 16.9216 12.6884 16.9217 12.6909 16.9218C12.6934 16.9219 12.6959 16.922 12.6984 16.9221C12.701 16.9222 12.7035 16.9223 12.706 16.9224C12.7085 16.9225 12.711 16.9226 12.7135 16.9226C12.7161 16.9227 12.7186 16.9228 12.7211 16.9229C12.7236 16.923 12.7262 16.9231 12.7287 16.9232C12.7312 16.9233 12.7337 16.9234 12.7362 16.9235C12.7388 16.9236 12.7413 16.9237 12.7438 16.9238C12.7464 16.9239 12.7489 16.924 12.7514 16.9241C12.7539 16.9242 12.7565 16.9243 12.759 16.9244C12.7615 16.9245 12.7641 16.9246 12.7666 16.9247C12.7691 16.9248 12.7717 16.9249 12.7742 16.925C12.7767 16.9251 12.7793 16.9252 12.7818 16.9253C12.7843 16.9254 12.7869 16.9255 12.7894 16.9256C12.792 16.9257 12.7945 16.9258 12.797 16.9259C12.7996 16.926 12.8021 16.9261 12.8047 16.9262C12.8072 16.9263 12.8098 16.9264 12.8123 16.9265C12.8148 16.9266 12.8174 16.9267 12.8199 16.9268C12.8225 16.9269 12.825 16.927 12.8276 16.9271C12.8301 16.9272 12.8327 16.9273 12.8352 16.9273C12.8378 16.9274 12.8403 16.9275 12.8429 16.9276C12.8454 16.9277 12.848 16.9278 12.8505 16.9279C12.8531 16.928 12.8556 16.9281 12.8582 16.9282C12.8607 16.9283 12.8633 16.9284 12.8659 16.9285C12.8684 16.9286 12.871 16.9287 12.8735 16.9288C12.8761 16.9289 12.8786 16.929 12.8812 16.9291L12.9005 16.4295ZM16.4882 14.2689L15.3883 15.0738L15.6836 15.4773L16.7835 14.6724L16.4882 14.2689ZM15.7854 15.2583C15.7583 14.8667 15.5052 14.4979 15.08 14.4081C14.6594 14.3193 14.1713 14.5239 13.6924 15.0417L14.0595 15.3812C14.4819 14.9244 14.803 14.8607 14.9767 14.8973C15.1459 14.9331 15.2721 15.0836 15.2866 15.2928L15.7854 15.2583ZM13.8665 14.9616C12.6618 15.0072 12.8763 15.0144 12.2329 14.9895L12.2135 15.4891C12.8809 15.5149 12.6901 15.5065 13.8854 15.4613L13.8665 14.9616ZM12.2329 14.9895C12.0889 14.9839 11.9022 14.9113 11.6521 14.7841C11.4221 14.6671 11.1319 14.4998 10.8498 14.3749C10.5609 14.2469 10.2373 14.1415 9.89915 14.1483C9.55151 14.1553 9.20805 14.2803 8.88722 14.5773L9.22686 14.9442C9.46022 14.7282 9.68722 14.6526 9.90915 14.6482C10.1406 14.6436 10.3856 14.7161 10.6473 14.832C10.9158 14.951 11.1581 15.0938 11.4254 15.2297C11.6725 15.3555 11.9479 15.4789 12.2135 15.4891L12.2329 14.9895ZM8.88722 14.5773C8.27339 15.1454 7.37019 15.8973 6.66598 16.4686L6.98098 16.8569C7.68628 16.2848 8.60026 15.5242 9.22686 14.9442L8.88722 14.5773ZM6.44185 18.1969L6.5957 18.4052L6.99791 18.1082L6.84405 17.8999L6.44185 18.1969ZM8.33162 18.7323C8.56571 18.5962 8.80557 18.47 9.01974 18.3792C9.24309 18.2846 9.40618 18.243 9.49889 18.245L9.50958 17.7451C9.30336 17.7407 9.05629 17.8208 8.82472 17.9188C8.58397 18.0208 8.32418 18.1583 8.08035 18.3L8.33162 18.7323ZM9.49889 18.245C9.80512 18.2515 10.7557 18.3336 11.7075 18.3951C12.1775 18.4254 12.6438 18.4503 13.0182 18.4569C13.2051 18.4601 13.373 18.4589 13.5089 18.451C13.5768 18.4471 13.6402 18.4413 13.6957 18.4328C13.7475 18.4248 13.8083 18.4123 13.8625 18.3885L13.6616 17.9306C13.6678 17.9279 13.6582 17.9327 13.6198 17.9386C13.5853 17.9439 13.5389 17.9485 13.4799 17.9519C13.3622 17.9587 13.2085 17.9601 13.027 17.9569C12.6648 17.9506 12.2079 17.9263 11.7397 17.8961C10.8151 17.8364 9.82897 17.7519 9.50958 17.7451L9.49889 18.245ZM13.8625 18.3885C13.9609 18.3453 14.1809 18.2122 14.449 18.0427C14.7264 17.8673 15.0775 17.6386 15.4518 17.3898C16.1999 16.8926 17.0465 16.3116 17.589 15.9122L17.2925 15.5096C16.7596 15.902 15.9207 16.4778 15.1751 16.9734C14.8026 17.2209 14.4549 17.4474 14.1818 17.6201C13.8993 17.7986 13.717 17.9063 13.6616 17.9306L13.8625 18.3885ZM13.7911 15.4466C13.8556 15.4699 13.9951 15.546 14.0974 15.6596C14.1945 15.7674 14.2355 15.8793 14.1967 16.0087L14.6756 16.1523C14.7807 15.8015 14.6392 15.5142 14.469 15.3251C14.3041 15.1419 14.0915 15.0235 13.9609 14.9763L13.7911 15.4466ZM15.3923 15.071L14.9041 15.4138L15.1914 15.823L15.6797 15.4802L15.3923 15.071ZM14.897 15.419L14.2854 15.881L14.5869 16.28L15.1985 15.8179L14.897 15.419ZM6.5957 18.4052C7.00332 18.9572 7.76217 19.0633 8.33162 18.7323L8.08035 18.3C7.70719 18.5169 7.23801 18.4333 6.99791 18.1082L6.5957 18.4052ZM6.66598 16.4686C6.14415 16.892 6.04036 17.6533 6.44185 18.1969L6.84405 17.8999C6.60365 17.5744 6.66374 17.1143 6.98098 16.8569L6.66598 16.4686Z" fill="#625D59"/>
<path fill-rule="evenodd" clip-rule="evenodd" d="M10.229 12.6303C9.9003 12.598 9.61267 12.4512 9.46593 12.2252L9.74768 11.9464C9.87388 12.1343 10.0294 12.2399 10.229 12.2751V11.694C9.90617 11.6324 9.57158 11.5355 9.57158 11.1188C9.57158 10.7636 9.85627 10.5318 10.229 10.4848V10.2031H10.5254V10.4848C10.8189 10.52 11.0567 10.655 11.1799 10.8429L10.9099 11.1246C10.816 10.9779 10.6839 10.8752 10.5254 10.8341V11.377C10.8483 11.4387 11.1917 11.5355 11.1917 11.967C11.1917 12.3338 10.904 12.5716 10.5254 12.6244V12.9149H10.229V12.6303ZM10.229 10.8253C10.0676 10.8546 9.95606 10.9427 9.95606 11.0865C9.95606 11.2215 10.0705 11.2802 10.229 11.3183V10.8253ZM10.5254 12.2751C10.6927 12.2458 10.8072 12.1636 10.8072 11.9992C10.8072 11.8554 10.6898 11.7938 10.5254 11.7527V12.2751Z" fill="#625D59"/>
<path fill-rule="evenodd" clip-rule="evenodd" d="M12.6158 11.5589C12.6158 12.8219 11.5919 13.8458 10.3289 13.8458C9.06588 13.8458 8.04199 12.8219 8.04199 11.5589C8.04199 10.2959 9.06588 9.27197 10.3289 9.27197C11.5919 9.27197 12.6158 10.2959 12.6158 11.5589ZM12.2706 11.5589C12.2706 12.6313 11.4013 13.5006 10.3289 13.5006C9.25653 13.5006 8.38719 12.6313 8.38719 11.5589C8.38719 10.4865 9.25653 9.61717 10.3289 9.61717C11.4013 9.61717 12.2706 10.4865 12.2706 11.5589Z" fill="#625D59"/>
<path d="M15.7039 10.0945L16.5157 11.8084C16.5345 11.8542 16.5497 11.9017 16.5608 11.9506C16.575 12.013 16.5824 12.078 16.5824 12.1448C16.5824 12.6302 16.1897 13.0233 15.7039 13.0233C15.2185 13.0233 14.8254 12.6302 14.8254 12.1448C14.8254 12.0258 14.8494 11.9122 14.8925 11.8084L15.7039 10.0945Z" fill="#625D59"/>
<path fill-rule="evenodd" clip-rule="evenodd" d="M17.9908 11.5589C17.9908 12.822 16.967 13.8458 15.7039 13.8458C14.4408 13.8458 13.417 12.822 13.417 11.5589C13.417 10.2958 14.4408 9.27197 15.7039 9.27197C16.967 9.27197 17.9908 10.2958 17.9908 11.5589ZM17.6456 11.5589C17.6456 12.6312 16.7762 13.5006 15.7039 13.5006C14.6316 13.5006 13.7622 12.6312 13.7622 11.5589C13.7622 10.4866 14.6316 9.61717 15.7039 9.61717C16.7762 9.61717 17.6456 10.4866 17.6456 11.5589Z" fill="#625D59"/>
<path fill-rule="evenodd" clip-rule="evenodd" d="M14.1693 8.17789H13.4536V7.87585H14.2124L14.0107 6.12115C14.0027 6.05146 13.9437 5.99884 13.8736 5.99884H12.3435C12.2718 5.99884 12.212 6.05367 12.2059 6.12506L12.055 7.87585H12.8138V8.17789H12.0981V8.39364H14.1693V8.17789ZM13.4684 7.53065L13.4404 7.26528H12.782L12.7633 7.53065H13.4684ZM12.6249 7.53065L12.6436 7.26528H12.4541L12.4312 7.53065H12.6249ZM12.7917 7.1272H13.4258L13.3857 6.74749H12.8185L12.7917 7.1272ZM12.68 6.74749L12.6533 7.1272H12.466L12.4987 6.74749H12.68ZM12.8282 6.60941H13.3712L13.3431 6.34404H12.8469L12.8282 6.60941ZM12.7084 6.34404L12.6898 6.60941H12.5106L12.5335 6.34404H12.7084ZM13.482 6.34404L13.51 6.60941H13.7194L13.6889 6.34404H13.482ZM13.5246 6.74749L13.5647 7.1272H13.7789L13.7353 6.74749H13.5246ZM13.5793 7.26528L13.6073 7.53065H13.8253L13.7948 7.26528H13.5793Z" fill="#625D59"/>
<path fill-rule="evenodd" clip-rule="evenodd" d="M13.1121 9.57385C14.3752 9.57385 15.399 8.54996 15.399 7.28692C15.399 6.02389 14.3752 5 13.1121 5C11.8491 5 10.8252 6.02389 10.8252 7.28692C10.8252 8.54996 11.8491 9.57385 13.1121 9.57385ZM13.1121 9.22865C14.1845 9.22865 15.0538 8.35931 15.0538 7.28692C15.0538 6.21454 14.1845 5.3452 13.1121 5.3452C12.0397 5.3452 11.1704 6.21454 11.1704 7.28692C11.1704 8.35931 12.0397 9.22865 13.1121 9.22865Z" fill="#625D59"/>
</svg>
