<svg width="24" height="24" viewBox="0 0 24 24" fill="none" xmlns="http://www.w3.org/2000/svg">
<path d="M16.1667 15.898C15.8752 18.2285 13.7733 19.8785 11.472 19.5834C9.17074 19.2882 7.54182 17.1595 7.8333 14.829C7.93798 13.994 8.27455 13.2463 8.77015 12.6441L15.7975 13.5459C15.9783 13.9325 16.1027 14.3491 16.1615 14.7834C16.2106 15.145 16.2142 15.5189 16.1667 15.898Z" fill="#625D59"/>
<path fill-rule="evenodd" clip-rule="evenodd" d="M10.5025 5.37415C10.577 4.78093 11.1121 4.36057 11.6979 4.436L14.9835 4.85758C15.5693 4.93259 15.9839 5.47445 15.9099 6.06767C15.839 6.63602 15.3454 7.04496 14.789 7.01315L14.3067 10.8705C16.1108 11.8205 17.2304 13.837 16.9598 16.0004C16.6128 18.774 14.111 20.738 11.3718 20.3866C8.63246 20.0351 6.69314 17.5016 7.04018 14.7275C7.30429 12.6155 8.94367 10.946 10.8516 10.4322L11.3351 6.56834C10.7997 6.4501 10.4325 5.93516 10.5025 5.37415ZM15.5008 6.01548C15.4553 6.37998 15.1264 6.63806 14.7665 6.59199L14.5507 6.56426L14.4315 6.54877L13.8606 11.1135L13.9943 11.1788C15.7214 12.0227 16.8052 13.9153 16.5508 15.9478C16.2323 18.4931 13.9367 20.2948 11.4233 19.9723C8.91026 19.6502 7.13077 17.3254 7.44922 14.7801C7.69602 12.8076 9.26777 11.2362 11.0855 10.8033L11.2248 10.7702L11.7953 6.21078L11.4809 6.17041C11.1209 6.12434 10.8661 5.79124 10.9116 5.42674C10.9575 5.06184 11.286 4.80376 11.6459 4.85024L14.9315 5.27181C15.2915 5.31788 15.5463 5.65099 15.5008 6.01548Z" fill="#625D59"/>
</svg>
