<svg width="24" height="25" viewBox="0 0 24 25" fill="none" xmlns="http://www.w3.org/2000/svg">
<path fill-rule="evenodd" clip-rule="evenodd" d="M5.08091 8.91328C5.03091 8.94155 5 8.99454 5 9.05198V9.76478C5 9.85277 5.07133 9.9241 5.15933 9.9241H18.7811C18.8691 9.9241 18.9405 9.85277 18.9405 9.76478V9.05099C18.9405 8.99408 18.9101 8.9415 18.8608 8.91303L12.1242 5.02137C12.0753 4.99314 12.0152 4.99286 11.966 5.02063L5.08091 8.91328ZM11.9702 8.2562C12.4154 8.2562 12.7762 7.89535 12.7762 7.45022C12.7762 7.00509 12.4154 6.64424 11.9702 6.64424C11.5251 6.64424 11.1643 7.00509 11.1643 7.45022C11.1643 7.89535 11.5251 8.2562 11.9702 8.2562ZM6.63055 10.2287C6.58655 10.2287 6.55089 10.2644 6.55089 10.3084V10.7964C6.55089 10.8404 6.58655 10.876 6.63055 10.876H6.76996C6.81396 10.876 6.84963 10.9117 6.84963 10.9557V16.2029C6.84963 16.2469 6.81396 16.2825 6.76996 16.2825H6.63055C6.58655 16.2825 6.55089 16.3182 6.55089 16.3622V16.8501C6.55089 16.8941 6.58655 16.9298 6.63055 16.9298H8.05984C8.10384 16.9298 8.1395 16.8941 8.1395 16.8501V16.3622C8.1395 16.3182 8.10384 16.2825 8.05984 16.2825H7.92509C7.8811 16.2825 7.84543 16.2469 7.84543 16.2029V10.9557C7.84543 10.9117 7.8811 10.876 7.92509 10.876H8.05984C8.10384 10.876 8.1395 10.8404 8.1395 10.7964V10.3084C8.1395 10.2644 8.10384 10.2287 8.05984 10.2287H6.63055ZM18.0948 17.3304C18.0948 17.2864 18.0591 17.2507 18.0152 17.2507H5.97589C5.93189 17.2507 5.89622 17.2864 5.89622 17.3304V18.1653C5.89622 18.2093 5.86056 18.245 5.81656 18.245H5.12945C5.08546 18.245 5.04979 18.2806 5.04979 18.3246V19.496C5.04979 19.54 5.08546 19.5757 5.12945 19.5757H18.8608C18.9048 19.5757 18.9405 19.54 18.9405 19.496V18.3246C18.9405 18.2806 18.9048 18.245 18.8608 18.245H18.1745C18.1305 18.245 18.0948 18.2093 18.0948 18.1653V17.3304ZM8.86068 10.3084C8.86068 10.2644 8.89635 10.2287 8.94035 10.2287H10.3696C10.4136 10.2287 10.4493 10.2644 10.4493 10.3084V10.7964C10.4493 10.8404 10.4136 10.876 10.3696 10.876H10.2349C10.1909 10.876 10.1552 10.9117 10.1552 10.9557V16.2029C10.1552 16.2469 10.1909 16.2825 10.2349 16.2825H10.3696C10.4136 16.2825 10.4493 16.3182 10.4493 16.3622V16.8501C10.4493 16.8941 10.4136 16.9298 10.3696 16.9298H8.94035C8.89635 16.9298 8.86068 16.8941 8.86068 16.8501V16.3622C8.86068 16.3182 8.89635 16.2825 8.94035 16.2825H9.07976C9.12376 16.2825 9.15942 16.2469 9.15942 16.2029V10.9557C9.15942 10.9117 9.12376 10.876 9.07976 10.876H8.94035C8.89635 10.876 8.86068 10.8404 8.86068 10.7964V10.3084ZM13.5771 10.2455C13.5331 10.2455 13.4974 10.2811 13.4974 10.3251V10.8131C13.4974 10.8571 13.5331 10.8927 13.5771 10.8927H13.7165C13.7605 10.8927 13.7961 10.9284 13.7961 10.9724V16.2196C13.7961 16.2636 13.7605 16.2993 13.7165 16.2993H13.5771C13.5331 16.2993 13.4974 16.3349 13.4974 16.3789V16.8669C13.4974 16.9109 13.5331 16.9465 13.5771 16.9465H15.0063C15.0503 16.9465 15.086 16.9109 15.086 16.8669V16.3789C15.086 16.3349 15.0503 16.2993 15.0063 16.2993H14.8716C14.8276 16.2993 14.7919 16.2636 14.7919 16.2196V10.9724C14.7919 10.9284 14.8276 10.8927 14.8716 10.8927H15.0063C15.0503 10.8927 15.086 10.8571 15.086 10.8131V10.3251C15.086 10.2811 15.0503 10.2455 15.0063 10.2455H13.5771ZM15.8865 10.2287C15.8425 10.2287 15.8068 10.2644 15.8068 10.3084V10.7964C15.8068 10.8404 15.8425 10.876 15.8865 10.876H16.0259C16.0699 10.876 16.1055 10.9117 16.1055 10.9557V16.2029C16.1055 16.2469 16.0699 16.2825 16.0259 16.2825H15.8865C15.8425 16.2825 15.8068 16.3182 15.8068 16.3622V16.8501C15.8068 16.8941 15.8425 16.9298 15.8865 16.9298H17.3158C17.3598 16.9298 17.3954 16.8941 17.3954 16.8501V16.3622C17.3954 16.3182 17.3598 16.2825 17.3158 16.2825H17.181C17.137 16.2825 17.1013 16.2469 17.1013 16.2029V10.9557C17.1013 10.9117 17.137 10.876 17.181 10.876H17.3158C17.3598 10.876 17.3954 10.8404 17.3954 10.7964V10.3084C17.3954 10.2644 17.3598 10.2287 17.3158 10.2287H15.8865ZM11.718 11.2237C11.718 11.4673 11.7423 11.6627 11.9743 11.6819C12.1751 11.6597 12.2299 11.489 12.2299 11.2454C12.2299 11.0018 12.0932 10.6535 11.9803 10.6535C11.8675 10.6535 11.718 10.9801 11.718 11.2237ZM12.5915 12.1614C12.4164 12.3307 12.259 12.4491 12.0839 12.2957C11.9603 12.1359 12.0449 11.9778 12.22 11.8084C12.3951 11.6391 12.7406 11.4953 12.819 11.5764C12.8974 11.6575 12.7666 11.992 12.5915 12.1614ZM12.0839 13.1964C12.259 13.3498 12.4164 13.2315 12.5915 13.0621C12.7666 12.8928 12.8974 12.5583 12.819 12.4772C12.7406 12.3961 12.3951 12.5398 12.22 12.7092C12.0449 12.8785 11.9603 13.0367 12.0839 13.1964ZM12.5915 13.9443C12.4164 14.1136 12.259 14.232 12.0839 14.0786C11.9603 13.9188 12.0449 13.7607 12.22 13.5914C12.3951 13.422 12.7406 13.2783 12.819 13.3594C12.8974 13.4405 12.7666 13.775 12.5915 13.9443ZM11.3501 14.8265C11.5252 14.9958 11.6826 15.1142 11.8577 14.9608C11.9813 14.801 11.8967 14.6429 11.7216 14.4736C11.5464 14.3042 11.201 14.1604 11.1226 14.2415C11.0441 14.3227 11.1749 14.6571 11.3501 14.8265ZM12.5915 14.8265C12.4164 14.9958 12.259 15.1142 12.0839 14.9608C11.9603 14.801 12.0449 14.6429 12.22 14.4736C12.3951 14.3042 12.7406 14.1604 12.819 14.2415C12.8974 14.3227 12.7666 14.6571 12.5915 14.8265ZM12.0928 15.2444C12.0928 15.1787 12.0396 15.1255 11.974 15.1255C11.9083 15.1255 11.8551 15.1787 11.8551 15.2444V16.4701C11.8551 16.5358 11.9083 16.589 11.974 16.589C12.0396 16.589 12.0928 16.5358 12.0928 16.4701V15.2444ZM11.8577 14.0786C11.6826 14.232 11.5252 14.1136 11.3501 13.9443C11.1749 13.775 11.0441 13.4405 11.1226 13.3594C11.201 13.2783 11.5464 13.422 11.7216 13.5914C11.8967 13.7607 11.9813 13.9188 11.8577 14.0786ZM11.3501 13.0621C11.5252 13.2315 11.6826 13.3498 11.8577 13.1964C11.9813 13.0367 11.8967 12.8785 11.7216 12.7092C11.5464 12.5398 11.201 12.3961 11.1226 12.4772C11.0441 12.5583 11.1749 12.8928 11.3501 13.0621ZM11.8577 12.2957C11.6826 12.4491 11.5252 12.3307 11.3501 12.1614C11.1749 11.992 11.0441 11.6575 11.1226 11.5764C11.201 11.4953 11.5464 11.6391 11.7216 11.8084C11.8967 11.9778 11.9813 12.1359 11.8577 12.2957Z" fill="#625D59"/>
</svg>
