<svg width="24" height="24" viewBox="0 0 24 24" fill="none" xmlns="http://www.w3.org/2000/svg">
<path d="M14.1023 10.0851V7.905C14.1023 7.62886 13.8784 7.405 13.6023 7.405H8.69237M14.1023 10.0851L12.0265 13.4791M14.1023 10.0851L15.4993 7.91809M8.69237 7.405L6 10.0851M8.69237 7.405V9.58506C8.69237 9.8612 8.46851 10.0851 8.19237 10.0851H6M6 10.0851V17.5C6 17.7761 6.22386 18 6.5 18H13.6023C13.8784 18 14.1023 17.7761 14.1023 17.5V14.769M14.1023 14.769L11.9512 16.2179C11.8068 16.3152 11.6157 16.1943 11.6417 16.0221L12.0265 13.4791M14.1023 14.769L12.0265 13.4791M14.1023 14.769L17.5876 9.20854M17.5876 9.20854L17.8643 8.75771C18.0785 8.30684 18.1225 7.64918 17.3609 7.20467C16.6314 6.77886 16.0906 7.07911 15.7258 7.54246L15.4993 7.91809M17.5876 9.20854L15.4993 7.91809M6.94388 12.6907H10.9699M6.94388 14.268H10.5767M6.94388 16.0088H10.2496M6.94388 11.1576H11.9076M8.69237 9.2667H12.7701" stroke="#625D59" stroke-width="0.5" stroke-linecap="round"/>
</svg>
