<svg width="185" height="350" viewBox="0 0 185 350" fill="none" xmlns="http://www.w3.org/2000/svg">
<path fill-rule="evenodd" clip-rule="evenodd" d="M63.5816 139.782V129.938C63.5816 116.164 73.2609 104.651 86.1889 101.829L92.7008 0L99.3608 102.025C111.865 105.154 121.127 116.465 121.127 129.938V138.671C126.137 142.156 130.466 146.549 133.877 151.613H148.357C150.608 151.613 152.433 153.438 152.433 155.689V208.672H167.921C170.172 208.672 171.996 210.497 171.996 212.748V340.315C172.208 340.343 172.418 340.373 172.627 340.406C176.759 341.052 180.265 342.651 182.483 344.797C183.958 346.225 184.862 347.896 185 349.688H167.106V213.563H152.596C155.127 220.421 156.509 227.834 156.509 235.571V349.027H151.618V235.571C151.618 203.158 125.341 176.882 92.927 176.882C75.3976 176.882 59.6632 184.567 48.9089 196.751V197.157H48.5542C39.6339 207.451 34.2363 220.881 34.2363 235.571V349.027H29.3454V235.571C29.3454 227.217 30.9565 219.24 33.885 211.932H18.7484V349.688H0C0.137569 347.896 1.04195 346.225 2.5173 344.797C4.73451 342.651 8.24127 341.052 12.3729 340.406C12.8594 340.33 13.3547 340.267 13.8575 340.218V211.117C13.8575 208.866 15.6823 207.042 17.9333 207.042H33.4211V155.689C33.4211 153.438 35.2459 151.613 37.4969 151.613H52.3649C55.4227 147.074 59.219 143.072 63.5816 139.782ZM92.0138 106.06L92.6604 106.059C105.709 106.223 116.236 116.851 116.236 129.938V135.677C111.683 133.243 106.701 131.506 101.432 130.607L92.898 110.05L84.3644 130.686C78.6647 131.711 73.3068 133.721 68.4725 136.532V129.938C68.4725 116.863 78.9812 106.242 92.0138 106.06ZM95.4485 128.95L92.9068 122.827L90.3734 128.953L95.4485 128.95ZM137.333 179.008V190.067C133.499 186.325 129.193 183.064 124.514 180.38L123.992 152.445L104.195 172.987L104.087 172.968L103.919 172.938L93.1256 146.939L82.4982 172.638L63.0378 152.445L62.5281 179.715C57.5473 182.432 52.97 185.795 48.9089 189.692V179.008C48.9089 154.592 68.7034 134.798 93.1211 134.798C108.801 134.798 122.574 142.96 130.424 155.267V156.504H131.185C135.091 163.096 137.333 170.791 137.333 179.008ZM136.775 156.504C140.257 163.246 142.224 170.897 142.224 179.008V195.414C144.173 197.804 145.952 200.338 147.542 202.998V156.504H136.775ZM38.312 156.504V202.998C40.0069 200.163 41.9164 197.47 44.018 194.943V179.008C44.018 170.897 45.9848 163.246 49.4675 156.504H38.312ZM75.5168 172.441L67.7073 164.338L67.497 175.59L75.5168 172.441ZM119.322 164.338L111.513 172.441L119.533 175.59L119.322 164.338ZM93.1344 159.716L97.4494 170.11L88.8336 170.116L93.1344 159.716Z" fill="#FBF9D9"/>
<path fill-rule="evenodd" clip-rule="evenodd" d="M122.563 340.091V247.274C122.563 230.907 109.295 217.638 92.9269 217.638C76.5592 217.638 63.2905 230.907 63.2905 247.274V350H58.3996V349.688H42.3877V339.907H50.5392V342.996C52.5833 341.763 55.1515 340.855 58.0212 340.406C58.1468 340.386 58.2729 340.367 58.3996 340.349V247.274C58.3996 245.195 58.5833 243.159 58.9353 241.182L42.8275 217.135L65.1286 221.54L59.7113 198.454L82.4083 212.517L93.3506 186.933L103.486 212.2L125.672 198.454L120.232 221.636L143.022 217.135L126.918 241.177C127.27 243.156 127.454 245.193 127.454 247.274V340.556C130.579 341.158 133.301 342.313 135.315 343.833V339.907H143.466V349.688H127.454V350H122.563V349.688H121.7V340.102C121.96 340.095 122.222 340.091 122.485 340.091L122.563 340.091ZM108.647 214.756L118.214 208.828L115.643 219.785L108.647 214.756ZM132.389 224.22L121.348 226.401L126.126 233.571L132.389 224.22ZM64.5014 226.401L53.4603 224.22L59.7236 233.571L64.5014 226.401ZM67.1695 208.828L76.7363 214.756L69.7406 219.785L67.1695 208.828ZM97.3953 210.154L93.2057 199.709L88.7801 210.056L97.3953 210.154Z" fill="#FBF9D9"/>
<path d="M97.627 348.93V259.834C97.627 257.238 95.5227 255.134 92.927 255.134C90.3312 255.134 88.2269 257.238 88.2269 259.834V348.93H83.336V259.834C83.336 254.537 87.6301 250.243 92.927 250.243C98.2239 250.243 102.518 254.537 102.518 259.834V348.93H97.627Z" fill="#FBF9D9"/>
<path d="M83.1452 232.311V238.831H89.6664V232.311H83.1452Z" fill="#FBF9D9"/>
<path d="M70.1028 264.915V255.134H76.624V264.915H70.1028Z" fill="#FBF9D9"/>
<path d="M42.3877 255.134V264.915H50.5392V255.134H42.3877Z" fill="#FBF9D9"/>
<path d="M135.315 264.915V255.134H143.466V264.915H135.315Z" fill="#FBF9D9"/>
<path d="M70.1028 276.327V286.109H76.624V276.327H70.1028Z" fill="#FBF9D9"/>
<path d="M42.3877 286.109V276.327H50.5392V286.109H42.3877Z" fill="#FBF9D9"/>
<path d="M135.315 276.327V286.109H143.466V276.327H135.315Z" fill="#FBF9D9"/>
<path d="M70.1028 307.302V297.52H76.624V307.302H70.1028Z" fill="#FBF9D9"/>
<path d="M42.3877 297.52V307.302H50.5392V297.52H42.3877Z" fill="#FBF9D9"/>
<path d="M135.315 307.302V297.52H143.466V307.302H135.315Z" fill="#FBF9D9"/>
<path d="M70.1028 318.713V326.865H76.624V318.713H70.1028Z" fill="#FBF9D9"/>
<path d="M42.3877 326.865V318.713H50.5392V326.865H42.3877Z" fill="#FBF9D9"/>
<path d="M135.315 318.713V326.865H143.466V318.713H135.315Z" fill="#FBF9D9"/>
<path d="M70.1028 339.907H76.624V349.688H70.1028V339.907Z" fill="#FBF9D9"/>
<path d="M109.23 255.134V264.915H115.751V255.134H109.23Z" fill="#FBF9D9"/>
<path d="M109.23 286.109V276.327H115.751V286.109H109.23Z" fill="#FBF9D9"/>
<path d="M109.23 297.52V307.302H115.751V297.52H109.23Z" fill="#FBF9D9"/>
<path d="M109.23 326.865V318.713H115.751V326.865H109.23Z" fill="#FBF9D9"/>
<path d="M109.23 349.688H115.751V339.907H109.23V349.688Z" fill="#FBF9D9"/>
<path d="M102.709 238.831H96.1876V232.311H102.709V238.831Z" fill="#FBF9D9"/>
</svg>
