<svg width="2400" height="1200" viewBox="0 0 2400 1200" fill="none" xmlns="http://www.w3.org/2000/svg">
<g opacity="0.2" clip-path="url(#clip0_368_95)">
<path d="M1249.27 1684.65L1247.57 1684.15C1247.65 1683.97 1255.63 1666.22 1255.53 1638.3C1255.42 1612.55 1248.22 1572.61 1214.45 1528.66C1169.31 1469.9 1089.08 1418.63 976.001 1376.28C831.259 1322.08 632.843 1282.81 386.264 1259.57C337.583 1254.98 293.173 1248.21 254.27 1239.43C217.047 1231.04 183.583 1220.52 154.817 1208.17C101.45 1185.26 62.2689 1155.7 35.0339 1117.79C-15.7494 1047.1 -16.7735 958.885 -17.8518 865.483C-19.4904 724.33 -21.1832 578.373 -193.696 473.881C-338.973 385.886 -404.624 312.816 -394.389 250.502C-390.805 228.69 -378.263 208.387 -356.04 188.43C-336.22 170.637 -309.04 153.485 -272.943 135.991C-205.81 103.456 -119.774 75.4271 -28.6892 45.7499C72.3894 12.8244 176.908 -21.2287 255.968 -62.5878C344.993 -109.157 389.125 -159.142 390.884 -215.388L392.692 -215.35C392.21 -199.928 388.541 -184.791 381.782 -170.347C375.36 -156.617 365.939 -143.075 353.782 -130.101C331.426 -106.246 299.752 -83.7638 256.956 -61.3734C177.751 -19.9419 73.1485 14.1353 -28.0085 47.0944C-119.027 76.7475 -204.997 104.757 -272.009 137.234C-347.582 173.856 -385.901 209.914 -392.6 250.695C-402.745 312.449 -337.323 385.076 -192.611 472.734C-151.057 497.905 -118.196 526.036 -92.1653 558.73C-69.0749 587.727 -52.0025 619.573 -39.9664 656.099C-17.7012 723.68 -16.8639 795.767 -16.0506 865.478C-14.9723 958.683 -13.9482 1046.72 36.5941 1117.07C93.4257 1196.18 204.601 1241 386.469 1258.14C633.277 1281.4 831.898 1320.72 976.826 1375C1090.23 1417.48 1170.71 1468.94 1216.03 1527.96C1231.03 1547.49 1242.12 1567.88 1248.98 1588.56C1254.47 1605.11 1257.28 1621.88 1257.33 1638.39C1257.42 1666.54 1249.35 1684.47 1249.27 1684.65V1684.65Z" fill="#E8A274"/>
<path d="M1290.16 1668.38L1288.37 1668.23C1288.44 1667.74 1288.68 1666.82 1289.06 1665.44C1303.82 1611.58 1287.8 1555.98 1242.74 1504.63C1194.23 1449.35 1113.16 1400.75 1001.78 1360.19C861.127 1308.96 671.638 1270.55 438.589 1246.02C391.39 1241.05 348.264 1234.01 310.414 1225.08C274.185 1216.54 241.541 1205.99 213.378 1193.71C161.137 1170.93 122.42 1141.84 95.016 1104.78C43.9134 1035.68 40.4074 949.994 36.6965 859.285C31.0941 722.34 25.2989 580.73 -143.334 476.662C-214.919 432.638 -267.274 391.674 -298.937 354.917C-313.991 337.438 -324.835 320.401 -331.166 304.276C-337.232 288.816 -339.359 273.659 -337.485 259.23C-335.04 240.43 -326.124 222.734 -310.232 205.138C-295.823 189.186 -276.027 173.741 -249.708 157.919C-202.828 129.731 -141.756 104.16 -64.4725 74.4391C-33.1109 62.3812 -0.345728 50.4005 31.3411 38.8101C123.317 5.17624 218.42 -29.6046 288.836 -69.9372C367.583 -115.046 406.668 -162.627 408.318 -215.398L410.125 -215.359C409.234 -186.815 397.993 -160.511 375.776 -134.94C356.005 -112.188 327.908 -90.5397 289.89 -68.7613C219.33 -28.3467 124.143 6.46301 32.0881 40.1258C0.40728 51.7113 -32.3458 63.6873 -63.6833 75.7403C-140.87 105.427 -201.858 130.96 -248.618 159.076C-302.654 191.567 -331.136 224.377 -335.684 259.379C-343.552 319.919 -280.274 390.618 -142.232 475.515C-101.617 500.58 -69.2676 528.388 -43.3338 560.518C-20.3398 589.014 -3.0325 620.181 9.56393 655.805C32.8773 721.723 35.7327 791.632 38.5038 859.242C42.2086 949.762 45.7026 1035.27 96.5702 1104.05C153.745 1181.37 262.498 1226.03 438.824 1244.59C672.048 1269.14 861.711 1307.59 1002.53 1358.88C1114.21 1399.55 1195.52 1448.31 1244.22 1503.8C1273.54 1537.21 1290.64 1572.53 1295.06 1608.78C1298.56 1637.53 1292.94 1658.03 1290.83 1665.76C1290.48 1667.04 1290.22 1667.97 1290.16 1668.38V1668.38Z" fill="#E8A274"/>
<path d="M1331.01 1652.29L1329.22 1652.14C1329.35 1651.17 1329.64 1649.76 1330 1647.97C1341.32 1592.67 1324.04 1539.46 1278.65 1489.83C1229.69 1436.29 1149.34 1388.78 1039.82 1348.6C902.055 1298.05 717.374 1258.98 490.921 1232.47C400.469 1221.88 328.83 1204.47 271.896 1179.23C220.77 1156.57 182.511 1127.95 154.938 1091.74C103.51 1024.2 97.5224 941.045 91.1911 853.011C81.6428 720.292 71.7633 583.058 -92.9662 479.429C-162.364 436.074 -211.165 397.361 -242.153 361.081C-270.925 327.394 -283.449 296.797 -280.431 267.539C-278.467 248.483 -269.991 230.44 -254.509 212.391C-240.599 196.17 -221.268 180.256 -195.406 163.746C-148.689 133.919 -88.8337 107.1 -15.4358 75.138C18.5282 60.3524 53.721 45.9331 87.7573 31.9909C259.8 -38.4961 422.301 -105.07 425.759 -215.408L427.566 -215.369C424.084 -104.178 261.113 -37.4118 88.5826 33.2776C54.5584 47.215 19.3776 61.6295 -14.5744 76.4151C-140.352 131.186 -270.407 187.818 -278.636 267.664C-281.617 296.58 -269.196 326.869 -240.666 360.272C-209.78 396.426 -161.105 435.033 -91.8517 478.301C-52.1829 503.255 -20.3455 530.73 5.47992 562.291C28.3776 590.277 45.9017 620.759 59.0644 655.477C83.4079 719.719 88.2814 787.444 92.9983 852.938C99.3176 940.784 105.294 1023.76 156.486 1091C214.011 1166.54 320.367 1211.05 491.186 1231.05C717.814 1257.58 902.658 1296.68 1040.58 1347.29C1150.38 1387.58 1230.97 1435.25 1280.11 1488.99C1309.39 1521 1327.26 1554.88 1333.23 1589.68C1338.03 1617.71 1333.65 1639.09 1331.79 1648.21C1331.42 1649.98 1331.14 1651.37 1331.02 1652.3L1331.01 1652.29Z" fill="#E8A274"/>
<path d="M1371.86 1636.2L1370.07 1636.05C1370.22 1634.9 1370.44 1633.5 1370.7 1631.88C1374.6 1607.48 1386.48 1533.23 1288.29 1450.23C1163.4 1344.67 912.735 1266.84 543.252 1218.91C455.745 1207.57 386.155 1189.84 330.498 1164.73C280.504 1142.18 242.727 1114.01 215.01 1078.63C163.287 1012.63 154.859 931.998 145.943 846.634C132.51 718.065 118.624 585.12 -42.6054 482.214C-108.732 440.006 -155.365 402.315 -185.184 366.989C-212.877 334.175 -225.263 304.276 -223.052 275.587C-221.624 257.057 -214.166 239.418 -200.251 221.668C-187.775 205.75 -170.268 190.006 -146.726 173.529C-102.804 142.786 -44.4548 114.155 17.3224 83.8415C22.7201 81.1909 28.1478 78.5306 33.5876 75.8559C69.2081 58.333 105.654 41.6052 140.895 25.4317C219.865 -10.819 294.456 -45.0553 349.98 -83.3397C412.095 -126.164 441.709 -168.13 443.191 -215.417L444.998 -215.384C444.209 -190.183 435.492 -166.704 418.348 -143.605C402.962 -122.882 380.986 -102.81 351.161 -82.2457C295.504 -43.8697 220.841 -9.59973 141.793 26.6847C106.564 42.8534 70.1298 59.5764 34.5273 77.0849C29.0875 79.7596 23.6658 82.4198 18.2622 85.0705C-43.4488 115.35 -101.738 143.948 -145.546 174.613C-194.522 208.897 -218.582 241.008 -221.251 275.673C-223.437 304.035 -211.154 333.64 -183.69 366.18C-153.979 401.385 -107.461 438.97 -41.485 481.081C-2.66558 505.857 28.7321 532.951 54.4973 563.91C77.3407 591.356 95.1239 621.135 108.853 654.942C134.263 717.497 141.118 783.087 147.745 846.519C156.642 931.7 165.052 1012.16 216.528 1077.87C274.359 1151.69 378.269 1196.06 543.535 1217.49C745.138 1243.64 913.476 1279.28 1043.87 1323.4C1151.04 1359.66 1233.71 1402 1289.6 1449.24C1331.68 1484.81 1358.57 1523.07 1369.52 1562.94C1378.39 1595.21 1374.4 1620.11 1372.49 1632.07C1372.23 1633.68 1372.01 1635.08 1371.86 1636.21V1636.2Z" fill="#E8A274"/>
<path d="M1412.71 1620.12L1410.91 1619.97C1411.01 1619.21 1411.12 1618.39 1411.24 1617.52C1414.86 1590.65 1424.49 1519.27 1326.75 1438.11C1203.18 1335.5 957.181 1257.19 595.571 1205.37C510.951 1193.24 443.36 1175.19 388.944 1150.21C340.052 1127.76 302.733 1100.05 274.847 1065.49C222.811 1001.02 211.925 922.909 200.401 840.205C183.076 715.882 165.16 587.332 7.76807 484.99C-55.1659 444.069 -99.7022 407.486 -128.377 373.144C-155.022 341.245 -167.263 312.069 -165.811 283.958C-164.07 250.343 -142.973 218.941 -99.419 185.133C-60.6117 155.008 -8.58137 126.545 46.5032 96.4101C58.3044 89.9523 70.5092 83.2776 82.6177 76.5643C118.973 56.4004 155.57 37.5473 190.955 19.3208C334.022 -54.3759 457.577 -118.024 460.625 -215.422L462.432 -215.384C459.36 -117.219 335.432 -53.3831 191.937 20.54C156.558 38.757 119.979 57.6004 83.6358 77.7546C71.5213 84.4727 59.3164 91.1475 47.5152 97.6053C-7.50306 127.707 -59.4731 156.136 -98.172 186.174C-141.377 219.712 -162.299 250.801 -164.016 284.02C-165.455 311.813 -153.305 340.705 -126.883 372.343C-98.3046 406.56 -53.8888 443.038 8.90061 483.872C46.7923 508.508 77.684 535.245 103.347 565.612C126.1 592.532 144.1 621.607 158.383 654.494C184.811 715.347 193.642 778.745 202.19 840.051C224.672 1001.39 245.913 1153.78 595.884 1203.95C792.969 1232.2 957.723 1268.87 1085.57 1312.94C1191.01 1349.29 1272.59 1391.06 1328.04 1437.11C1370.05 1471.99 1397.19 1509.37 1408.72 1548.22C1418.12 1579.91 1414.81 1604.48 1413.03 1617.68C1412.92 1618.54 1412.8 1619.36 1412.71 1620.12V1620.12Z" fill="#E8A274"/>
<path d="M1453.56 1604.02L1451.76 1603.88C1481.68 1373.02 1031.13 1252.37 647.897 1191.81C566.137 1178.89 500.529 1160.52 447.33 1135.64C399.528 1113.29 362.655 1086.02 334.594 1052.29C282.227 989.343 268.877 913.733 254.745 833.68C233.552 713.636 211.636 589.511 58.1236 487.761C-1.67783 448.127 -44.1358 412.643 -71.672 379.283C-97.2625 348.291 -109.329 319.847 -108.558 292.329C-107.654 259.987 -89.2082 229.505 -50.5093 196.401C-15.9911 166.878 30.6657 138.666 80.0694 108.801C96.9309 98.6079 114.365 88.0681 131.636 77.2729C167.817 54.6704 203.51 33.9667 238.022 13.9474C302.191 -23.272 362.799 -58.4288 406.119 -94.853C453.884 -135.017 476.739 -173.33 478.059 -215.437L479.866 -215.398C478.535 -172.911 455.516 -134.289 407.426 -93.8554C363.992 -57.3348 303.323 -22.1395 239.082 15.1185C204.582 35.133 168.907 55.827 132.744 78.4199C115.461 89.2199 98.0213 99.7645 81.1538 109.962C31.8163 139.789 -14.7803 167.962 -49.19 197.399C-87.5636 230.223 -105.853 260.401 -106.75 292.368C-107.509 319.582 -95.5456 347.751 -70.166 378.493C-42.7261 411.732 -0.382648 447.11 59.2742 486.653C96.2201 511.139 126.606 537.515 152.154 567.279C174.805 593.665 193.022 622.026 207.847 653.988C235.281 713.121 246.082 774.306 256.528 833.483C284.082 989.551 310.106 1136.96 648.24 1190.39C840.638 1220.8 1001.69 1258.47 1126.9 1302.35C1230.77 1338.75 1311.36 1379.89 1366.45 1424.63C1408.62 1458.87 1436.13 1495.42 1448.23 1533.27C1458.54 1565.56 1455.18 1591.54 1453.56 1604.02H1453.56Z" fill="#E8A274"/>
<path d="M1494.41 1587.94L1492.61 1587.79C1495.72 1563.79 1505.18 1490.75 1398.76 1409.08C1276.5 1315.27 1041.47 1237.61 700.223 1178.26C621.289 1164.54 557.644 1145.82 505.65 1121.04C458.927 1098.77 422.481 1071.95 394.246 1039.03C341.535 977.584 325.722 904.466 308.981 827.049C283.951 711.323 258.071 591.66 108.498 490.542C51.7691 452.195 11.3594 417.809 -15.0443 385.418C-39.5806 355.322 -51.43 327.606 -51.2734 300.695C-51.0926 269.461 -34.8998 239.808 -0.30935 207.379C30.5642 178.43 72.6306 150.531 117.161 120.989C137.962 107.186 159.48 92.9115 180.661 78.0006C215.649 53.3595 249.384 31.2149 282.011 9.80279C399.764 -67.4842 492.777 -128.53 495.499 -215.441L497.307 -215.403C496.048 -175.094 475.897 -138.019 433.909 -98.7132C395.662 -62.9155 343.529 -28.6937 283.161 10.9257C250.541 32.3233 216.818 54.4583 181.854 79.0849C160.655 94.0103 139.125 108.295 118.305 122.102C73.8355 151.601 31.8293 179.461 1.05813 208.314C-33.2372 240.469 -49.2914 269.828 -49.4721 300.7C-49.6288 327.322 -37.8757 354.773 -13.5383 384.623C12.769 416.893 53.0643 451.178 109.655 489.433C145.649 513.766 175.504 539.766 200.926 568.918C223.462 594.759 241.884 622.398 257.246 653.424C285.667 710.817 298.421 769.776 310.752 826.798C343.372 977.623 374.18 1120.08 700.597 1176.85C1042.18 1236.25 1277.49 1314.03 1400 1408.04C1443.53 1441.44 1472.59 1476.96 1486.39 1513.62C1498.15 1544.87 1496.59 1571 1494.4 1587.94H1494.41Z" fill="#E8A274"/>
<path d="M1535.26 1571.85L1533.46 1571.7C1555.09 1404.81 1292.35 1267.88 752.543 1164.71C676.398 1150.15 614.687 1131.07 563.886 1106.38C518.217 1084.18 482.199 1057.78 453.771 1025.67C400.698 965.714 382.415 895.063 363.054 820.268C334.228 708.904 304.427 593.747 158.854 493.313C105.131 456.247 66.7334 422.951 41.4562 391.52C17.9682 362.31 6.36576 335.327 5.98021 309.033C5.53443 278.772 19.8056 249.866 50.89 218.068C78.6491 189.668 116.752 162.107 157.089 132.931C180.981 115.654 205.68 97.7837 229.686 78.7186C262.246 52.8486 292.915 29.9233 322.566 7.75452C431.578 -73.7445 510.337 -132.627 512.928 -215.451L514.735 -215.412C512.12 -131.981 433.132 -72.9253 323.8 8.81476C294.156 30.9739 263.505 53.8896 230.957 79.7451C206.927 98.8343 182.21 116.714 158.3 134.006C77.0226 192.791 6.82961 243.562 7.78745 309.018C8.57661 362.888 56.9503 421.105 160.035 492.223C195.059 516.387 224.372 542.002 249.656 570.532C272.065 595.814 290.68 622.725 306.565 652.797C335.951 708.431 350.632 765.14 364.825 819.984C402.512 965.594 438.108 1103.13 752.964 1163.31C1082.59 1226.31 1311.56 1303.05 1433.51 1391.4C1478.53 1424.01 1509.17 1458.52 1524.56 1493.96C1535.33 1518.77 1538.83 1544.25 1535.26 1571.85V1571.85Z" fill="#E8A274"/>
<path d="M1576.1 1555.76L1574.3 1555.61C1582.77 1490.26 1547.28 1431.45 1465.81 1375.79C1345.36 1293.51 1122.98 1217.93 804.861 1151.16C731.47 1135.75 671.662 1116.29 622.018 1091.67C577.379 1069.53 541.77 1043.54 513.15 1012.22C459.698 953.719 438.927 885.526 416.945 813.328C384.372 706.378 350.697 595.78 209.215 496.093C158.426 460.305 121.992 428.088 97.8472 397.601C75.4074 369.269 64.076 343.018 63.2206 317.346C61.07 253.134 125.161 202.854 199.366 144.632C225.643 124.015 252.818 102.699 278.715 79.4415C307.167 53.8944 334.601 30.3426 358.806 9.5666C460.613 -77.8264 527.867 -135.557 530.367 -215.461L532.174 -215.427C529.656 -134.978 462.216 -77.0843 360.125 10.5497C334.746 32.3378 308.498 54.868 280.059 80.4006C254.119 103.692 226.926 125.027 200.625 145.659C126.721 203.639 62.8893 253.717 65.0218 317.302C66.7808 369.886 112.98 426.353 210.408 495.004C273.89 539.737 321.438 591.111 355.764 652.07C386.089 705.911 402.661 760.345 418.692 812.981C463.312 959.507 501.848 1086.05 805.313 1149.75C975.326 1185.44 1119.28 1223.94 1233.17 1264.2C1332.25 1299.22 1410.92 1336.39 1466.98 1374.68C1513.62 1406.54 1545.82 1440.05 1562.69 1474.26C1575.46 1500.16 1579.85 1526.81 1576.09 1555.75L1576.1 1555.76Z" fill="#E8A274"/>
<path d="M1616.95 1539.67L1615.15 1539.52C1620.59 1497.55 1614.5 1433.17 1499.29 1359.04C1379.55 1281.99 1169.51 1209.56 857.181 1137.59C786.494 1121.31 728.548 1101.44 680.042 1076.87C636.415 1054.76 601.192 1029.17 572.361 998.625C518.499 941.565 495.234 875.8 470.601 806.171C434.348 703.694 396.86 597.727 259.582 498.86C211.643 464.344 177.136 433.197 154.106 403.645C132.697 376.18 121.678 350.657 120.407 325.611C117.239 263.085 175.781 213.5 243.558 156.083C271.679 132.261 300.757 107.634 327.745 80.1643C349.36 58.1595 369.203 38.4486 388.384 19.3834C486.258 -77.8747 545.33 -136.578 547.8 -215.47L549.608 -215.432C548.433 -177.952 534.945 -143.783 505.86 -104.646C478.607 -67.9662 439.414 -29.0167 389.788 20.2895C370.607 39.3498 350.77 59.0607 329.161 81.0608C302.125 108.584 273.016 133.239 244.872 157.08C177.371 214.256 119.076 263.635 122.209 325.553C124.805 376.845 168.841 431.577 260.787 497.795C322.366 542.142 369.486 592.335 404.842 651.241C436.065 703.255 454.505 755.381 472.336 805.786C522.282 946.957 565.415 1068.88 857.675 1136.22C1020.76 1173.79 1158.98 1212.52 1268.51 1251.34C1366.39 1286.04 1444.42 1321.89 1500.41 1357.92C1549.48 1389.49 1582.32 1421.1 1600.81 1454.55C1615.62 1481.34 1620.89 1509.18 1616.94 1539.67L1616.95 1539.67Z" fill="#E8A274"/>
<path d="M1657.8 1523.58L1656 1523.43C1664.86 1455.07 1626.84 1399.18 1532.72 1342.21C1417.13 1272.24 1213.27 1200.87 909.501 1124.05C841.459 1106.84 785.338 1086.54 737.934 1061.98C695.283 1039.88 660.422 1014.67 631.368 984.885C577.06 929.222 551.271 865.854 523.964 798.759C484.108 700.836 442.891 599.578 309.951 501.645C258.065 463.423 222.463 429.158 201.119 396.893C181.631 367.442 174.228 339.833 178.487 312.483C182.155 288.926 194.252 265.62 216.559 239.124C236.457 215.49 262.15 192.088 289.355 167.312C318.885 140.415 349.421 112.603 376.789 80.892C386.21 69.9763 395.228 59.5666 403.951 49.4991C509.644 -72.4964 562.693 -133.73 565.253 -215.48L567.06 -215.441C565.819 -175.759 553.379 -140.665 525.464 -98.1013C498.795 -57.4313 459.638 -12.236 405.439 50.3232C396.716 60.3907 387.698 70.8004 378.282 81.7113C350.855 113.495 320.282 141.34 290.716 168.266C235.728 218.353 188.234 261.611 180.288 312.661C171.571 368.662 213.168 428.373 311.186 500.58C370.801 544.494 417.439 593.457 453.771 650.258C485.843 700.402 506.102 750.176 525.693 798.311C580.994 934.181 628.753 1051.53 910.061 1122.67C1214.03 1199.55 1418.07 1270.98 1533.83 1341.06C1584.82 1371.92 1619.2 1402.58 1638.95 1434.8C1655.82 1462.33 1661.99 1491.37 1657.82 1523.59L1657.8 1523.58Z" fill="#E8A274"/>
<path d="M1698.65 1507.49L1696.85 1507.34C1712.49 1386.69 1599.99 1287.71 961.82 1110.49C896.356 1092.3 842.001 1071.52 795.657 1046.95C753.94 1024.84 719.416 999.965 690.103 970.914C635.301 916.606 606.94 855.584 576.916 790.981C533.56 697.709 488.735 601.255 360.313 504.412C311.415 467.539 277.758 434.392 257.409 403.081C238.836 374.503 231.553 347.621 235.144 320.898C241.897 270.584 285.716 227.832 336.451 178.329C367.048 148.473 398.686 117.606 425.825 81.6151C537.56 -66.5733 580.03 -130.578 582.687 -215.494L584.494 -215.456C583.181 -173.538 572.361 -136.858 548.307 -92.8048C523.837 -47.9901 485.433 5.35941 427.379 82.3621C400.174 118.444 368.493 149.355 337.855 179.249C287.3 228.575 243.644 271.172 236.951 321.057C229.607 375.78 269.204 433.713 361.566 503.366C419.132 546.778 465.217 594.441 502.452 649.082C535.313 697.304 557.331 744.673 578.62 790.485C639.344 921.136 691.79 1033.97 962.423 1109.13C1116.57 1151.94 1239.77 1189.94 1339.08 1225.31C1437.07 1260.22 1511.69 1292.53 1567.18 1324.1C1620.21 1354.26 1656.14 1384 1677.05 1415.02C1696.01 1443.17 1703.08 1473.42 1698.67 1507.49L1698.65 1507.49Z" fill="#E8A274"/>
<path d="M1739.49 1491.4L1737.7 1491.25C1756.2 1348.48 1573.26 1267.58 1014.13 1096.93C951.145 1077.71 898.494 1056.4 853.157 1031.77C812.319 1009.59 778.084 985.03 748.488 956.683C693.126 903.661 662.126 844.923 629.313 782.74C582.608 694.243 534.318 602.735 410.667 507.192C364.613 471.607 332.824 439.534 313.474 409.134C295.818 381.399 288.715 355.221 291.757 329.11C297.486 279.948 337.866 237.885 384.625 189.177C416.023 156.473 448.487 122.656 474.848 82.3427C579.692 -77.9806 597.644 -136.766 600.108 -215.504L601.915 -215.47C600.74 -177.966 596.192 -143.562 577.806 -97.5566C559.638 -52.0914 528.379 3.59551 476.451 83.0078C450.017 123.432 417.505 157.297 386.059 190.049C339.468 238.579 299.233 280.488 293.559 329.235C287.33 382.72 324.938 438.932 411.926 506.142C467.336 548.956 512.758 595.231 550.8 647.622C584.361 693.839 608.059 738.745 630.975 782.167C697.228 907.704 754.439 1016.12 1014.77 1095.57C1170.33 1143.04 1284.56 1180.07 1374.28 1212.1C1472.63 1247.21 1546.62 1278.25 1600.49 1307.01C1655.66 1336.46 1693.15 1365.31 1715.11 1395.18C1726.02 1410.03 1733.26 1425.15 1737.25 1441.39C1741.09 1457.03 1741.82 1473.38 1739.49 1491.38V1491.4Z" fill="#E8A274"/>
<path d="M1780.34 1475.31L1778.54 1475.16C1787.95 1402.6 1748.35 1350.59 1641.88 1295.64C1535.72 1240.86 1366.25 1183.98 1109.74 1097.91C1095.57 1093.15 1081.13 1088.31 1066.45 1083.37C1005.83 1063.02 954.777 1041.09 910.373 1016.35C870.343 994.037 836.337 969.738 806.403 942.046C750.379 890.219 716.638 833.67 680.921 773.8C633.403 694.147 579.541 603.872 461.035 509.958C378.769 444.768 342.956 389.847 348.336 337.129C353.233 289.109 390.534 247.755 433.733 199.875C465.721 164.42 498.794 127.755 523.896 83.0702C613.746 -76.858 615.354 -135.812 617.216 -204.073C617.318 -207.856 617.421 -211.663 617.541 -215.514L619.348 -215.475C619.228 -211.629 619.126 -207.822 619.023 -204.039C618.101 -170.386 617.234 -138.603 605.336 -95.0653C592.005 -46.2989 566.649 10.4965 525.541 83.6678C500.36 128.487 467.233 165.21 435.191 200.728C392.155 248.435 354.986 289.635 350.131 337.254C344.799 389.514 380.444 444.069 462.3 508.941C515.384 551.009 560.005 595.77 598.716 645.79C632.854 689.896 658.114 732.238 682.541 773.188C754.481 893.776 816.608 997.916 1067.13 1082.04C1081.82 1086.98 1096.25 1091.82 1110.43 1096.58C1367.03 1182.69 1536.56 1239.57 1642.85 1294.43C1749.98 1349.72 1789.82 1402.12 1780.33 1475.32L1780.34 1475.31Z" fill="#E8A274"/>
<path d="M1821.19 1459.22L1819.4 1459.07C1827.77 1394.44 1798.35 1347.52 1721.03 1302.21C1645.54 1257.96 1525.77 1215.5 1360 1156.73C1288.78 1131.48 1208.06 1102.87 1118.75 1069.82C876.771 980.244 809.356 879.959 731.301 763.839C681.102 689.159 624.204 604.513 511.397 512.739C434.047 449.809 400.186 396.512 404.83 345.013C409.065 298.121 443.595 257.505 483.583 210.478C514.487 174.131 549.517 132.931 572.939 83.8076C641.174 -59.3495 638.289 -122.217 635.735 -177.682C635.138 -190.613 634.578 -202.825 634.976 -215.514L636.783 -215.48C636.385 -202.829 636.945 -190.641 637.542 -177.735C638.771 -151.061 640.156 -120.829 632.656 -80.0387C624.072 -33.3494 605.09 20.4098 574.626 84.3184C551.132 133.601 516.041 174.873 485.077 211.288C445.234 258.145 410.824 298.613 406.631 345.114C402.023 396.17 435.722 449.11 512.68 511.722C563.186 552.811 606.777 595.857 645.945 643.327C680.464 685.164 707.114 724.807 732.885 763.149C810.789 879.044 878.067 979.131 1119.51 1068.5C1208.8 1101.55 1289.51 1130.16 1360.72 1155.41C1526.6 1214.21 1646.45 1256.69 1722.1 1301.04C1760.94 1323.8 1787.51 1346.87 1803.32 1371.56C1819.68 1397.09 1825.52 1425.77 1821.18 1459.22L1821.19 1459.22Z" fill="#E8A274"/>
<path d="M1862.04 1443.13L1860.24 1442.98C1876.79 1315.35 1749.1 1269.61 1494.74 1178.48C1401.04 1144.91 1294.83 1106.86 1171.07 1056.25C1063.87 1012.41 983.982 966.172 919.651 910.726C861.711 860.793 821.837 808.008 779.62 752.123C727.264 682.817 667.921 604.267 561.764 515.506C403.631 383.288 461.203 311.664 534.089 220.989C565.288 182.174 600.656 138.179 621.993 84.5259C676.788 -53.2577 665.559 -119.533 657.361 -167.928C654.445 -185.123 651.933 -199.971 652.421 -215.533L654.228 -215.494C653.746 -200.049 656.252 -185.253 659.156 -168.121C663.409 -143.022 668.228 -114.574 665.18 -74.7421C661.644 -28.5347 648.083 23.7064 623.722 84.9645C602.312 138.801 566.878 182.878 535.613 221.775C498.655 267.755 466.733 307.466 463.059 352.859C459.023 402.715 490.8 454.079 563.077 514.508C669.373 603.385 728.77 682.007 781.174 751.376C865.53 863.034 938.379 959.464 1171.9 1054.96C1295.62 1105.55 1401.8 1143.59 1495.49 1177.16C1624.98 1223.55 1718.55 1257.07 1780.4 1296.01C1812.44 1316.18 1834.42 1337.14 1847.59 1360.07C1861.44 1384.17 1866.17 1411.34 1862.06 1443.13L1862.04 1443.13Z" fill="#E8A274"/>
<path d="M1902.89 1427.05L1901.09 1426.9C1908.8 1367.44 1886.55 1324.13 1828.96 1286.46C1774.36 1250.74 1690.46 1221.18 1584.23 1183.76C1485 1148.79 1361.5 1105.29 1223.37 1042.69C1118.68 995.252 1039.29 947.671 973.537 892.958C914.006 843.42 870.271 791.781 823.964 737.111C770.464 673.945 709.819 602.344 612.12 518.296C463.788 390.686 517.336 320.43 585.126 231.485C616.541 190.271 652.144 143.553 671.042 85.2729C715.849 -52.9203 695.204 -118.121 680.126 -165.735C674.349 -183.991 669.355 -199.755 669.849 -215.523L671.656 -215.485C671.168 -199.909 676.132 -184.236 681.879 -166.087C689.174 -143.041 698.259 -114.362 699.747 -74.5879C701.487 -28.0721 692.668 24.3378 672.795 85.6392C653.831 144.126 618.15 190.941 586.674 232.242C552.318 277.317 522.65 316.247 519.372 360.532C515.776 409.187 545.668 459.004 613.445 517.318C711.241 601.453 771.921 673.097 825.458 736.306C921.006 849.121 996.476 938.225 1224.26 1041.44C1362.31 1104 1485.77 1147.5 1584.96 1182.45C1691.31 1219.92 1775.32 1249.51 1830.11 1285.35C1888.21 1323.37 1910.67 1367.07 1902.89 1427.07V1427.05Z" fill="#E8A274"/>
<path d="M1943.73 1410.96L1941.94 1410.81C1949.64 1351.38 1928.81 1308.74 1874.41 1272.55C1823.59 1238.75 1747.89 1212.98 1652.04 1180.35C1547.28 1144.68 1416.91 1100.3 1275.67 1029.12C1171.01 976.365 1090.56 926.273 1022.5 871.488C960.212 821.348 913.272 771.709 858.916 714.229C806.699 659.01 747.518 596.426 662.482 521.057C523.56 397.924 573.457 329.086 636.632 241.929C668.199 198.377 703.982 149.013 720.096 85.9861C756.356 -55.7831 724.151 -122.935 702.843 -167.369C693.891 -186.034 686.819 -200.781 687.283 -215.543L689.09 -215.504C688.638 -201.027 695.651 -186.4 704.53 -167.88C725.916 -123.287 758.229 -55.9036 721.867 86.2848C705.687 149.543 669.831 199.018 638.193 242.666C606.198 286.806 578.566 324.927 575.59 368.098C572.319 415.549 600.355 463.848 663.819 520.098C748.904 595.515 808.115 658.128 860.35 713.366C970.194 829.526 1049.56 913.454 1276.63 1027.91C1417.74 1099.04 1548.04 1143.39 1652.74 1179.03C1748.73 1211.71 1824.54 1237.51 1875.56 1271.45C1902.32 1289.26 1920.76 1308.44 1931.92 1330.12C1943.9 1353.38 1947.76 1379.83 1943.73 1410.97L1943.73 1410.96Z" fill="#E8A274"/>
<path d="M1984.58 1394.87L1982.79 1394.72C1999.4 1266.53 1883.47 1228.86 1707.99 1171.84C1599.98 1136.73 1465.55 1093.05 1327.97 1015.55C1084.89 878.62 1000.72 797.738 861.272 663.738C819.157 623.265 771.422 577.395 712.843 523.833C582.963 405.072 629.548 337.693 688.536 252.392C720.223 206.565 756.139 154.627 769.157 86.714C797.404 -60.6359 753.759 -127.084 724.88 -171.056C713.386 -188.554 704.307 -202.376 704.723 -215.552L706.53 -215.514C706.127 -202.713 714.663 -189.716 726.482 -171.725C740.856 -149.841 758.747 -122.602 769.892 -81.7444C783.085 -33.3683 783.434 21.8078 770.946 86.9357C757.88 155.1 721.88 207.163 690.12 253.09C631.482 337.896 585.162 404.879 714.211 522.879C772.807 576.455 820.549 622.335 862.669 662.812C1002.02 796.721 1086.13 877.546 1329.02 1014.37C1466.42 1091.77 1600.75 1135.43 1708.68 1170.5C1794.99 1198.54 1869.54 1222.77 1918.64 1255.53C1944.51 1272.79 1962.37 1291.69 1973.22 1313.29C1984.96 1336.66 1988.67 1363.34 1984.59 1394.87H1984.58Z" fill="#E8A274"/>
<path d="M2025.43 1378.78L2023.64 1378.63C2031.49 1318.05 2010.97 1273.8 1959.05 1239.37C1910.98 1207.49 1839.54 1185.51 1756.82 1160.06C1701.56 1143.06 1638.92 1123.8 1575.06 1098.87C1501.76 1070.26 1438.04 1038.56 1380.27 1001.97C1234.57 909.69 1139.06 846.971 1051.75 779.935C960.639 709.973 876.958 634.07 763.205 526.599C707.548 474.021 682.994 428.387 685.922 382.985C688.584 341.741 712.777 305.187 740.789 262.859C772.579 214.825 808.615 160.377 818.217 87.4367C838.549 -66.9397 780.536 -135.162 745.874 -175.923C731.898 -192.362 721.801 -204.236 722.151 -215.562L723.958 -215.523C723.621 -204.665 733.578 -192.95 747.368 -176.733C782.169 -135.807 840.41 -67.3108 820.012 87.5957C810.374 160.815 774.253 215.394 742.386 263.543C687.518 346.445 644.181 411.929 764.585 525.674C1003.02 750.933 1077.96 808.663 1381.39 1000.85C1510.88 1082.87 1647.61 1124.92 1757.47 1158.72C1840.33 1184.22 1911.91 1206.23 1960.21 1238.26C1985.76 1255.21 2003.41 1274.02 2014.2 1295.77C2025.93 1319.45 2029.61 1346.6 2025.44 1378.79L2025.43 1378.78Z" fill="#E8A274"/>
<path d="M2066.28 1362.69L2064.49 1362.54C2072.55 1300.32 2051.95 1255.38 1999.66 1221.12C1951.67 1189.67 1881.9 1169.48 1801.11 1146.1C1745.06 1129.88 1681.53 1111.49 1618.62 1086.9C1546.56 1058.75 1485.7 1026.52 1432.57 988.394C1341.72 923.198 1268.16 875.512 1203.25 833.439C1072.8 748.87 969.76 682.075 813.567 529.371C761.753 478.715 738.958 434.556 741.826 390.392C744.428 350.295 767.097 314.638 793.344 273.346C825.242 223.163 861.392 166.285 867.278 88.1549C879.531 -74.4625 805.428 -144.077 765.615 -181.475C750.338 -195.827 739.296 -206.198 739.591 -215.581L741.398 -215.542C741.121 -206.714 751.976 -196.521 766.994 -182.415C787.675 -162.988 815.995 -136.386 837.959 -93.8891C849.971 -70.6505 858.754 -44.9395 864.061 -17.4696C870.26 14.6028 871.947 50.1692 869.079 88.2368C863.17 166.666 826.928 223.688 794.952 273.996C743.506 354.932 702.874 418.86 814.964 528.45C971.043 681.039 1074.02 747.796 1204.39 832.311C1269.31 874.394 1342.89 922.095 1433.78 987.314C1552.73 1072.67 1685.01 1110.96 1801.73 1144.74C1882.67 1168.16 1952.58 1188.39 2000.81 1219.99C2026.4 1236.77 2044.13 1255.64 2054.99 1277.69C2066.87 1301.82 2070.57 1329.62 2066.28 1362.68V1362.69Z" fill="#E8A274"/>
<path d="M2107.13 1346.6L2105.33 1346.45C2123.43 1206.77 1999.42 1173.17 1842.42 1130.63C1725.04 1098.83 1592 1062.78 1484.87 974.818C1374.39 884.104 1285.4 832.196 1199.33 782.003C1091.67 719.207 989.977 659.896 863.929 532.146C815.808 483.375 794.736 440.676 797.615 397.765C800.23 358.83 821.513 324.088 846.164 283.861C878.188 231.601 914.483 172.367 916.345 88.8824C920.182 -83.1277 831.549 -150.94 783.935 -187.369C767.591 -199.87 756.796 -208.13 757.031 -215.576L758.838 -215.538C758.627 -208.728 769.194 -200.646 785.188 -188.41C808.049 -170.921 842.597 -144.487 870.531 -101.152C885.863 -77.3735 897.64 -50.8144 905.543 -22.2167C914.808 11.3159 919.056 48.704 918.158 88.9162C916.284 172.724 879.899 232.112 847.79 284.507C799.435 363.418 761.248 425.746 865.35 531.26C991.242 658.855 1092.84 718.108 1200.4 780.841C1286.53 831.073 1375.58 883.015 1486.17 973.815C1592.99 1061.53 1725.82 1097.52 1843 1129.27C1923.01 1150.95 1992.11 1169.67 2040.75 1201.04C2094.43 1235.66 2115.52 1281.92 2107.13 1346.61L2107.13 1346.6Z" fill="#E8A274"/>
<path d="M2147.98 1330.51L2146.18 1330.36C2154.78 1264.02 2133.47 1217.09 2079.14 1182.67C2030.02 1151.56 1958.01 1133.37 1881.78 1114.12C1764.4 1084.48 1631.37 1050.88 1537.17 961.228C1427.86 857.203 1328.93 806.894 1233.25 758.244C1182.23 732.297 1129.47 705.463 1076.8 671.043C1017.88 632.532 964.724 588.007 914.296 534.918C869.717 487.992 850.332 446.739 853.29 405.091C855.97 367.322 876.013 333.524 899.218 294.392C931.398 240.126 967.874 178.623 965.417 89.6007C960.368 -93.0409 852.501 -160.834 800.663 -193.417C784.217 -203.75 774.295 -209.991 774.47 -215.591L776.277 -215.552C776.127 -210.675 786.332 -204.26 801.777 -194.55C827.91 -178.125 867.404 -153.301 901.76 -109.181C920.688 -84.8721 935.718 -57.4263 946.429 -27.6093C959.049 7.52333 966.049 46.9499 967.224 89.5718C969.694 178.931 933.121 240.604 900.85 295.013C855.29 371.843 819.296 432.522 915.736 534.045C1027.87 652.089 1128.1 703.063 1234.23 757.029C1330.02 805.743 1429.07 856.114 1538.56 960.302C1632.43 1049.63 1765.19 1083.17 1882.33 1112.75C1958.73 1132.04 2030.88 1150.26 2080.27 1181.55C2135.14 1216.3 2156.66 1263.64 2147.99 1330.52L2147.98 1330.51Z" fill="#E8A274"/>
<path d="M2188.82 1314.42L2187.03 1314.27C2206.49 1164.1 2073.69 1132.98 1919.93 1096.94C1860.09 1082.92 1798.21 1068.42 1740.58 1045.94C1675.08 1020.39 1625.65 988.235 1589.46 947.627C1487.93 833.699 1381.15 787.222 1277.89 742.282C1226.38 719.863 1173.12 696.677 1120.8 665.376C1062.07 630.238 1011 588.465 964.646 537.679C923.471 492.561 905.736 452.744 908.82 412.358C911.621 375.76 930.543 342.931 952.453 304.922C984.844 248.729 1021.56 185.042 1014.47 90.3089C999.899 -104.482 870.736 -171.022 815.585 -199.437C800.229 -207.345 791.772 -211.707 791.892 -215.605L793.699 -215.567C793.603 -212.478 803.236 -207.514 816.561 -200.646C843.995 -186.511 889.917 -162.858 931.254 -118.048C981.399 -63.6964 1010 6.37606 1016.27 90.2317C1023.39 185.321 986.573 249.186 954.091 305.534C911.037 380.228 877.025 439.226 966.103 536.831C1069.21 649.809 1175.73 696.176 1278.75 741.014C1330.53 763.55 1384.06 786.851 1436.2 818.282C1494.65 853.511 1545.26 895.55 1590.92 946.793C1671.52 1037.23 1803.76 1068.22 1920.43 1095.56C1996.93 1113.49 2069.19 1130.42 2119.51 1161.69C2146.44 1178.42 2165.17 1197.97 2176.76 1221.46C2189.6 1247.49 2193.55 1277.9 2188.81 1314.42H2188.82Z" fill="#E8A274"/>
<path d="M2229.67 1298.33L2227.88 1298.18C2237.11 1226.97 2214.77 1177.58 2157.58 1142.76C2106.5 1111.65 2034.1 1096 1957.45 1079.43C1897.62 1066.49 1835.75 1053.11 1780.27 1031.49C1717.39 1006.98 1672.09 975.102 1641.76 934.032C1551.36 811.598 1442.54 771.776 1327.32 729.617C1221.14 690.764 1111.34 650.585 1015.01 540.455C977.103 497.11 960.97 458.71 964.241 419.597C967.205 384.17 985.988 350.801 1005.87 315.466C1038.54 257.432 1075.55 191.654 1063.54 91.0318C1038.58 -118.087 880.421 -183.682 828.445 -205.234C814.795 -210.897 809.253 -213.287 809.325 -215.61L811.132 -215.572C811.084 -214.063 819.512 -210.564 829.277 -206.516C857.229 -194.926 909.259 -173.345 958.343 -128.039C1018.64 -72.3807 1054.64 1.28215 1065.34 90.8969C1077.4 191.9 1040.27 257.861 1007.51 316.059C966.699 388.575 934.464 445.852 1016.48 539.626C1112.52 649.434 1222.1 689.525 1328.06 728.301C1383.54 748.6 1440.91 769.593 1494.2 800.297C1522.86 816.812 1548.23 834.798 1571.75 855.29C1598.09 878.244 1621.5 903.762 1643.31 933.295C1710.71 1024.58 1836.38 1051.75 1957.91 1078.03C2034.74 1094.64 2107.31 1110.33 2158.67 1141.6C2186.21 1158.38 2205.4 1178.24 2217.29 1202.3C2230.53 1229.06 2234.58 1260.48 2229.67 1298.33H2229.67Z" fill="#E8A274"/>
<path d="M2270.52 1282.25L2268.72 1282.1C2278.29 1208.29 2255.42 1157.61 2196.76 1122.61C2144.65 1091.52 2071.85 1077.11 1994.79 1061.84C1935.08 1050.02 1873.33 1037.8 1820.05 1017.03C1791.26 1005.81 1767.49 993.15 1747.35 978.336C1724.67 961.632 1707.23 942.693 1694.06 920.423C1617.1 790.345 1501.73 755.564 1379.59 718.745C1269.51 685.564 1155.69 651.251 1065.37 543.221C1030.58 501.616 1016.01 464.614 1019.52 426.773C1022.69 392.527 1040.54 360.204 1059.43 325.992C1092.44 266.204 1129.85 198.444 1112.61 91.75C1095.84 -11.9901 1034.72 -148.656 838.723 -210.593C828.82 -213.721 826.723 -214.425 826.766 -215.61L828.573 -215.572C828.573 -215.687 828.524 -215.769 828.506 -215.793C829.049 -215.205 833.838 -213.687 839.392 -211.933C864.488 -204 923.26 -185.432 981.326 -139.995C1013.98 -114.443 1041.37 -84.1446 1062.74 -49.9469C1088.52 -8.66965 1105.9 38.9402 1114.4 91.5717C1122.12 139.321 1119.53 183.644 1106.47 227.071C1095.06 265.042 1077.78 296.329 1061.08 326.584C1022.27 396.888 991.603 452.416 1066.87 542.431C1156.87 650.075 1270.42 684.301 1380.22 717.405C1441.97 736.017 1500.29 753.598 1554.36 783.309C1583.42 799.28 1608.44 817.246 1630.83 838.229C1655.88 861.714 1677.1 888.398 1695.69 919.82C1750.19 1011.94 1874.76 1036.61 1995.22 1060.46C2147.67 1090.64 2291.66 1119.16 2270.52 1282.26V1282.25Z" fill="#E8A274"/>
<path d="M2311.37 1266.15L2309.57 1266C2319.47 1189.56 2296.11 1137.61 2236.05 1102.52C2182.94 1071.5 2109.76 1058.36 2032.28 1044.46C1972.76 1033.78 1911.22 1022.74 1860.13 1002.8C1832.56 992.037 1810.27 979.656 1792.02 964.948C1771.47 948.398 1756.55 929.381 1746.36 906.803C1684.64 769.858 1562.85 740.34 1433.91 709.087C1319.23 681.294 1200.66 652.552 1115.73 545.978C1083.93 506.069 1070.87 470.45 1074.66 433.881C1078.08 400.806 1095.09 369.558 1113.1 336.469C1146.55 275.028 1184.45 205.394 1161.69 92.4487C1133.69 -46.3903 1049.07 -122.559 983.018 -162.01C911.428 -204.762 845.602 -214.81 844.946 -214.906L845.271 -216.328C845.434 -216.304 862.096 -213.812 887.404 -206.049C910.741 -198.887 946.452 -185.644 984.024 -163.215C1026.25 -138.005 1062.19 -106.574 1090.84 -69.7831C1126.63 -23.8119 1151.07 30.6943 1163.48 92.2174C1173.66 142.748 1172.55 189.263 1160.06 234.42C1149.15 273.881 1130.89 307.437 1114.77 337.042C1077.72 405.1 1048.45 458.86 1117.26 545.197C1201.83 651.318 1320.08 679.978 1434.44 707.699C1499.83 723.549 1561.6 738.518 1616.17 767.063C1645.5 782.403 1669.97 800.244 1690.98 821.603C1714.47 845.482 1733.15 873.189 1748.08 906.307C1790.09 999.512 1913.42 1021.64 2032.68 1043.04C2069.9 1049.72 2108.38 1056.63 2143.3 1065.59C2182.45 1075.64 2213.14 1087.33 2237.12 1101.34C2265.89 1118.15 2285.94 1138.58 2298.44 1163.8C2312.41 1192.02 2316.64 1225.49 2311.38 1266.14L2311.37 1266.15Z" fill="#E8A274"/>
<path d="M2338.14 1249.52L2336.34 1249.41C2343.44 1174.57 2319.29 1123.22 2260.32 1087.82C2208.26 1056.56 2134.44 1041.96 2063.05 1027.84C2005.84 1016.52 1946.69 1004.83 1897.76 984.606C1871.36 973.7 1850.04 961.28 1832.6 946.635C1812.98 930.172 1798.73 911.372 1789.04 889.145C1729.91 754.769 1611.35 724.325 1485.83 692.094C1430.56 677.901 1373.42 663.226 1319.51 639.154C1258.62 611.964 1210.13 576.074 1171.28 529.438C1137.87 489.52 1123.49 453.5 1126.03 416.088C1128.33 382.194 1143.71 351.105 1161.52 315.114C1192.3 252.907 1227.19 182.396 1206.4 71.5859C1180.45 -67.494 1101.08 -146.169 1039.07 -187.682C971.915 -232.637 910.162 -244.878 909.542 -244.993L909.963 -246.401C910.12 -246.372 925.771 -243.316 949.536 -234.719C971.451 -226.791 1004.98 -212.391 1040.23 -188.791C1079.85 -162.27 1113.54 -129.774 1140.36 -92.2074C1173.87 -45.2626 1196.69 9.76887 1208.19 71.3691C1217.48 120.931 1216.4 167.008 1204.88 212.242C1194.81 251.75 1178.02 285.697 1163.2 315.645C1128.19 386.406 1100.53 442.3 1172.78 528.633C1259.21 632.378 1374.69 662.031 1486.38 690.711C1612.35 723.058 1731.32 753.607 1790.75 888.663C1830.74 980.394 1949.06 1003.8 2063.49 1026.43C2135.05 1040.58 2209.06 1055.22 2261.41 1086.65C2289.62 1103.59 2309.58 1123.94 2322.41 1148.88C2336.78 1176.79 2341.93 1209.72 2338.15 1249.51L2338.14 1249.52Z" fill="#E8A274"/>
<path d="M2364.92 1232.89L2363.11 1232.82C2367.35 1160.57 2341.7 1108.31 2284.69 1073.07C2233.73 1041.57 2162.72 1026.1 2094.05 1011.13C2039.19 999.175 1982.47 986.813 1935.67 966.331C1910.43 955.285 1890.05 942.837 1873.37 928.278C1854.62 911.921 1841 893.348 1831.72 871.507C1775.58 739.338 1660.01 707.935 1537.65 674.687C1483.9 660.08 1428.32 644.981 1375.16 620.875C1315.03 593.607 1266.51 558.296 1226.83 512.918C1150.65 425.78 1176.83 367.288 1209.98 293.24C1238.09 230.435 1269.95 159.249 1251.12 50.7427C1227.21 -88.5397 1153.13 -169.721 1095.21 -213.292C1032.48 -260.478 974.718 -274.921 974.14 -275.066L974.67 -276.449C975.248 -276.309 1033.41 -261.76 1096.45 -214.347C1133.45 -186.511 1164.89 -152.959 1189.89 -114.612C1221.12 -66.6987 1242.33 -11.1322 1252.92 50.5451C1261.34 99.0657 1260.3 144.613 1249.75 189.799C1240.54 229.264 1225.21 263.51 1211.68 293.727C1178.71 367.385 1152.66 425.563 1228.32 512.089C1316.64 613.106 1429.29 643.713 1538.24 673.318C1600.74 690.301 1659.77 706.34 1711.04 734.957C1738.55 750.306 1761.4 767.935 1780.91 788.846C1802.67 812.162 1819.85 839.049 1833.44 871.044C1871.73 961.194 1985 985.873 2094.54 1009.74C2163.38 1024.75 2234.57 1040.25 2285.81 1071.94C2313.44 1089.02 2333.26 1109.3 2346.42 1133.95C2361.17 1161.58 2367.22 1193.94 2364.93 1232.9L2364.92 1232.89Z" fill="#E8A274"/>
<path d="M2391.69 1216.24L2389.88 1216.22C2393.19 1058.76 2256.93 1026.1 2125.14 994.524C2072.57 981.926 2018.2 968.9 1973.51 948.133C1949.41 936.938 1929.97 924.451 1914.06 909.96C1896.2 893.69 1883.21 875.328 1874.38 853.834C1821 723.935 1708.37 691.559 1589.14 657.284C1536.91 642.272 1482.91 626.749 1430.56 602.609C1371.25 575.265 1322.78 540.513 1282.38 496.363C1202.44 409.014 1227.07 348.016 1258.25 270.787C1283.78 207.538 1312.73 135.851 1295.83 29.8606C1273.97 -109.624 1205.18 -193.306 1151.33 -238.945C1093.03 -288.357 1039.27 -305.013 1038.73 -305.177L1039.37 -306.531C1039.91 -306.367 1094.06 -289.591 1152.65 -239.938C1187.04 -210.791 1216.22 -176.179 1239.39 -137.056C1268.34 -88.1735 1287.94 -32.0721 1297.62 29.6774C1305.18 77.0559 1304.18 121.977 1294.56 167.003C1286.16 206.324 1272.24 240.806 1259.96 271.225C1228.94 348.059 1204.43 408.744 1283.82 495.501C1373.82 593.848 1483.59 625.4 1589.74 655.916C1650.88 673.491 1708.64 690.094 1758.32 718.764C1784.95 734.133 1807.03 751.665 1825.8 772.359C1846.71 795.41 1863.17 821.911 1876.09 853.376C1912.55 942.066 2020.88 968.027 2125.65 993.131C2191.75 1008.97 2260.09 1025.34 2310.22 1057.26C2337.25 1074.47 2356.94 1094.68 2370.41 1119.04C2385.52 1146.37 2392.48 1178.16 2391.68 1216.24L2391.69 1216.24Z" fill="#E8A274"/>
<path d="M2416.65 1199.63C2413.84 1045.76 2282.96 1011.31 2156.39 977.994C2106.07 964.745 2054.03 951.049 2011.41 929.998C1988.45 918.654 1969.93 906.124 1954.78 891.695C1937.79 875.502 1925.45 857.347 1917.06 836.186C1866.4 708.465 1761.64 676.624 1640.34 639.756C1589.67 624.354 1537.27 608.426 1485.76 584.277C1427.33 556.879 1378.98 522.715 1337.92 479.833C1299.34 439.529 1280.82 401.881 1279.65 361.351C1278.57 324.44 1291.47 288.902 1306.4 247.746C1329.44 184.237 1355.56 112.256 1340.55 9.01232C1320.72 -130.675 1257.24 -216.863 1207.47 -264.564C1153.59 -316.208 1103.81 -335.075 1103.32 -335.259L1104.08 -336.569C1104.58 -336.382 1154.72 -317.379 1208.86 -265.49C1240.63 -235.032 1267.57 -199.359 1288.92 -159.46C1315.59 -109.605 1333.57 -52.9782 1342.35 8.84848C1349.05 54.9932 1348.08 99.1765 1339.38 143.914C1331.77 182.989 1319.21 217.606 1308.13 248.15C1279 328.449 1255.99 391.876 1339.36 478.956C1430.87 574.542 1542.5 608.474 1640.98 638.407C1700.84 656.605 1757.38 673.79 1805.53 702.533C1831.32 717.925 1852.63 735.371 1870.68 755.873C1890.76 778.668 1906.5 804.798 1918.77 835.757C1953.4 923.044 2052.27 949.073 2156.95 976.63C2220.27 993.3 2285.74 1010.53 2334.71 1042.68C2361.13 1060.02 2380.67 1080.15 2394.45 1104.21C2409.92 1131.22 2417.78 1162.43 2418.46 1199.61L2416.65 1199.63V1199.63Z" fill="#E8A274"/>
<path d="M2443.42 1183.04C2434.5 1032.86 2309.09 996.606 2187.81 961.546C2139.7 947.642 2089.96 933.261 2049.38 911.912C2027.53 900.413 2009.91 887.835 1995.52 873.459C1979.39 857.338 1967.68 839.372 1959.73 818.528C1911.77 692.88 1809.56 660.051 1691.21 622.031C1642.11 606.263 1591.35 589.954 1540.74 565.814C1483.26 538.392 1435.08 504.86 1393.47 463.289C1352.91 422.778 1332.89 384.44 1330.47 342.638C1328.25 304.512 1340.36 267.206 1354.39 224.011C1375.02 160.454 1398.41 88.4151 1385.26 -11.8599C1367.49 -151.701 1309.33 -240.371 1263.67 -290.135C1214.21 -344.044 1168.35 -365.167 1167.89 -365.374L1168.78 -366.632C1169.24 -366.425 1215.37 -345.191 1265.06 -291.066C1294.22 -259.297 1318.91 -222.569 1338.43 -181.894C1362.83 -131.07 1379.19 -73.9131 1387.06 -12.0045C1392.94 32.8053 1391.98 76.1307 1384.16 120.434C1377.32 159.138 1366.07 193.799 1356.14 224.377C1328.84 308.469 1307.27 374.888 1394.88 462.387C1487.71 555.111 1596.18 589.954 1691.88 620.691C1750.55 639.54 1805.97 657.337 1852.64 686.176C1904.83 718.427 1939.41 760.35 1961.45 818.109C1994.26 904.061 2088.56 931.324 2188.41 960.191C2248.93 977.685 2311.49 995.772 2359.28 1028.14C2385.07 1045.61 2404.44 1065.65 2418.51 1089.4C2434.32 1116.09 2443.06 1146.7 2445.22 1182.98L2443.41 1183.04L2443.42 1183.04Z" fill="#E8A274"/>
<path d="M2470.2 1166.45C2455.2 1020.05 2335.34 982.003 2219.42 945.208C2171.38 929.96 2126 915.555 2087.43 893.897C2066.67 882.239 2049.94 869.603 2036.3 855.266C2021.01 839.203 2009.93 821.41 2002.41 800.87C1957.12 677.169 1857.3 643.304 1741.71 604.089C1648.67 572.527 1543.22 536.754 1449.03 446.749C1406.38 405.992 1384.79 366.879 1381.11 323.664C1377.75 284.189 1389.09 244.96 1402.24 199.538C1420.57 136.165 1441.35 64.3379 1430 -32.7226C1414.26 -172.819 1361.36 -264.015 1319.75 -315.851C1274.71 -371.967 1232.91 -395.254 1232.49 -395.485L1233.52 -396.676C1233.94 -396.444 1276.04 -372.989 1321.28 -316.632C1347.83 -283.552 1370.27 -245.769 1387.97 -204.318C1410.09 -152.525 1424.84 -94.8336 1431.8 -32.8527C1443.18 64.4392 1422.36 136.386 1404 199.866C1378.47 288.107 1358.3 357.809 1450.42 445.823C1544.33 535.559 1649.57 571.26 1742.41 602.759C1858.42 642.118 1958.62 676.108 2004.14 800.465C2035.15 885.165 2124.98 913.68 2220.08 943.868C2336.52 980.828 2456.91 1019.04 2472 1166.33L2470.2 1166.45V1166.45Z" fill="#E8A274"/>
<path d="M2496.97 1149.86C2475.96 1007.37 2361.71 967.536 2251.23 929.02C2205.42 913.049 2162.14 897.96 2125.54 875.974C2105.85 864.148 2090 851.439 2077.09 837.131C2062.64 821.116 2052.16 803.478 2045.08 783.217C2002.44 661.323 1904.8 626.359 1791.74 585.872C1701.66 553.616 1599.56 517.057 1504.57 430.214C1459.6 389.1 1436.34 349.062 1431.36 304.218C1426.81 263.196 1437.42 221.779 1449.71 173.827C1465.81 111.008 1484.06 39.8028 1474.71 -53.5806C1460.66 -193.856 1413.07 -287.562 1375.63 -341.471C1335.1 -399.832 1297.45 -425.346 1297.07 -425.596L1298.23 -426.705C1298.61 -426.454 1336.51 -400.762 1377.21 -342.169C1401.1 -307.779 1421.28 -268.936 1437.18 -226.719C1457.06 -173.957 1470.29 -115.745 1476.51 -53.6963C1485.88 39.8895 1467.6 111.201 1451.48 174.116C1426.73 270.71 1408.85 340.503 1505.94 429.259C1600.66 515.867 1702.57 552.359 1792.48 584.552C1849.11 604.826 1902.59 623.978 1946.49 653.096C1995.3 685.463 2027.18 726.687 2046.82 782.827C2076.03 866.364 2161.49 896.153 2251.96 927.695C2306.76 946.803 2363.44 966.562 2408.72 999.334C2433.19 1017.04 2452.18 1036.87 2466.79 1059.96C2483.24 1085.96 2493.7 1115.31 2498.76 1149.69L2496.97 1149.86V1149.86Z" fill="#E8A274"/>
<path d="M2523.75 1133.27C2496.8 994.818 2388.26 953.232 2283.29 913.015C2196.96 879.936 2115.41 848.687 2087.75 765.554C2047.74 645.294 1956.61 610.879 1841.24 567.308C1754.21 534.441 1655.57 497.187 1560.13 413.669C1512.75 372.209 1487.76 331.192 1481.5 284.589C1475.77 241.905 1485.67 198.17 1497.13 147.528C1511.18 85.4752 1527.1 15.1473 1519.43 -74.4482C1507.4 -214.926 1465.12 -311.143 1431.76 -367.119C1395.65 -427.722 1362 -455.457 1361.66 -455.726L1362.95 -456.739C1363.28 -456.464 1397.15 -428.555 1433.39 -367.736C1454.66 -332.039 1472.59 -292.14 1486.68 -249.143C1504.29 -195.412 1515.91 -136.67 1521.24 -74.5446C1528.92 15.2244 1512.98 85.6535 1498.92 147.789C1475.86 249.63 1459.21 323.211 1561.47 412.7C1656.68 496.007 1755.15 533.197 1842.03 566.007C1897.85 587.086 1950.57 607 1993.21 636.316C2040.46 668.793 2071.06 709.742 2089.51 765.193C2116.96 847.68 2198.14 878.788 2284.09 911.723C2336 931.613 2389.67 952.182 2433.64 985.121C2457.41 1002.93 2476.17 1022.63 2491.02 1045.37C2507.76 1070.99 2519.05 1099.67 2525.55 1133.05L2523.76 1133.28L2523.75 1133.27Z" fill="#E8A274"/>
<path d="M2550.52 1116.68C2517.75 982.456 2415.01 939.145 2315.64 897.261C2233.7 862.721 2156.31 830.099 2130.42 747.892C2093 629.063 2003.46 593.429 1890.09 548.315C1806.23 514.942 1711.17 477.11 1615.67 397.124C1565.71 355.279 1538.92 313.168 1531.35 264.604C1524.42 220.083 1533.64 173.808 1544.31 120.222C1556.46 59.2728 1570.22 -9.80696 1564.14 -95.3205C1554.12 -236.005 1517.14 -334.724 1487.88 -392.772C1456.2 -455.62 1426.53 -485.572 1426.24 -485.871L1427.65 -486.777C1427.94 -486.478 1457.77 -456.358 1489.56 -393.317C1508.21 -356.309 1523.89 -315.355 1536.16 -271.586C1551.49 -216.887 1561.52 -157.61 1565.94 -95.4072C1572.03 -9.73946 1558.25 59.4221 1546.09 120.444C1524.65 228.059 1509.16 305.808 1616.97 396.117C1712.24 475.92 1807.15 513.689 1890.9 547.014C1948.49 569.934 1998.24 589.732 2039.73 619.299C2085.52 651.925 2114.9 692.672 2132.17 747.53C2157.85 829.111 2234.9 861.589 2316.48 895.974C2365.45 916.62 2416.1 937.969 2458.7 971.049C2481.74 988.938 2500.26 1008.5 2515.32 1030.86C2532.3 1056.08 2544.4 1084.06 2552.3 1116.39L2550.52 1116.67V1116.68Z" fill="#E8A274"/>
<path d="M2577.3 1100.09C2538.87 970.317 2437.63 923.319 2348.32 881.849C2308.78 863.487 2271.43 846.148 2240.44 822.991C2205.5 796.885 2184.11 767.415 2173.1 730.239C2138.26 612.595 2049.96 575.617 1938.17 528.792C1857.59 495.048 1766.26 456.797 1671.23 380.585C1618.52 338.305 1589.82 294.98 1580.94 244.232C1572.78 197.678 1581.36 148.622 1591.29 91.8174C1601.68 32.3426 1613.47 -35.0649 1608.87 -116.183C1600.89 -257.07 1569.21 -358.305 1544.03 -418.416C1516.77 -483.51 1491.1 -515.688 1490.85 -516.006L1492.36 -516.792C1492.62 -516.474 1518.42 -484.141 1545.75 -418.878C1561.79 -380.565 1575.23 -338.555 1585.68 -294.01C1598.74 -238.338 1607.15 -178.53 1610.68 -116.251C1615.28 -35.0022 1603.48 32.4775 1593.08 92.015C1573.16 205.982 1558.77 288.329 1672.52 379.558C1767.35 455.611 1858.55 493.809 1939.01 527.506C1996.21 551.462 2045.62 572.156 2086.09 602.05C2130.55 634.889 2158.76 675.516 2174.87 729.897C2198.81 810.755 2271.88 844.678 2349.23 880.596C2395.25 901.96 2442.83 924.051 2484.01 957.223C2530.72 994.842 2561.81 1041.47 2579.07 1099.75L2577.31 1100.09L2577.3 1100.09Z" fill="#E8A274"/>
<path d="M2604.08 1083.51C2560.21 958.475 2465.22 909.82 2381.41 866.894C2343.76 847.612 2308.22 829.405 2278.96 805.747C2246.07 779.145 2225.99 749.54 2215.77 712.576C2183.49 595.824 2100.32 559.226 1985.23 508.575C1908.11 474.638 1820.71 436.175 1726.78 364.04C1697.44 341.51 1675.39 318.825 1659.38 294.681C1644.71 272.575 1635.16 249.268 1630.19 223.427C1620.8 174.618 1628.77 122.516 1638 62.1932C1646.82 4.61227 1656.8 -60.6554 1653.58 -137.041C1647.63 -278.136 1621.26 -381.876 1600.17 -444.054C1577.34 -511.394 1555.66 -545.799 1555.44 -546.141L1557.05 -546.797C1557.27 -546.454 1579.04 -511.915 1601.91 -444.43C1615.35 -404.811 1626.53 -361.745 1635.16 -316.425C1645.95 -259.784 1652.75 -199.446 1655.38 -137.085C1658.61 -60.5831 1648.61 4.74239 1639.79 62.3763C1621.28 183.35 1607.91 270.758 1728.03 363.009C1821.79 435.009 1909.08 473.428 1986.09 507.318C2043.23 532.46 2092.58 554.175 2132.18 584.489C2175.46 617.612 2202.58 658.214 2217.53 712.272C2239.75 792.629 2309.03 828.114 2382.38 865.685C2425.4 887.719 2469.88 910.504 2509.57 943.7C2554.65 981.411 2586.13 1027.02 2605.82 1083.13L2604.08 1083.52L2604.08 1083.51Z" fill="#E8A274"/>
<path d="M2630.86 1066.92C2581.88 947.011 2493.23 896.837 2415.02 852.567C2379.13 832.258 2345.24 813.073 2317.64 788.832C2286.7 761.651 2267.88 731.805 2258.44 694.913C2228.7 578.686 2145.78 540.426 2031.02 487.467C1957.59 453.583 1874.36 415.178 1782.33 347.5C1751.33 324.7 1727.92 301.471 1710.79 276.493C1695.1 253.62 1684.74 229.302 1679.1 202.136C1668.47 150.82 1675.89 95.3885 1684.49 31.2052C1691.89 -24.0191 1700.27 -86.6121 1698.3 -157.909C1694.39 -299.206 1673.32 -405.456 1656.33 -469.702C1637.92 -539.293 1620.23 -575.925 1620.06 -576.286L1621.74 -576.811C1621.91 -576.45 1639.66 -539.703 1658.09 -470.001C1675.1 -405.693 1696.19 -299.35 1700.1 -157.938C1702.08 -86.5494 1693.69 -23.9034 1686.29 31.3642C1669.04 160.073 1656.59 253.061 1783.56 346.44C1875.44 414.011 1958.58 452.373 2031.93 486.219C2147.1 539.366 2230.31 577.761 2260.22 694.629C2280.73 774.793 2343.44 810.287 2416.07 851.391C2494.51 895.786 2583.42 946.109 2632.58 1066.47L2630.87 1066.92H2630.86Z" fill="#E8A274"/>
<path d="M2657.65 1050.33C2604.03 936.066 2521.84 884.577 2449.32 839.145C2379.96 795.694 2320.07 758.171 2301.12 677.256C2273.91 561.096 2194.84 522.942 2075.14 465.187C2005.7 431.684 1927 393.713 1837.89 330.956C1805.09 307.857 1780.24 284.03 1761.93 258.117C1745.17 234.396 1733.95 208.941 1727.65 180.3C1715.76 126.198 1722.7 67.1187 1730.75 -1.29602C1736.91 -53.6384 1743.88 -112.964 1743.02 -178.771C1741.15 -320.275 1725.38 -429.027 1712.48 -495.346C1698.51 -567.182 1684.81 -606.045 1684.68 -606.43L1686.41 -606.826C1686.55 -606.44 1700.28 -567.491 1714.27 -495.567C1727.18 -429.201 1742.95 -320.372 1744.82 -178.786C1745.69 -112.901 1738.71 -53.5371 1732.55 -1.16107C1716.4 136.092 1704.74 235.264 1839.08 329.871C1928.06 392.541 2006.69 430.479 2076.06 463.949C2134.47 492.127 2184.91 516.465 2223.44 547.997C2243.76 564.624 2259.81 582.431 2272.51 602.446C2286.29 624.161 2296.23 648.547 2302.89 676.991C2321.72 757.372 2381.36 794.74 2450.43 838.008C2523.13 883.555 2605.54 935.184 2659.34 1049.83L2657.65 1050.33H2657.65Z" fill="#E8A274"/>
<path d="M2684.43 1033.75C2626.88 925.863 2551.28 873.367 2484.57 827.049C2418.29 781.029 2361.05 741.285 2343.78 659.593C2319.13 542.923 2238.7 502.508 2116.96 441.332C2051.96 408.667 1978.28 371.64 1893.43 314.416C1858.7 290.989 1832.31 266.493 1812.75 239.524C1794.85 214.849 1782.76 188.126 1775.79 157.837C1762.63 100.632 1769.2 37.5427 1776.8 -35.5033C1781.88 -84.3661 1787.65 -139.749 1787.73 -199.629C1787.91 -341.321 1777.46 -452.579 1768.65 -520.96C1759.11 -595.052 1749.4 -636.161 1749.3 -636.57L1751.08 -636.84C1751.17 -636.435 1760.9 -595.278 1770.44 -521.134C1779.26 -452.714 1789.72 -341.398 1789.53 -199.629C1789.46 -139.692 1783.69 -84.2745 1778.6 -35.3828C1763.33 111.336 1752.3 217.346 1894.59 313.317C1979.35 370.474 2052.97 407.471 2117.93 440.113C2178.04 470.32 2229.95 496.407 2268.42 528.836C2288.64 545.882 2304.46 564.021 2316.79 584.291C2330.1 606.171 2339.52 630.725 2345.57 659.357C2362.72 740.533 2419.74 780.123 2485.75 825.96C2552.6 872.379 2628.37 924.996 2686.09 1033.18L2684.43 1033.75L2684.43 1033.75Z" fill="#E8A274"/>
<path d="M2711.22 1017.16C2650.83 916.726 2581.98 863.733 2521.24 816.972C2489.05 792.201 2458.66 768.803 2435.12 741.776C2409.08 711.882 2393.62 680.152 2386.46 641.925C2364.39 523.997 2285.8 483.086 2155.61 415.308C2095.71 384.122 2027.81 348.773 1948.99 297.871C1912.17 274.088 1884.12 248.84 1863.24 220.676C1844.15 194.926 1831.15 166.787 1823.52 134.642C1809.11 73.9621 1815.41 6.47755 1822.71 -71.6577C1827.09 -118.554 1831.62 -167.051 1832.46 -220.497C1836.76 -492.064 1814.18 -664.99 1813.95 -666.705L1815.74 -666.86C1815.97 -665.144 1838.56 -492.131 1834.26 -220.477C1833.42 -166.983 1828.89 -118.467 1824.5 -71.5468C1809.82 85.6875 1799.21 199.288 1950.12 296.753C2028.88 347.611 2096.73 382.937 2156.6 414.103C2222.14 448.219 2273.9 475.168 2312.79 508.783C2354.52 544.85 2377.79 585.853 2388.25 641.718C2403.76 724.543 2456.15 764.875 2522.49 815.936C2551.72 838.437 2584.86 863.945 2617.4 895.753C2654.65 932.158 2685.87 971.666 2712.85 1016.54L2711.22 1017.17V1017.16Z" fill="#E8A274"/>
<path d="M2738.01 1000.58C2676.52 909.246 2614.7 856.62 2560.16 810.186C2526.73 781.733 2497.87 757.159 2475.12 728.499C2450.16 697.058 2435.55 663.94 2429.13 624.267C2409.7 504.103 2331.52 462.243 2189.58 386.247C2135.85 357.481 2074.95 324.874 2004.53 281.331C1965.44 257.158 1935.61 231.056 1913.32 201.538C1892.97 174.579 1879.05 144.834 1870.76 110.598C1855.11 46.0148 1861.31 -26.3036 1868.49 -110.039C1872.06 -151.769 1875.76 -194.916 1877.17 -241.36C1885.41 -513.312 1878.65 -695.033 1878.58 -696.841L1880.39 -696.884C1880.46 -695.082 1887.21 -513.322 1878.97 -241.326C1877.56 -194.849 1873.87 -151.682 1870.29 -109.938C1855.81 59.0076 1845.35 181.071 2005.64 280.189C2076.01 323.702 2136.88 356.295 2190.59 385.047C2260.81 422.642 2316.27 452.339 2356.28 487.539C2398.66 524.836 2421.69 566.947 2430.93 624.079C2444.8 709.858 2496.29 753.694 2561.48 809.193C2587.62 831.453 2617.25 856.682 2647.42 887.246C2682.01 922.283 2712.16 959.131 2739.6 999.893L2738.01 1000.58V1000.58Z" fill="#E8A274"/>
<path d="M2764.8 983.989C2705.17 904.447 2648.57 851.57 2603.09 809.078C2534.01 744.538 2484.1 697.911 2471.81 606.6C2455.14 482.884 2375.36 439.395 2216.41 352.754C2170.67 327.819 2118.82 299.553 2060.09 264.787C2018.52 240.18 1986.76 213.11 1962.98 182.04C1941.3 153.702 1926.41 122.136 1917.49 85.5285C1900.67 16.5355 1906.97 -61.1129 1914.27 -151.017C1917.16 -186.636 1920.15 -223.465 1921.89 -262.222C1934.09 -534.56 1943.15 -725.072 1943.23 -726.966L1945.04 -726.913C1944.95 -725.019 1935.9 -534.512 1923.7 -262.174C1921.96 -223.393 1918.97 -186.554 1916.08 -150.925C1901.85 24.2753 1890.62 162.656 2061.17 263.625C2119.87 298.377 2171.7 326.633 2217.44 351.563C2295.05 393.867 2356.35 427.284 2398.52 464.662C2420.37 484.026 2436.8 504.185 2448.76 526.282C2461.35 549.54 2469.48 575.761 2473.61 606.451C2485.84 697.314 2535.6 743.801 2604.47 808.143C2649.99 850.673 2706.64 903.603 2766.36 983.252L2764.81 983.994L2764.8 983.989Z" fill="#E8A274"/>
<path d="M2791.6 967.401C2739.16 904.288 2693.99 858.866 2654.13 818.788C2613.85 778.277 2582.03 746.282 2558.41 711.357C2533.02 673.824 2519.48 636.065 2514.48 588.937C2500.8 459.867 2416.46 413.708 2231.67 312.565C2197.17 293.683 2158.07 272.281 2115.64 248.242C2031.65 200.642 1983.35 140.574 1963.65 59.2053C1945.74 -14.8142 1952.43 -98.3519 1960.18 -195.08C1962.46 -223.47 1964.81 -252.829 1966.61 -283.09C1982.78 -555.814 2007.64 -755.111 2007.88 -757.091L2009.68 -756.947C2009.43 -754.966 1984.58 -555.703 1968.41 -283.022C1966.61 -252.752 1964.26 -223.388 1961.99 -194.988C1946.81 -5.59009 1934.82 144.006 2116.69 247.066C2159.1 271.1 2198.19 292.498 2232.69 311.375C2417.96 412.782 2502.52 459.062 2516.28 588.817C2526.85 688.465 2575.29 737.179 2655.55 817.892C2695.42 857.993 2740.62 903.439 2793.1 966.606L2791.6 967.406V967.401Z" fill="#E8A274"/>
<path d="M2818.39 950.813C2783.32 912.586 2752.11 880.191 2724.57 851.608C2670.55 795.545 2631.52 755.039 2604.11 713.275C2575.41 669.549 2561.37 627.077 2557.15 571.269C2546.81 434.295 2459.67 387.312 2226.8 261.746C2208.99 252.141 2190.58 242.213 2171.19 231.702C2081.49 183.056 2030.01 119.384 2009.19 31.3159C2000.57 -5.15165 1996.88 -46.0433 1997.56 -97.388C1998.18 -143.166 2002.2 -191.6 2006.45 -242.883C2008.09 -262.714 2009.79 -283.22 2011.32 -303.953C2031.47 -577.052 2072.13 -785.14 2072.54 -787.207L2074.32 -786.98C2073.91 -784.913 2033.27 -576.888 2013.12 -303.866C2011.59 -283.128 2009.9 -262.617 2008.25 -242.786C1991.2 -37.2771 1977.74 125.046 2172.21 230.507C2191.59 241.018 2210 250.946 2227.81 260.55C2341.23 321.707 2423.17 365.89 2475.84 410.777C2503.07 433.987 2521.94 456.628 2535.23 482.035C2548.6 507.587 2556.36 536.749 2558.96 571.187C2567.66 686.393 2620.57 741.313 2726 850.73C2753.54 879.318 2784.76 911.723 2819.85 949.964L2818.39 950.822V950.813Z" fill="#E8A274"/>
<path d="M2845.19 934.225C2758.13 848.013 2695.23 785.723 2656.54 729.598C2637.26 701.627 2624.1 675.583 2615.14 647.636C2606.26 619.968 2601.4 590.089 2599.83 553.597C2596.78 482.479 2572.1 433.659 2514.66 385.095C2456.07 335.558 2362.63 285.645 2226.75 215.153C2176.25 188.95 2137.67 158.078 2108.82 120.772C2082.72 87.0077 2064.93 48.2847 2054.45 2.39061C2034.79 -83.7157 2043.75 -185.277 2053.25 -292.801C2054.18 -303.384 2055.12 -314.059 2056.05 -324.815C2068.99 -467.702 2090.37 -593.997 2106.02 -674.787C2122.98 -762.325 2137.06 -816.783 2137.2 -817.323L2138.97 -817.029C2138.84 -816.489 2124.76 -762.06 2107.81 -674.556C2092.16 -593.794 2070.79 -467.543 2057.85 -324.714C2056.93 -313.957 2055.99 -303.283 2055.05 -292.699C2036.16 -78.718 2019.85 106.083 2227.74 213.943C2363.72 284.493 2457.25 334.454 2515.98 384.107C2573.75 432.951 2598.57 482.045 2601.64 553.554C2607.8 696.831 2667.98 756.422 2846.6 933.319L2845.2 934.225H2845.19Z" fill="#E8A274"/>
<path d="M2871.99 917.637C2771.06 826.601 2716.96 767.439 2685.23 713.434C2669.03 685.849 2658.37 659.183 2651.67 629.521C2645.64 602.836 2642.82 573.973 2642.51 535.935C2641.93 465.327 2620.16 416.889 2567.35 368.739C2510.09 316.522 2411.99 262.965 2282.31 198.618C2228.32 171.828 2187.13 139.394 2156.38 99.4513C2128.61 63.3982 2109.83 21.7017 2098.96 -28.019C2089.65 -70.6119 2086.12 -118.337 2087.84 -178.207C2089.42 -233.008 2095.45 -292.863 2100.77 -345.673C2115.77 -488.753 2142.46 -617.553 2162.21 -700.412C2183.61 -790.19 2201.69 -846.87 2201.87 -847.429L2203.62 -847.068C2203.44 -846.504 2185.37 -789.862 2163.99 -700.122C2144.25 -617.303 2117.58 -488.56 2102.58 -345.553C2079.24 -113.908 2059.09 86.1501 2283.27 197.389C2360.64 235.78 2414.54 264.319 2458.04 289.915C2506.68 318.536 2541.85 343.284 2568.72 367.785C2621.84 416.224 2643.75 464.937 2644.33 535.925C2645.45 671.863 2675.64 738.331 2873.36 916.678L2872.01 917.637H2871.99Z" fill="#E8A274"/>
<path d="M2898.78 901.044C2800.27 819.935 2743.24 757.087 2713.88 697.26C2684.28 636.942 2683.37 580.508 2685.18 518.262C2687.22 448.117 2668.34 400.055 2620 352.368C2570.11 303.153 2485.73 252.223 2337.85 182.063C2310.03 168.868 2284.87 153.692 2263.04 136.96C2242.08 120.892 2223.51 102.849 2207.84 83.3355C2178.52 46.8197 2158.33 4.57383 2146.11 -45.8167C2122.56 -142.983 2132.88 -257.543 2145.49 -366.545C2162.53 -509.818 2194.53 -641.12 2218.38 -726.045C2244.21 -818.06 2266.3 -876.962 2266.52 -877.545L2268.25 -877.125C2268.03 -876.542 2245.96 -817.679 2220.14 -725.713C2196.31 -640.835 2164.32 -509.601 2147.29 -366.41C2119.93 -129.696 2115.45 74.8729 2338.78 180.82C2486.85 251.066 2571.38 302.098 2621.41 351.457C2646.72 376.43 2664.04 402.006 2674.37 429.645C2683.99 455.409 2688 483.578 2686.99 518.291C2683.25 646.966 2691.3 728.138 2900.08 900.032L2898.79 901.039L2898.78 901.044Z" fill="#E8A274"/>
<path d="M2925.59 884.451C2873.69 845.386 2833.75 809.81 2803.49 775.68C2775.62 744.244 2755.92 713.925 2743.27 682.985C2719.28 624.277 2723.12 568.913 2727.57 504.802L2727.86 500.585C2732.68 430.874 2716.68 383.192 2672.62 335.996C2623.48 283.365 2537.37 230.786 2393.41 165.514C2365.04 152.651 2339.22 137.673 2316.69 120.998C2295.05 104.979 2275.74 86.8872 2259.31 67.2245C2228.43 30.2605 2206.83 -12.5299 2193.27 -63.6048C2181.41 -108.28 2175.93 -158.805 2176.5 -218.078C2176.97 -265.514 2181.32 -319.321 2190.2 -387.418C2209.3 -530.883 2246.61 -664.686 2274.55 -751.674C2304.82 -845.925 2330.91 -907.048 2331.18 -907.656L2332.89 -907.188C2332.63 -906.581 2306.55 -845.501 2276.3 -751.303C2248.38 -664.368 2211.09 -530.638 2192.01 -387.268C2163.35 -167.605 2155.37 55.9232 2394.3 164.251C2538.49 229.625 2624.77 282.324 2674.07 335.124C2697.49 360.213 2713.08 386.059 2721.74 414.141C2729.49 439.293 2732.01 466.782 2729.66 500.652L2729.37 504.869C2720.57 631.708 2714.21 723.352 2926.82 883.381L2925.58 884.437L2925.59 884.451Z" fill="#E8A274"/>
<path d="M2952.39 867.858C2855.63 801.198 2799.4 740.682 2775.4 677.414C2753.75 620.349 2760.4 566.185 2767.45 508.84C2768.48 500.402 2769.55 491.679 2770.54 482.917C2778.31 413.751 2765.14 366.488 2725.09 319.794C2677.75 264.608 2590.01 210.329 2448.96 148.979C2420.01 136.497 2393.54 121.75 2370.28 105.157C2347.93 89.2149 2327.88 71.0944 2310.69 51.2871C2278.7 14.4291 2255.03 -30.159 2240.35 -81.2386C2227.15 -127.152 2220.76 -178.41 2220.81 -237.938C2220.85 -287.5 2225.47 -343.215 2234.93 -408.266C2244.26 -471.703 2258.53 -539.009 2277.34 -608.32C2292.38 -663.766 2310.35 -720.614 2330.73 -777.284C2365.44 -873.771 2395.54 -937.116 2395.84 -937.743L2397.53 -937.227C2397.23 -936.6 2367.16 -873.304 2332.47 -776.87C2300.46 -687.872 2257.86 -551.655 2236.73 -408.102C2205.35 -192.227 2206.12 42.6269 2449.83 147.707C2591.14 209.172 2679.08 263.596 2726.59 318.98C2748.21 344.184 2762.1 370.266 2769.04 398.72C2775.01 423.221 2776.07 450.016 2772.35 483.048C2771.36 491.814 2770.29 500.542 2769.26 508.985C2755.24 623.169 2743.14 721.776 2953.58 866.765L2952.4 867.858H2952.39Z" fill="#E8A274"/>
<path d="M2979.19 851.261C2766.23 716.841 2785.71 613.395 2806.32 503.872C2808.69 491.269 2811.15 478.243 2813.22 465.236C2829.35 363.953 2817.87 262.29 2504.52 132.425C2446.7 108.574 2398.82 75.8368 2362.21 35.1186C2328.68 -2.16832 2303.57 -47.3203 2287.55 -99.0843C2260.6 -186.217 2258.01 -294.179 2279.64 -429.143C2289.89 -492.662 2305.77 -560.508 2326.85 -630.797C2343.71 -687.024 2363.92 -744.937 2386.91 -802.918C2426.05 -901.641 2460.16 -967.203 2460.49 -967.853L2462.16 -967.294C2461.83 -966.644 2427.75 -901.13 2388.63 -802.46C2352.52 -711.404 2304.62 -572.691 2281.44 -428.955C2233.45 -129.643 2304.6 48.3331 2505.35 131.143C2578.52 161.466 2636.49 190.483 2682.58 219.861C2725.46 247.196 2757.08 274.247 2779.23 302.56C2799.07 327.924 2811.21 354.291 2816.34 383.163C2820.57 407.023 2820.16 433.158 2815.02 465.419C2812.95 478.44 2810.49 491.477 2808.12 504.084C2787.58 613.178 2768.18 716.224 2980.31 850.124L2979.19 851.256L2979.19 851.261Z" fill="#E8A274"/>
</g>
<defs>
<clipPath id="clip0_368_95">
<rect width="2400" height="1200" fill="white"/>
</clipPath>
</defs>
</svg>
