<svg width="1728" height="912" viewBox="0 0 1728 912" fill="none" xmlns="http://www.w3.org/2000/svg">
<g opacity="0.2" clip-path="url(#clip0_182_1410)">
<path d="M899.472 1280.33L898.249 1279.95C898.305 1279.82 904.057 1266.33 903.979 1245.11C903.905 1225.53 898.717 1195.19 874.406 1161.78C841.902 1117.12 784.137 1078.16 702.721 1045.98C598.507 1004.78 455.647 974.935 278.11 957.274C243.06 953.787 211.085 948.637 183.074 941.968C156.273 935.587 132.179 927.592 111.469 918.208C73.0438 900.799 44.8336 878.329 25.2244 849.518C-11.3396 795.798 -12.0769 728.753 -12.8533 657.767C-14.0331 550.491 -15.2519 439.564 -139.461 360.15C-244.061 293.274 -291.329 237.74 -283.96 190.382C-281.379 173.805 -272.349 158.374 -256.349 143.207C-242.079 129.684 -222.508 116.649 -196.519 103.354C-148.183 78.6269 -86.2372 57.3249 -20.6562 34.7702C52.1204 9.74688 127.374 -16.1335 184.297 -47.5665C248.395 -82.9588 280.17 -120.948 281.437 -163.695L282.738 -163.666C282.391 -151.945 279.75 -140.441 274.883 -129.464C270.259 -119.029 263.476 -108.737 254.723 -98.8767C238.627 -80.7465 215.821 -63.6602 185.008 -46.6435C127.981 -15.1556 52.6669 10.7431 -20.1661 35.7921C-85.6993 58.3284 -147.598 79.6158 -195.847 104.298C-250.259 132.131 -277.849 159.535 -282.672 190.529C-289.976 237.462 -242.872 292.658 -138.68 359.278C-108.761 378.408 -85.1008 399.787 -66.359 424.635C-49.7339 446.673 -37.4418 470.876 -28.7758 498.635C-12.7449 549.997 -12.142 604.783 -11.5565 657.763C-10.7801 728.599 -10.0427 795.509 26.3478 848.976C67.2665 909.095 147.313 943.162 278.258 956.186C455.959 973.862 598.967 1003.75 703.315 1045C784.966 1077.28 842.908 1116.39 875.538 1161.25C886.343 1176.1 894.324 1191.59 899.264 1207.31C903.215 1219.88 905.241 1232.63 905.28 1245.18C905.345 1266.57 899.528 1280.2 899.472 1280.34V1280.33Z" fill="#E8A274"/>
<path d="M928.918 1267.97L927.626 1267.86C927.674 1267.48 927.851 1266.79 928.125 1265.74C938.751 1224.8 927.218 1182.54 894.775 1143.52C859.846 1101.51 801.478 1064.57 721.284 1033.74C620.011 994.809 483.58 965.618 315.784 946.975C281.801 943.198 250.75 937.847 223.498 931.064C197.413 924.574 173.909 916.553 153.632 907.22C116.018 889.907 88.1422 867.799 68.4115 839.637C31.6177 787.114 29.0933 721.996 26.4215 653.057C22.3878 548.979 18.2152 441.355 -103.201 362.264C-154.741 328.805 -192.437 297.672 -215.235 269.737C-226.074 256.453 -233.881 243.505 -238.44 231.25C-242.807 219.5 -244.338 207.981 -242.989 197.015C-241.228 182.727 -234.809 169.278 -223.367 155.905C-212.992 143.782 -198.74 132.043 -179.79 120.019C-146.036 98.5958 -102.064 79.1617 -46.4202 56.574C-23.8398 47.41 -0.248907 38.3047 22.5656 29.496C88.7885 3.93424 157.262 -22.4992 207.962 -53.152C264.66 -87.4345 292.801 -123.596 293.989 -163.702L295.29 -163.673C294.648 -141.979 286.555 -121.988 270.559 -102.554C256.323 -85.2626 236.094 -68.8099 208.721 -52.2583C157.917 -21.5432 89.3827 4.91219 23.1035 30.4959C0.293258 39.3009 -23.289 48.4026 -45.852 57.563C-101.427 80.125 -145.338 99.5298 -179.005 120.898C-217.911 145.591 -238.418 170.527 -241.693 197.129C-247.357 243.139 -201.798 296.87 -102.407 361.392C-73.1643 380.441 -49.8727 401.575 -31.2003 425.994C-14.6446 447.651 -2.18338 471.338 6.88604 498.412C23.6716 548.51 25.7275 601.641 27.7227 653.024C30.3902 721.82 32.9059 786.803 69.5306 839.08C110.696 897.844 188.999 931.782 315.954 945.887C483.875 964.544 620.432 993.769 721.822 1032.75C802.228 1063.66 860.774 1100.71 895.837 1142.89C916.947 1168.28 929.261 1195.12 932.44 1222.67C934.96 1244.52 930.918 1260.11 929.395 1265.97C929.144 1266.95 928.957 1267.66 928.918 1267.97V1267.97Z" fill="#E8A274"/>
<path d="M958.33 1255.74L957.038 1255.63C957.129 1254.89 957.337 1253.81 957.602 1252.46C965.747 1210.43 953.308 1169.99 920.626 1132.27C885.376 1091.58 827.524 1055.47 748.671 1024.93C649.48 986.517 516.509 956.824 353.463 936.675C288.338 928.629 236.758 915.395 195.765 896.218C158.954 878.996 131.408 857.243 111.556 829.722C74.5275 778.39 70.2162 715.194 65.6576 648.288C58.7829 547.422 51.6696 443.124 -66.9356 364.366C-116.902 331.417 -152.039 301.994 -174.35 274.422C-195.066 248.82 -204.083 225.566 -201.91 203.33C-200.496 188.847 -194.393 175.134 -183.246 161.418C-173.231 149.089 -159.313 136.995 -140.692 124.447C-107.056 101.779 -63.9602 81.3959 -11.1137 57.1052C13.3403 45.8681 38.6792 34.9094 63.1853 24.3134C187.056 -29.2568 304.057 -79.8528 306.546 -163.709L307.847 -163.68C305.34 -79.1752 188.002 -28.4327 63.7795 25.2913C39.2821 35.8837 13.9519 46.8387 -10.4935 58.0758C-101.053 99.7019 -194.693 142.742 -200.618 203.425C-202.765 225.401 -193.821 248.421 -173.279 273.807C-151.041 301.284 -115.996 330.625 -66.1332 363.509C-37.5717 382.474 -14.6487 403.355 3.94558 427.342C20.4319 448.611 33.0493 471.777 42.5264 498.163C60.0537 546.986 63.5627 598.458 66.9588 648.233C71.5087 714.996 75.8114 778.056 112.67 829.158C154.088 886.574 230.664 920.395 353.654 935.595C516.826 955.758 649.914 985.48 749.218 1023.94C828.27 1054.56 886.296 1090.79 921.68 1131.63C942.759 1155.96 955.628 1181.71 959.922 1208.16C963.384 1229.46 960.23 1245.71 958.886 1252.64C958.625 1253.99 958.422 1255.05 958.335 1255.75L958.33 1255.74Z" fill="#E8A274"/>
<path d="M987.741 1243.51L986.449 1243.4C986.557 1242.53 986.718 1241.46 986.904 1240.23C989.715 1221.69 998.264 1165.25 927.569 1102.18C837.651 1021.95 657.169 962.801 391.141 926.376C328.137 917.75 278.032 904.279 237.959 885.196C201.963 868.055 174.763 846.65 154.807 819.759C117.566 769.595 111.499 708.319 105.079 643.442C95.4069 545.73 85.4093 444.692 -30.6759 366.483C-78.2871 334.405 -111.863 305.76 -133.333 278.912C-153.271 253.973 -162.189 231.25 -160.597 209.446C-159.569 195.363 -154.2 181.958 -144.18 168.468C-135.198 156.371 -122.593 144.405 -105.643 131.882C-74.0191 108.518 -32.0074 86.758 12.4722 63.7198C16.3585 61.7054 20.2664 59.6836 24.1831 57.6508C49.8299 44.3334 76.071 31.6203 101.445 19.3284C158.303 -8.22217 212.008 -34.2417 251.986 -63.3379C296.708 -95.8843 318.031 -127.779 319.098 -163.717L320.399 -163.691C319.831 -144.539 313.555 -126.695 301.21 -109.139C290.133 -93.39 274.31 -78.135 252.836 -62.5065C212.763 -33.3407 159.006 -7.29551 102.091 20.2807C76.7259 32.5689 50.4935 45.2783 24.8597 58.5848C20.9431 60.6175 17.0395 62.6394 13.1488 64.6538C-31.2831 87.6663 -73.2514 109.401 -104.793 132.706C-140.055 158.762 -157.379 183.167 -159.3 209.512C-160.875 231.067 -152.031 253.567 -132.257 278.297C-110.865 305.053 -77.3719 333.618 -29.8691 365.622C-1.91917 384.452 20.6872 405.043 39.2381 428.572C55.6853 449.431 68.4892 472.063 78.3741 497.756C96.6691 545.298 101.605 595.146 106.376 643.354C112.782 708.092 118.837 769.24 155.9 819.18C197.539 875.285 272.354 909.003 391.345 925.295C536.499 945.169 657.703 972.25 751.589 1005.79C828.746 1033.34 888.272 1065.52 928.51 1101.43C958.811 1128.46 978.169 1157.53 986.054 1187.83C992.439 1212.36 989.571 1231.28 988.192 1240.38C988.006 1241.6 987.845 1242.66 987.741 1243.52V1243.51Z" fill="#E8A274"/>
<path d="M1017.15 1231.29L1015.86 1231.17C1015.93 1230.6 1016.01 1229.98 1016.09 1229.32C1018.7 1208.89 1025.63 1154.65 955.259 1092.96C866.291 1014.98 689.17 955.468 428.811 916.08C367.884 906.861 319.219 893.148 280.04 874.157C244.838 857.096 217.968 836.036 197.89 809.775C160.424 760.776 152.586 701.411 144.289 638.556C131.815 544.07 118.915 446.373 5.59304 368.592C-39.7194 337.493 -71.7855 309.689 -92.4314 283.589C-111.616 259.346 -120.429 237.172 -119.384 215.808C-118.13 190.261 -102.941 166.395 -71.5817 140.701C-43.6404 117.806 -6.17856 96.1745 33.4823 73.2718C41.9792 68.3639 50.7667 63.2911 59.4848 58.189C85.6608 42.8644 112.01 28.5361 137.488 14.6839C240.496 -41.3255 329.455 -89.6983 331.65 -163.721L332.951 -163.691C330.739 -89.0867 241.511 -40.571 138.195 15.6105C112.722 29.4554 86.3851 43.7764 60.2178 59.0937C51.4954 64.1994 42.7079 69.2722 34.211 74.1802C-5.40218 97.0572 -42.8206 118.663 -70.6838 141.493C-101.791 166.981 -116.855 190.609 -118.091 215.856C-119.128 236.978 -110.379 258.936 -91.3557 282.981C-70.7793 308.986 -38.7999 336.709 6.40846 367.743C33.6905 386.466 55.9325 406.787 74.4096 429.865C90.7919 450.325 103.752 472.421 114.036 497.415C133.064 543.664 139.422 591.846 145.577 638.439C161.764 761.058 177.058 876.875 429.037 914.999C570.938 936.47 689.561 964.339 781.612 997.834C857.529 1025.46 916.266 1057.21 956.191 1092.21C986.436 1118.72 1005.98 1147.12 1014.28 1176.65C1021.05 1200.73 1018.66 1219.41 1017.38 1229.44C1017.3 1230.09 1017.22 1230.71 1017.15 1231.29V1231.29Z" fill="#E8A274"/>
<path d="M1046.56 1219.06L1045.27 1218.95C1066.81 1043.49 742.411 951.802 466.486 905.777C407.619 895.957 360.381 881.995 322.077 863.085C287.66 846.098 261.111 825.378 240.908 799.743C203.203 751.901 193.592 694.438 183.416 633.597C168.157 542.364 152.378 448.028 41.849 370.699C-1.20804 340.577 -31.7778 313.609 -51.6038 288.256C-70.029 264.701 -78.7167 243.084 -78.1615 222.17C-77.5109 197.59 -64.2299 174.424 -36.3667 149.265C-11.5136 126.828 22.0793 105.386 57.65 82.6888C69.7903 74.9423 82.3426 66.932 94.7778 58.7277C120.828 41.5498 146.527 25.815 171.376 10.6003C217.577 -17.6864 261.215 -44.4056 292.405 -72.088C326.796 -102.613 343.252 -131.731 344.202 -163.731L345.503 -163.702C344.545 -131.412 327.972 -102.06 293.347 -71.3298C262.074 -43.5741 218.393 -16.8257 172.139 11.4903C147.299 26.7014 121.613 42.4288 95.5759 59.5994C83.132 67.8074 70.5753 75.8213 58.4307 83.5715C22.9077 106.24 -10.6418 127.652 -35.4168 150.023C-63.0458 174.97 -76.2141 197.905 -76.8603 222.2C-77.4068 242.883 -68.7928 264.291 -50.5195 287.655C-30.7628 312.916 -0.275503 339.804 42.6774 369.856C69.2784 388.466 91.1561 408.512 109.551 431.133C125.859 451.186 138.976 472.74 149.65 497.031C169.402 541.972 177.179 588.473 184.7 633.447C204.539 752.059 223.277 864.092 466.733 904.7C605.259 927.808 721.215 956.435 811.371 989.787C886.151 1017.45 944.177 1048.72 983.846 1082.72C1014.21 1108.74 1034.02 1136.52 1042.73 1165.29C1050.15 1189.82 1047.73 1209.57 1046.56 1219.06H1046.56Z" fill="#E8A274"/>
<path d="M1075.97 1206.83L1074.68 1206.72C1076.92 1188.48 1083.73 1132.97 1007.1 1070.9C919.077 999.603 749.859 940.583 504.161 895.481C447.328 885.05 401.504 870.824 364.068 851.991C330.427 835.065 304.186 814.679 283.857 789.663C245.905 742.964 234.52 687.394 222.466 628.557C204.444 540.606 185.811 449.662 78.1187 372.812C37.2737 343.668 8.17871 317.535 -10.832 292.918C-28.498 270.045 -37.0296 248.981 -36.9169 228.528C-36.7867 204.791 -25.1279 182.254 -0.222769 157.608C22.0062 135.607 52.294 114.404 84.3558 91.9515C99.3327 81.4616 114.826 70.6128 130.076 59.2805C155.267 40.5533 179.557 23.7234 203.048 7.45018C287.83 -51.2879 354.799 -97.6829 356.76 -163.735L358.061 -163.706C357.154 -133.072 342.646 -104.895 312.414 -75.022C284.876 -47.8157 247.341 -21.8072 203.876 8.30358C180.389 24.5658 156.109 41.3884 130.935 60.1046C115.672 71.4479 100.17 82.304 85.1799 92.7975C53.1615 115.217 22.9171 136.391 0.761815 158.319C-23.9308 182.756 -35.4899 205.069 -35.62 228.532C-35.7328 248.765 -27.2706 269.627 -9.74761 292.314C9.19365 316.839 38.2063 342.895 78.9515 371.969C104.867 390.462 126.363 410.222 144.667 432.378C160.893 452.017 174.157 473.022 185.217 496.602C205.681 540.221 214.863 585.03 223.741 628.367C247.228 742.993 269.409 851.262 504.429 894.404C750.371 939.55 919.793 998.666 1008 1070.11C1039.34 1095.5 1060.27 1122.49 1070.2 1150.35C1078.67 1174.1 1077.55 1193.96 1075.97 1206.83H1075.97Z" fill="#E8A274"/>
<path d="M1105.38 1194.6L1104.09 1194.49C1119.66 1067.66 930.489 963.592 541.831 885.178C487.006 874.117 442.574 859.616 405.997 840.849C373.116 823.978 347.183 803.914 326.715 779.51C288.503 733.943 275.339 680.248 261.398 623.404C240.644 538.767 219.187 451.248 114.375 374.918C75.6943 346.748 48.0479 321.443 29.8484 297.555C12.937 275.356 4.58322 254.848 4.30563 234.865C3.98466 211.867 14.2599 189.898 36.6407 165.732C56.6272 144.148 84.0611 123.201 113.104 101.028C130.306 87.8969 148.089 74.3157 165.374 59.8262C188.817 40.165 210.899 22.7418 232.247 5.89352C310.736 -56.0458 367.443 -100.796 369.308 -163.743L370.609 -163.713C368.727 -100.305 311.855 -55.4231 233.136 6.6993C211.792 23.5402 189.724 40.9562 166.289 60.6064C148.987 75.1142 131.191 88.7027 113.976 101.844C55.4562 146.521 4.91719 185.108 5.60684 234.854C6.17503 275.795 41.0041 320.04 115.225 374.09C140.442 392.455 161.548 411.922 179.752 433.605C195.887 452.819 209.289 473.271 220.727 496.126C241.885 538.408 252.455 581.507 262.674 623.188C289.808 733.851 315.438 838.376 542.134 884.112C779.462 931.994 944.321 990.318 1032.13 1057.46C1064.54 1082.25 1086.6 1108.47 1097.68 1135.41C1105.44 1154.26 1107.96 1173.63 1105.38 1194.6V1194.6Z" fill="#E8A274"/>
<path d="M1134.79 1182.38L1133.5 1182.26C1139.6 1132.6 1114.04 1087.9 1055.38 1045.6C968.657 983.066 808.544 925.628 579.5 874.878C526.658 863.169 483.597 848.383 447.853 829.666C415.713 812.84 390.075 793.087 369.468 769.284C330.982 724.826 316.027 673 300.2 618.129C276.748 536.848 252.502 452.793 150.635 377.031C114.067 349.832 87.8342 325.347 70.45 302.177C54.2933 280.644 46.1347 260.694 45.5188 241.183C43.9704 192.382 90.1156 154.169 143.543 109.92C162.463 94.2515 182.029 78.0516 200.675 60.3756C221.16 40.9598 240.913 23.0604 258.34 7.27064C331.642 -59.1481 380.064 -103.023 381.864 -163.75L383.165 -163.724C381.352 -102.584 332.795 -58.584 259.29 8.01783C241.017 24.5767 222.119 41.6997 201.642 61.1045C182.966 78.8061 163.387 95.0207 144.45 110.701C91.239 154.766 45.2803 192.825 46.8157 241.15C48.0822 281.113 81.3455 324.029 151.494 376.203C197.201 410.2 231.436 449.244 256.15 495.573C277.984 536.492 289.916 577.862 301.458 617.866C333.585 729.225 361.331 825.399 579.826 873.809C702.235 900.931 805.88 930.195 887.883 960.79C959.224 987.406 1015.86 1015.66 1056.22 1044.76C1089.8 1068.97 1112.99 1094.44 1125.14 1120.44C1134.33 1140.12 1137.49 1160.38 1134.79 1182.37L1134.79 1182.38Z" fill="#E8A274"/>
<path d="M1164.2 1170.15L1162.91 1170.03C1166.83 1138.14 1162.44 1089.21 1079.49 1032.87C993.276 974.316 842.049 919.266 617.17 864.572C566.276 852.195 524.554 837.098 489.63 818.418C458.219 801.618 432.858 782.169 412.1 758.955C373.319 715.589 356.568 665.608 338.833 612.69C312.731 534.807 285.739 454.273 186.899 379.133C152.383 352.901 127.538 329.23 110.956 306.77C95.5415 285.897 87.6084 266.499 86.6932 247.464C84.4118 199.945 126.562 162.26 175.362 118.623C195.609 100.518 216.545 81.8022 235.977 60.925C251.539 44.2013 265.826 29.221 279.637 14.7315C350.106 -59.1847 392.638 -103.8 394.416 -163.757L395.717 -163.728C394.872 -135.243 385.16 -109.275 364.219 -79.5307C344.597 -51.6542 316.378 -22.0526 280.647 15.4201C266.837 29.9059 252.554 44.8862 236.996 61.6063C217.53 82.5237 196.572 101.262 176.307 119.381C127.707 162.835 85.7347 200.363 87.9901 247.42C89.8595 286.402 121.566 327.999 187.767 378.324C232.103 412.028 266.03 450.174 291.486 494.943C313.967 534.474 327.243 574.09 340.082 612.397C376.043 719.688 407.099 812.346 617.526 863.524C734.947 892.082 834.468 921.519 913.325 951.021C983.803 977.389 1039.98 1004.64 1080.29 1032.02C1115.62 1056.02 1139.27 1080.04 1152.58 1105.46C1163.24 1125.82 1167.04 1146.98 1164.2 1170.15L1164.2 1170.15Z" fill="#E8A274"/>
<path d="M1193.61 1157.92L1192.32 1157.81C1198.7 1105.86 1171.33 1063.38 1103.56 1020.08C1020.33 966.899 873.557 912.662 654.841 854.276C605.85 841.197 565.443 825.769 531.313 807.105C500.604 790.311 475.504 771.148 454.585 748.513C415.483 706.209 396.915 658.049 377.254 607.057C348.558 532.636 318.882 455.679 223.165 381.25C185.807 352.202 160.173 326.16 144.806 301.639C130.775 279.256 125.444 258.273 128.51 237.487C131.152 219.584 139.861 201.872 155.923 181.734C170.249 163.773 188.748 145.987 208.335 127.157C229.597 106.716 251.583 85.5784 271.288 61.4781C278.071 53.1821 284.564 45.2708 290.845 37.6195C366.944 -55.0971 405.139 -101.635 406.982 -163.765L408.283 -163.735C407.39 -133.577 398.433 -106.905 378.334 -74.5569C359.132 -43.6477 330.939 -9.2992 291.916 38.2458C285.636 45.8971 279.143 53.8085 272.363 62.1007C252.615 86.256 230.603 107.419 209.315 127.882C169.724 165.948 135.528 198.824 129.807 237.623C123.531 280.183 153.481 325.563 224.054 380.441C266.976 413.815 300.556 451.028 326.715 494.196C349.807 532.306 364.394 570.134 378.499 606.717C418.316 709.978 452.702 799.16 655.244 853.228C874.103 911.655 1021.01 965.943 1104.36 1019.2C1141.07 1042.66 1165.83 1065.96 1180.04 1090.45C1192.19 1111.37 1196.63 1133.44 1193.63 1157.93L1193.61 1157.92Z" fill="#E8A274"/>
<path d="M1223.03 1145.69L1221.73 1145.58C1232.99 1053.88 1151.99 978.66 692.511 843.97C645.377 830.15 606.241 814.357 572.873 795.685C542.837 778.877 517.98 759.974 496.874 737.895C457.417 696.621 436.997 650.244 415.379 601.146C384.163 530.259 351.889 456.954 259.425 383.353C224.219 355.33 199.986 330.138 185.334 306.342C171.962 284.622 166.718 264.192 169.303 243.883C174.166 205.644 205.716 173.153 242.245 135.53C264.274 112.84 287.054 89.3805 306.594 62.0278C387.043 -50.5955 417.622 -99.2393 419.535 -163.775L420.836 -163.746C419.89 -131.888 412.1 -104.012 394.781 -70.5313C377.163 -36.4722 349.512 4.07344 307.713 62.5955C288.125 90.0178 265.315 113.51 243.255 136.23C206.856 173.717 175.423 206.091 170.605 244.004C165.317 285.593 193.827 329.622 260.327 382.558C301.775 415.552 334.956 451.775 361.765 493.303C385.425 529.951 401.279 565.951 416.607 600.769C460.327 700.064 498.089 785.818 692.945 842.937C803.929 875.472 892.637 904.356 964.138 931.236C1034.69 957.765 1088.42 982.323 1128.37 1006.31C1166.55 1029.23 1192.42 1051.84 1207.47 1075.42C1221.13 1096.81 1226.22 1119.8 1223.04 1145.7L1223.03 1145.69Z" fill="#E8A274"/>
<path d="M1252.43 1133.47L1251.14 1133.35C1264.46 1024.85 1132.74 963.358 730.171 833.67C684.824 819.063 646.916 802.863 614.273 784.147C584.87 767.288 560.22 748.623 538.911 727.079C499.051 686.783 476.731 642.142 453.105 594.883C419.477 527.625 384.709 458.079 295.68 385.466C262.521 358.421 239.633 334.046 225.701 310.942C212.989 289.864 207.875 269.968 210.065 250.124C214.19 212.761 243.263 180.793 276.93 143.775C299.536 118.92 322.91 93.219 341.891 62.5808C417.378 -59.265 430.303 -103.942 432.077 -163.783L433.379 -163.757C432.533 -135.254 429.258 -109.106 416.02 -74.1427C402.939 -39.5892 380.432 2.73291 343.044 63.0863C324.012 93.8087 300.603 119.546 277.962 144.438C244.417 181.321 215.448 213.171 211.362 250.219C206.877 290.867 233.955 333.589 296.587 384.668C336.482 417.207 369.186 452.376 396.576 492.193C420.74 527.318 437.803 561.446 454.302 594.447C502.004 689.856 543.196 772.255 730.635 832.634C842.635 868.714 924.884 896.855 989.485 921.197C1060.29 947.879 1113.57 971.474 1152.35 993.329C1192.07 1015.71 1219.07 1037.63 1234.88 1060.34C1242.73 1071.63 1247.95 1083.11 1250.82 1095.46C1253.58 1107.34 1254.11 1119.77 1252.43 1133.45V1133.47Z" fill="#E8A274"/>
<path d="M1281.84 1121.24L1280.55 1121.12C1287.32 1065.97 1258.81 1026.45 1182.15 984.689C1105.72 943.052 983.703 899.829 799.014 834.41C788.808 830.795 778.416 827.114 767.841 823.363C724.194 807.892 687.439 791.231 655.469 772.423C626.647 755.468 602.162 737.001 580.61 715.956C540.273 676.567 515.979 633.59 490.263 588.088C456.05 527.552 417.269 458.943 331.945 387.569C272.714 338.024 246.928 296.284 250.801 256.218C254.328 219.724 281.185 188.294 312.288 151.906C335.319 124.96 359.131 97.094 377.205 63.1338C441.897 -58.4116 443.055 -103.217 444.395 -155.095C444.469 -157.97 444.543 -160.864 444.629 -163.79L445.931 -163.761C445.844 -160.838 445.77 -157.944 445.696 -155.069C445.033 -129.493 444.408 -105.338 435.842 -72.2491C426.243 -35.1867 407.987 7.9778 378.389 63.588C360.259 97.6507 336.408 125.56 313.338 152.554C282.351 188.811 255.59 220.123 252.094 256.314C248.255 296.031 273.92 337.493 332.856 386.796C371.076 418.767 403.203 452.786 431.075 490.801C455.655 524.322 473.842 556.502 491.43 587.623C543.226 679.27 587.958 758.417 768.335 822.352C778.91 826.103 789.302 829.78 799.508 833.399C984.262 898.843 1106.32 942.077 1182.85 983.77C1259.99 1025.79 1288.67 1065.62 1281.84 1121.24L1281.84 1121.24Z" fill="#E8A274"/>
<path d="M1311.26 1109.01L1309.96 1108.9C1315.99 1059.77 1294.81 1024.12 1239.14 989.677C1184.79 956.047 1098.55 923.779 979.197 879.116C927.92 859.928 869.8 838.179 805.503 813.06C631.275 744.986 582.736 668.77 526.537 580.518C490.393 523.761 449.427 459.43 368.205 389.682C312.514 341.855 288.133 301.35 291.478 262.21C294.527 226.573 319.388 195.704 348.18 159.964C370.431 132.34 395.652 101.028 412.516 63.6942C461.645 -45.1052 459.568 -92.8846 457.729 -135.038C457.299 -144.865 456.896 -154.146 457.182 -163.79L458.483 -163.764C458.197 -154.15 458.6 -144.887 459.03 -135.078C459.915 -114.806 460.912 -91.8297 455.512 -60.829C449.332 -25.3451 435.664 15.5119 413.73 64.0825C396.815 101.537 371.55 132.904 349.256 160.579C320.568 196.191 295.793 226.946 292.774 262.287C289.456 301.09 313.72 341.324 369.129 388.909C405.494 420.137 436.879 452.852 465.08 488.929C489.934 520.725 509.122 550.854 527.677 579.994C583.768 668.074 632.208 744.14 806.045 812.06C870.333 837.179 928.445 858.924 979.722 878.109C1099.15 922.801 1185.44 955.087 1239.91 988.787C1267.88 1006.09 1287.01 1023.62 1298.39 1042.39C1310.17 1061.79 1314.38 1083.58 1311.25 1109.01L1311.26 1109.01Z" fill="#E8A274"/>
<path d="M1340.67 1096.78L1339.38 1096.67C1351.29 999.666 1259.36 964.903 1076.21 895.646C1008.75 870.132 932.275 841.215 843.168 802.75C765.989 769.434 708.467 734.291 662.148 692.152C620.432 654.203 591.723 614.086 561.326 571.614C523.63 518.941 480.903 459.243 404.47 391.785C290.614 291.299 332.066 236.865 384.544 167.952C407.007 138.453 432.472 105.016 447.835 64.24C487.288 -40.4755 479.203 -90.8444 473.3 -127.625C471.2 -140.693 469.392 -151.978 469.743 -163.805L471.044 -163.775C470.697 -152.037 472.501 -140.792 474.592 -127.771C477.654 -108.696 481.124 -87.0756 478.929 -56.8037C476.383 -21.6861 466.62 18.0172 449.08 64.5733C433.665 105.489 408.152 138.988 385.641 168.549C359.032 203.494 336.048 233.675 333.402 268.173C330.496 306.064 353.376 345.1 405.416 391.026C481.948 458.573 524.715 518.326 562.445 571.046C623.181 655.906 675.633 729.193 843.767 801.768C932.847 840.219 1009.3 869.132 1076.75 894.639C1169.99 929.896 1237.36 955.373 1281.89 984.967C1304.95 1000.3 1320.78 1016.22 1330.27 1033.65C1340.24 1051.97 1343.64 1072.62 1340.68 1096.78L1340.67 1096.78Z" fill="#E8A274"/>
<path d="M1370.08 1084.56L1368.79 1084.44C1374.33 1039.26 1358.32 1006.34 1316.85 977.708C1277.54 950.564 1217.13 928.097 1140.65 899.657C1069.2 873.084 980.281 840.018 880.825 792.447C805.451 756.392 748.288 720.23 700.946 678.648C658.084 641 626.595 601.754 593.254 560.205C554.734 512.198 511.069 457.782 440.726 393.905C333.927 296.922 372.482 243.527 421.29 175.929C443.91 144.606 469.543 109.1 483.15 64.8078C515.411 -40.2191 500.547 -89.7713 489.69 -125.958C485.531 -139.833 481.935 -151.813 482.291 -163.797L483.592 -163.768C483.241 -151.93 486.815 -140.019 490.953 -126.226C496.205 -108.711 502.746 -86.9144 503.817 -56.6864C505.071 -21.3344 498.721 18.4971 484.412 65.0861C470.758 109.536 445.068 145.115 422.405 176.504C397.669 210.761 376.307 240.348 373.948 274.004C371.359 310.983 392.881 348.844 441.68 393.162C512.093 457.105 555.783 511.554 594.329 559.593C663.124 645.333 717.463 713.051 881.467 791.498C980.866 839.043 1069.75 872.099 1141.17 898.661C1217.74 927.138 1278.23 949.63 1317.68 976.869C1359.51 1005.76 1375.68 1038.97 1370.08 1084.57V1084.56Z" fill="#E8A274"/>
<path d="M1399.49 1072.33L1398.19 1072.22C1403.74 1027.05 1388.74 994.644 1349.58 967.141C1312.99 941.447 1258.48 921.863 1189.47 897.063C1114.04 869.959 1020.17 836.23 918.482 782.129C843.125 742.037 785.204 703.968 736.201 662.33C691.352 624.224 657.556 586.499 618.419 542.814C580.823 500.847 538.213 453.284 476.987 396.003C376.963 302.422 412.889 250.105 458.375 183.866C481.103 150.766 506.867 113.25 518.469 65.3493C544.576 -42.3952 521.388 -93.4308 506.047 -127.201C499.602 -141.386 494.51 -152.594 494.844 -163.812L496.145 -163.783C495.82 -152.781 500.868 -141.664 507.262 -127.589C522.659 -93.6982 545.925 -42.4868 519.744 65.5764C508.094 113.652 482.278 151.253 459.499 184.426C436.463 217.972 416.567 246.944 414.425 279.754C412.069 315.817 432.256 352.524 477.95 395.275C539.211 452.592 581.843 500.177 619.452 542.158C698.539 630.44 755.684 694.225 919.172 781.209C1020.77 835.267 1114.59 868.974 1189.98 896.063C1259.08 920.896 1313.67 940.506 1350.41 966.306C1369.67 979.835 1382.94 994.417 1390.98 1010.89C1399.61 1028.57 1402.39 1048.67 1399.48 1072.34L1399.49 1072.33Z" fill="#E8A274"/>
<path d="M1428.9 1060.1L1427.61 1059.99C1439.57 962.567 1356.1 933.932 1229.75 890.595C1151.98 863.917 1055.2 830.718 956.14 771.819C781.123 667.752 720.517 606.281 620.115 504.441C589.793 473.682 555.424 438.821 513.247 398.114C419.734 307.855 453.274 256.647 495.746 191.818C518.56 156.99 544.42 117.517 553.793 65.9029C574.131 -46.083 542.706 -96.5838 521.913 -130.002C513.637 -143.301 507.101 -153.806 507.4 -163.819L508.702 -163.79C508.411 -154.062 514.557 -144.184 523.067 -130.511C533.416 -113.879 546.298 -93.1776 554.322 -62.1255C563.821 -25.3597 564.072 16.5742 555.081 66.0714C545.673 117.876 519.753 157.444 496.887 192.349C454.667 256.801 421.317 307.708 514.232 397.389C556.421 438.106 590.795 472.975 621.122 503.738C721.454 605.508 782.016 666.935 956.894 770.922C1055.83 829.748 1152.54 862.924 1230.25 889.577C1292.39 910.894 1346.07 929.306 1381.42 954.205C1400.05 967.321 1412.9 981.682 1420.71 998.102C1429.17 1015.86 1431.84 1036.14 1428.9 1060.1H1428.9Z" fill="#E8A274"/>
<path d="M1458.31 1047.87L1457.02 1047.76C1462.67 1001.72 1447.9 968.086 1410.52 941.92C1375.91 917.691 1324.47 900.99 1264.91 881.647C1225.12 868.729 1180.03 854.086 1134.04 835.139C1081.26 813.397 1035.39 789.308 993.797 761.501C888.889 691.364 820.124 643.699 757.263 592.751C691.66 539.58 631.41 481.893 549.508 400.216C509.435 360.256 491.756 325.575 493.864 291.069C495.781 259.724 513.2 231.942 533.368 199.773C556.257 163.267 582.203 121.887 589.116 66.4522C603.755 -50.8738 561.986 -102.722 537.029 -133.701C526.966 -146.195 519.697 -155.219 519.948 -163.827L521.25 -163.797C521.007 -155.545 528.176 -146.641 538.105 -134.317C563.162 -103.213 605.095 -51.1558 590.409 66.5731C583.469 122.22 557.462 163.7 534.518 200.293C495.013 263.298 463.81 313.067 550.501 399.513C722.174 570.709 776.131 614.584 994.603 760.647C1087.84 822.979 1186.28 854.943 1265.38 880.629C1325.04 900.004 1376.57 916.735 1411.35 941.081C1429.75 953.959 1442.46 968.255 1450.22 984.788C1458.67 1002.78 1461.32 1023.42 1458.32 1047.88L1458.31 1047.87Z" fill="#E8A274"/>
<path d="M1487.72 1035.64L1486.43 1035.53C1492.23 988.242 1477.4 954.091 1439.76 928.05C1405.2 904.151 1354.97 888.804 1296.8 871.037C1256.44 858.708 1210.7 844.731 1165.4 826.048C1113.52 804.647 1069.71 780.155 1031.45 751.18C966.038 701.631 913.074 665.389 866.344 633.414C772.418 569.142 698.227 518.377 585.768 402.322C548.463 363.824 532.05 330.263 534.115 296.698C535.988 266.225 552.31 239.125 571.208 207.743C594.174 169.604 620.203 126.377 624.44 66.998C633.262 -56.5912 579.908 -109.498 551.243 -137.921C540.243 -148.828 532.293 -156.71 532.505 -163.841L533.807 -163.812C533.607 -157.102 541.423 -149.355 552.236 -138.635C567.126 -123.871 587.516 -103.653 603.33 -71.3554C611.979 -53.6941 618.303 -34.1538 622.124 -13.2766C626.587 11.0984 627.802 38.1289 625.737 67.0602C621.482 126.666 595.389 170.003 572.366 208.238C535.325 269.748 506.069 318.334 586.774 401.622C699.151 517.59 773.294 568.325 867.163 632.557C913.903 664.539 966.884 700.792 1032.32 750.359C1117.96 815.229 1213.21 844.328 1297.24 870C1355.52 887.804 1405.86 903.18 1440.58 927.196C1459.01 939.942 1471.77 954.285 1479.59 971.046C1488.15 989.385 1490.81 1010.51 1487.72 1035.64V1035.64Z" fill="#E8A274"/>
<path d="M1517.13 1023.42L1515.84 1023.3C1528.87 917.145 1439.58 891.609 1326.54 859.279C1242.03 835.109 1146.24 807.713 1069.11 740.862C989.564 671.919 925.488 632.469 863.52 594.322C786.003 546.598 712.784 501.521 622.029 404.431C587.382 367.365 572.21 334.914 574.283 302.302C576.166 272.711 591.489 246.307 609.238 215.735C632.295 176.017 658.428 130.999 659.768 67.5508C662.531 -63.177 598.715 -114.714 564.433 -142.4C552.666 -151.901 544.893 -158.179 545.062 -163.838L546.363 -163.809C546.212 -158.633 553.819 -152.491 565.335 -143.191C581.795 -129.9 606.67 -109.81 626.783 -76.8753C637.821 -58.8037 646.301 -38.6188 651.991 -16.8846C658.662 8.60022 661.72 37.0152 661.074 67.5764C659.725 131.27 633.527 176.405 610.409 216.226C575.593 276.198 548.098 323.567 623.052 403.757C713.695 500.73 786.844 545.763 864.288 593.439C926.299 631.615 990.418 671.092 1070.04 740.1C1146.95 806.764 1242.59 834.113 1326.96 858.246C1384.57 874.721 1434.32 888.95 1469.34 912.794C1507.99 939.103 1523.17 974.257 1517.13 1023.42L1517.13 1023.42Z" fill="#E8A274"/>
<path d="M1546.54 1011.19L1545.25 1011.07C1551.44 960.655 1536.1 924.988 1496.98 898.832C1461.61 875.186 1409.77 861.363 1354.88 846.731C1270.37 824.202 1174.59 798.67 1106.76 730.533C1028.06 651.475 956.83 613.24 887.944 576.266C851.206 556.546 813.215 536.152 775.298 509.993C732.874 480.725 694.601 446.886 658.293 406.538C626.197 370.874 612.239 339.522 614.369 307.869C616.299 279.165 630.729 253.479 647.437 223.738C670.607 182.496 696.87 135.753 695.1 68.0968C691.465 -70.7108 613.8 -122.233 576.477 -146.997C564.636 -154.849 557.493 -159.593 557.619 -163.849L558.92 -163.819C558.811 -160.113 566.159 -155.238 577.28 -147.857C596.095 -135.375 624.531 -116.509 649.267 -82.977C662.895 -64.5026 673.717 -43.6437 681.429 -20.9828C690.515 5.71799 695.555 35.6822 696.401 68.0748C698.18 135.988 671.847 182.859 648.612 224.21C615.809 282.601 589.893 328.717 659.33 405.875C740.065 495.588 812.235 534.328 888.646 575.343C957.615 612.365 1028.93 650.647 1107.76 729.83C1175.35 797.721 1270.94 823.206 1355.28 845.687C1410.28 860.353 1462.24 874.201 1497.79 897.975C1537.3 924.387 1552.79 960.365 1546.55 1011.19L1546.54 1011.19Z" fill="#E8A274"/>
<path d="M1575.95 998.962L1574.66 998.849C1588.67 884.713 1493.06 861.063 1382.35 833.677C1339.26 823.019 1294.71 812.002 1253.22 794.915C1206.06 775.496 1170.47 751.058 1144.41 720.197C1071.31 633.612 994.43 598.289 920.083 564.135C882.995 547.096 844.648 529.475 806.978 505.686C764.693 478.981 727.916 447.233 694.545 408.636C664.899 374.346 652.13 344.085 654.35 313.392C656.367 285.578 669.991 260.628 685.766 231.741C709.088 189.034 735.52 140.632 730.419 68.635C719.927 -79.4062 626.93 -129.977 587.221 -151.572C576.165 -157.582 570.076 -160.897 570.162 -163.86L571.463 -163.831C571.394 -161.483 578.33 -157.71 587.924 -152.491C607.676 -141.748 640.74 -123.772 670.503 -89.7166C706.607 -48.4091 727.201 4.84602 731.716 68.5763C736.838 140.844 710.333 189.382 686.946 232.206C655.947 288.973 631.458 333.812 695.594 407.992C769.828 493.855 846.526 529.094 920.699 563.171C957.979 580.298 996.525 598.007 1034.06 621.895C1076.15 648.669 1112.58 680.618 1145.47 719.563C1203.5 788.297 1298.7 811.848 1382.71 832.626C1437.79 846.251 1489.82 859.122 1526.05 882.881C1545.44 895.598 1558.92 910.458 1567.27 928.309C1576.51 948.095 1579.35 971.206 1575.94 998.962H1575.95Z" fill="#E8A274"/>
<path d="M1605.36 986.733L1604.07 986.619C1610.72 932.496 1594.63 894.961 1553.45 868.495C1516.68 844.856 1464.55 832.96 1409.36 820.364C1366.28 810.533 1321.74 800.366 1281.79 783.931C1236.52 765.307 1203.9 741.078 1182.07 709.865C1116.98 616.815 1038.63 586.55 955.671 554.509C879.22 524.981 800.163 494.445 730.809 410.746C703.514 377.804 691.898 348.62 694.254 318.894C696.388 291.97 709.911 266.609 724.229 239.755C747.746 195.649 774.399 145.657 765.751 69.1846C747.777 -89.7456 633.903 -139.598 596.481 -155.978C586.652 -160.281 582.662 -162.098 582.714 -163.863L584.015 -163.834C583.98 -162.688 590.048 -160.028 597.079 -156.952C617.205 -148.143 654.666 -131.742 690.007 -97.309C733.424 -55.009 759.344 0.974846 767.043 69.0821C775.727 145.844 748.995 195.975 725.409 240.205C696.023 295.317 672.814 338.848 731.867 410.116C801.018 493.57 879.91 524.04 956.204 553.509C996.147 568.937 1037.46 584.891 1075.82 608.226C1096.46 620.778 1114.73 634.447 1131.66 650.021C1150.63 667.466 1167.48 686.86 1183.18 709.304C1231.71 778.679 1322.2 799.333 1409.7 819.302C1465.02 831.927 1517.26 843.852 1554.24 867.619C1574.07 880.373 1587.88 895.459 1596.45 913.747C1605.98 934.086 1608.9 957.963 1605.36 986.733H1605.36Z" fill="#E8A274"/>
<path d="M1634.77 974.506L1633.48 974.393C1640.37 918.299 1623.9 879.783 1581.67 853.185C1544.15 829.557 1491.73 818.602 1436.25 807.002C1393.25 798.017 1348.8 788.725 1310.44 772.943C1289.71 764.416 1272.59 754.794 1258.09 743.535C1241.76 730.841 1229.21 716.446 1219.72 699.521C1164.31 600.662 1081.25 574.229 993.302 546.246C914.05 521.029 832.1 494.95 767.065 412.848C742.017 381.228 731.529 353.106 734.054 324.347C736.34 298.32 749.187 273.755 762.789 247.754C786.558 202.315 813.493 150.818 801.079 69.7299C789.008 -9.11257 745.001 -112.978 603.881 -160.051C596.75 -162.428 595.241 -162.963 595.271 -163.864L596.572 -163.834C596.572 -163.922 596.538 -163.985 596.525 -164.003C596.915 -163.556 600.363 -162.402 604.362 -161.069C622.432 -155.04 664.747 -140.928 706.555 -106.397C730.068 -86.9771 749.79 -63.95 765.17 -37.9597C783.734 -6.58901 796.252 29.5944 802.372 69.5944C807.928 105.884 806.058 139.57 796.659 172.574C788.44 201.432 776.005 225.21 763.977 248.204C736.032 301.635 713.954 343.836 768.145 412.247C832.946 494.057 914.701 520.069 993.758 545.228C1038.22 559.373 1080.21 572.734 1119.14 595.315C1140.07 607.453 1158.07 621.107 1174.2 637.054C1192.24 654.902 1207.51 675.183 1220.9 699.063C1260.14 769.075 1349.82 787.821 1436.56 805.951C1546.32 828.89 1649.99 850.562 1634.77 974.521V974.506Z" fill="#E8A274"/>
<path d="M1664.18 962.277L1662.89 962.163C1670.02 904.063 1653.2 864.583 1609.95 837.915C1571.72 814.338 1519.03 804.358 1463.24 793.791C1420.39 785.674 1376.08 777.283 1339.29 762.127C1319.44 753.948 1303.4 744.539 1290.25 733.361C1275.46 720.783 1264.71 706.33 1257.38 689.171C1212.94 585.092 1125.25 562.659 1032.41 538.906C949.846 517.784 864.473 495.94 803.325 414.943C780.428 384.613 771.029 357.542 773.753 329.75C776.217 304.613 788.466 280.864 801.434 255.717C825.515 209.021 852.806 156.099 836.415 70.2612C816.259 -35.2564 755.332 -93.1448 707.773 -123.127C656.228 -155.619 608.834 -163.255 608.361 -163.329L608.595 -164.409C608.712 -164.391 620.709 -162.497 638.931 -156.597C655.734 -151.154 681.445 -141.089 708.498 -124.043C738.902 -104.884 764.779 -80.9957 785.403 -53.035C811.176 -18.0968 828.773 23.3279 837.703 70.0854C845.038 108.488 844.235 143.84 835.244 178.16C827.389 208.149 814.238 233.653 802.631 256.152C775.957 307.876 754.886 348.733 804.427 414.35C865.315 495.002 950.457 516.784 1032.8 537.851C1079.88 549.898 1124.35 561.274 1163.64 582.968C1184.76 594.626 1202.38 608.185 1217.51 624.418C1234.42 642.567 1247.87 663.624 1258.61 688.793C1288.86 759.629 1377.66 776.448 1463.53 792.714C1490.33 797.79 1518.04 803.035 1543.18 809.848C1571.36 817.485 1593.46 826.374 1610.73 837.021C1631.44 849.797 1645.88 865.323 1654.88 884.489C1664.94 905.934 1667.98 931.375 1664.19 962.27L1664.18 962.277Z" fill="#E8A274"/>
<path d="M1683.46 949.637L1682.17 949.553C1687.28 892.672 1669.89 853.646 1627.43 826.74C1589.94 802.988 1536.79 791.89 1485.39 781.158C1444.21 772.559 1401.62 763.669 1366.39 748.301C1347.38 740.012 1332.03 730.573 1319.47 719.443C1305.34 706.931 1295.09 692.643 1288.11 675.751C1245.54 573.625 1160.17 550.488 1069.8 525.992C1030 515.205 988.86 504.052 950.045 485.757C906.203 465.093 871.292 437.817 843.32 402.373C819.269 372.035 808.916 344.661 810.742 316.227C812.399 290.468 823.472 266.84 836.293 239.487C858.457 192.21 883.575 138.621 868.611 54.4056C849.921 -51.2951 792.781 -111.088 748.132 -142.638C699.779 -176.804 655.317 -186.107 654.87 -186.195L655.174 -187.264C655.287 -187.242 666.555 -184.92 683.666 -178.386C699.445 -172.361 723.583 -161.417 748.965 -143.481C777.492 -123.325 801.746 -98.6277 821.056 -70.0773C845.185 -34.3993 861.619 7.42466 869.895 54.2408C876.587 91.9076 875.811 126.926 867.514 161.304C860.266 191.331 848.173 217.13 837.504 239.89C812.295 293.669 792.382 336.149 844.404 401.762C906.628 480.608 989.78 503.144 1070.19 524.941C1160.89 549.524 1246.55 572.742 1289.34 675.384C1318.13 745.1 1403.32 762.885 1485.71 780.085C1537.24 790.842 1590.52 801.966 1628.21 825.854C1648.53 838.728 1662.9 854.196 1672.13 873.146C1682.48 894.364 1686.19 919.384 1683.47 949.63L1683.46 949.637Z" fill="#E8A274"/>
<path d="M1702.74 936.993L1701.44 936.942C1704.5 882.032 1686.03 842.317 1644.98 815.536C1608.28 791.593 1557.16 779.832 1507.72 768.46C1468.22 759.373 1427.38 749.978 1393.68 734.412C1375.51 726.017 1360.83 716.556 1348.82 705.491C1335.33 693.06 1325.52 678.944 1318.84 662.345C1278.41 561.897 1195.21 538.031 1107.11 512.762C1068.41 501.66 1028.39 490.185 990.115 471.865C946.819 451.141 911.886 424.305 883.32 389.817C828.465 323.593 847.316 279.139 871.184 222.862C891.426 175.13 914.367 121.029 900.808 38.5644C883.593 -67.2902 830.257 -128.988 788.549 -162.102C743.384 -197.963 701.797 -208.94 701.381 -209.05L701.762 -210.101C702.179 -209.995 744.056 -198.937 789.442 -162.904C816.087 -141.748 838.719 -116.249 856.719 -87.1052C879.208 -50.691 894.476 -8.46053 902.101 38.4142C908.164 75.2899 907.418 109.906 899.824 144.247C893.192 174.24 882.153 200.267 872.412 223.232C848.673 279.212 829.918 323.428 884.391 389.187C947.981 465.96 1029.09 489.222 1107.53 511.722C1152.53 524.629 1195.03 536.818 1231.95 558.567C1251.75 570.233 1268.21 583.631 1282.26 599.523C1297.92 617.243 1310.29 637.677 1320.08 661.993C1347.64 730.507 1429.2 749.264 1508.07 767.405C1557.63 778.807 1608.89 790.593 1645.78 814.671C1665.68 827.652 1679.95 843.068 1689.42 861.803C1700.04 882.801 1704.4 907.395 1702.75 937.001L1702.74 936.993Z" fill="#E8A274"/>
<path d="M1722.01 924.346L1720.71 924.328C1723.1 804.654 1624.99 779.84 1530.1 755.838C1492.25 746.264 1453.11 736.364 1420.93 720.581C1403.58 712.073 1389.58 702.583 1378.12 691.569C1365.26 679.204 1355.91 665.25 1349.56 648.914C1311.12 550.191 1230.03 525.585 1144.18 499.536C1106.58 488.127 1067.7 476.329 1030 457.983C987.299 437.201 952.401 410.79 923.31 377.236C865.758 310.85 883.489 264.492 905.939 205.798C924.325 157.729 945.166 103.247 933 22.6941C917.255 -83.3144 867.731 -146.913 828.959 -181.598C786.982 -219.151 748.272 -231.81 747.885 -231.934L748.345 -232.963C748.736 -232.839 787.724 -220.089 829.905 -182.353C854.667 -160.201 875.682 -133.896 892.363 -104.162C913.208 -67.0118 927.314 -24.3748 934.288 22.5549C939.727 58.5625 939.007 92.7022 932.085 126.922C926.038 156.806 916.015 183.012 907.171 206.131C884.833 264.525 867.189 310.645 924.351 376.58C989.151 451.324 1068.18 475.304 1144.61 498.496C1188.64 511.854 1230.22 524.471 1265.99 546.261C1285.17 557.941 1301.06 571.266 1314.58 586.993C1329.63 604.512 1341.48 624.653 1350.79 648.566C1377.03 715.97 1455.04 735.701 1530.47 754.78C1578.06 766.815 1627.26 779.261 1663.36 803.519C1682.82 816.598 1697 831.959 1706.69 850.47C1717.58 871.238 1722.59 895.4 1722.01 924.339L1722.01 924.346Z" fill="#E8A274"/>
<path d="M1739.99 911.718C1737.96 794.78 1643.73 768.596 1552.6 743.276C1516.37 733.207 1478.9 722.798 1448.22 706.799C1431.68 698.177 1418.35 688.654 1407.44 677.688C1395.21 665.382 1386.32 651.584 1380.28 635.502C1343.81 538.434 1268.38 514.235 1181.04 486.215C1144.56 474.509 1106.84 462.404 1069.75 444.051C1027.68 423.228 992.864 397.264 963.305 364.673C935.524 334.043 922.191 305.43 921.345 274.627C920.573 246.575 929.859 219.566 940.607 188.287C957.198 140.02 976 85.3149 965.196 6.84969C950.922 -99.3126 905.21 -164.816 869.379 -201.069C830.586 -240.318 794.746 -254.657 794.391 -254.796L794.937 -255.792C795.297 -255.65 831.397 -241.208 870.377 -201.772C893.256 -178.624 912.649 -151.513 928.02 -121.19C947.226 -83.2994 960.169 -40.2631 966.489 6.72517C971.316 41.7952 970.618 75.3744 964.35 109.375C958.876 139.072 949.833 165.381 941.857 188.595C920.881 249.622 904.312 297.826 964.337 364.007C1030.23 436.652 1110.6 462.441 1181.5 485.19C1224.6 499.02 1265.32 512.081 1299.98 533.925C1318.55 545.624 1333.89 558.883 1346.89 574.463C1361.35 591.788 1372.68 611.647 1381.52 635.176C1406.44 701.514 1477.63 721.296 1553 742.239C1598.59 754.908 1645.73 768.006 1680.99 792.436C1700.01 805.618 1714.08 820.913 1724 839.197C1735.14 859.726 1740.8 883.446 1741.29 911.707L1739.99 911.721V911.718Z" fill="#E8A274"/>
<path d="M1759.26 899.111C1752.84 784.975 1662.54 757.421 1575.22 730.775C1540.59 720.208 1504.77 709.279 1475.56 693.053C1459.82 684.314 1447.14 674.754 1436.78 663.829C1425.16 651.577 1416.73 637.923 1411 622.082C1376.47 526.589 1302.88 501.639 1217.67 472.744C1182.32 460.76 1145.77 448.365 1109.33 430.019C1067.94 409.178 1033.26 383.694 1003.3 352.1C974.096 321.311 959.683 292.175 957.935 260.405C956.343 231.429 965.062 203.077 975.159 170.248C990.014 121.945 1006.86 67.1957 997.388 -9.01327C984.593 -115.293 942.72 -182.682 909.843 -220.503C874.228 -261.473 841.212 -277.527 840.883 -277.684L841.525 -278.64C841.854 -278.483 875.066 -262.345 910.84 -221.21C931.837 -197.065 949.612 -169.152 963.669 -138.239C981.236 -99.6129 993.016 -56.1737 998.68 -9.12317C1002.91 24.9323 1002.23 57.8596 996.594 91.5304C991.671 120.945 983.569 147.287 976.421 170.527C956.764 234.437 941.236 284.915 1004.31 351.415C1071.15 421.884 1149.25 448.365 1218.15 471.726C1260.39 486.05 1300.3 499.577 1333.9 521.494C1371.48 546.004 1396.37 577.866 1412.24 621.763C1435.86 687.087 1503.77 707.806 1575.66 729.746C1619.23 743.041 1664.27 756.787 1698.68 781.389C1717.25 794.666 1731.2 809.896 1741.33 827.945C1752.71 848.229 1759 871.491 1760.56 899.063L1759.25 899.114L1759.26 899.111Z" fill="#E8A274"/>
<path d="M1778.54 886.5C1767.75 775.24 1681.44 746.323 1597.98 718.358C1563.39 706.77 1530.72 695.822 1502.95 679.362C1488 670.502 1475.96 660.899 1466.14 650.002C1455.13 637.795 1447.15 624.272 1441.73 608.662C1409.13 514.649 1337.26 488.911 1254.03 459.108C1187.04 435.121 1111.12 407.933 1043.3 339.529C1012.59 308.554 997.049 278.828 994.399 245.985C991.979 215.984 1000.15 186.17 1009.61 151.649C1022.81 103.485 1037.77 48.8971 1029.6 -24.8689C1018.27 -131.342 980.181 -200.651 950.223 -240.047C917.793 -282.695 887.696 -300.393 887.396 -300.568L888.134 -301.473C888.437 -301.297 918.751 -283.471 951.321 -240.64C970.435 -215.499 986.592 -186.784 999.34 -155.282C1015.27 -115.919 1025.88 -72.0733 1030.89 -24.9678C1039.09 48.9741 1024.1 103.654 1010.88 151.899C992.495 218.962 977.978 271.935 1044.3 338.826C1111.92 407.025 1187.69 434.158 1254.54 458.097C1338.07 488.01 1410.21 513.843 1442.98 608.354C1465.31 672.725 1529.99 694.397 1598.46 717.34C1682.29 745.429 1768.98 774.474 1779.84 886.412L1778.54 886.504V886.5Z" fill="#E8A274"/>
<path d="M1797.82 873.893C1782.69 765.599 1700.43 735.327 1620.89 706.055C1587.9 693.917 1556.74 682.45 1530.39 665.741C1516.21 656.752 1504.8 647.094 1495.5 636.22C1485.1 624.048 1477.56 610.643 1472.45 595.245C1441.76 502.606 1371.45 476.033 1290.05 445.263C1225.19 420.749 1151.68 392.964 1083.29 326.963C1050.92 295.716 1034.16 265.287 1030.58 231.206C1027.31 200.029 1034.94 168.552 1043.79 132.109C1055.38 84.3661 1068.52 30.2503 1061.79 -40.7211C1051.67 -147.33 1017.41 -218.547 990.457 -259.518C961.271 -303.872 934.162 -323.263 933.893 -323.453L934.726 -324.295C934.999 -324.105 962.29 -304.579 991.593 -260.049C1008.79 -233.912 1023.32 -204.391 1034.77 -172.306C1049.08 -132.207 1058.61 -87.9658 1063.09 -40.809C1069.83 30.3162 1056.68 84.5126 1045.07 132.329C1027.25 205.739 1014.37 258.782 1084.27 326.237C1152.48 392.059 1225.85 419.793 1290.58 444.259C1331.36 459.668 1369.86 474.224 1401.47 496.353C1436.62 520.952 1459.57 552.282 1473.71 594.949C1494.74 658.437 1556.27 681.076 1621.41 705.048C1660.87 719.571 1701.68 734.588 1734.28 759.494C1751.89 772.95 1765.57 788.022 1776.09 805.57C1787.93 825.33 1795.46 847.636 1799.11 873.765L1797.82 873.893V873.893Z" fill="#E8A274"/>
<path d="M1817.1 861.283C1797.7 756.062 1719.55 724.457 1643.97 693.892C1581.81 668.751 1523.09 645.003 1503.18 581.822C1474.37 490.424 1408.76 464.269 1325.7 431.154C1263.03 406.175 1192.01 377.863 1123.29 314.389C1089.18 282.879 1071.19 251.706 1066.68 216.288C1062.55 183.848 1069.68 150.609 1077.94 112.122C1088.05 64.9614 1099.52 11.5121 1093.99 -56.5804C1085.33 -163.343 1054.88 -236.468 1030.87 -279.01C1004.87 -325.068 980.637 -346.147 980.394 -346.352L981.322 -347.121C981.565 -346.912 1005.95 -325.702 1032.04 -279.479C1047.36 -252.35 1060.27 -222.027 1070.41 -189.348C1083.09 -148.513 1091.46 -103.869 1095.29 -56.6537C1100.82 11.5707 1089.35 65.0969 1079.22 112.32C1062.62 189.719 1050.63 245.64 1124.26 313.652C1192.81 376.965 1263.71 405.23 1326.26 430.165C1366.45 446.186 1404.41 461.32 1435.11 483.6C1469.13 508.283 1491.16 539.404 1504.45 581.547C1524.21 644.237 1582.66 667.879 1644.54 692.91C1681.92 708.026 1720.56 723.658 1752.22 748.693C1769.33 762.226 1782.84 777.203 1793.54 794.479C1805.59 813.954 1813.71 835.75 1818.39 861.122L1817.11 861.29L1817.1 861.283Z" fill="#E8A274"/>
<path d="M1836.38 848.676C1812.78 746.667 1738.8 713.751 1667.26 681.919C1608.26 655.668 1552.54 630.876 1533.9 568.398C1506.96 478.088 1442.49 451.006 1360.87 416.72C1300.48 391.356 1232.04 362.604 1163.28 301.815C1127.31 270.012 1108.02 238.008 1102.57 201.099C1097.58 167.263 1104.22 132.095 1111.9 91.3694C1120.65 45.0477 1130.56 -7.4529 1126.18 -72.4432C1118.97 -179.364 1092.34 -254.39 1071.28 -298.506C1048.47 -346.271 1027.1 -369.035 1026.89 -369.262L1027.91 -369.95C1028.12 -369.723 1049.6 -346.831 1072.48 -298.92C1085.91 -270.795 1097.2 -239.669 1106.04 -206.405C1117.07 -164.834 1124.29 -119.783 1127.47 -72.5091C1131.86 -7.40161 1121.94 45.1612 1113.19 91.5378C1097.75 173.325 1086.6 232.415 1164.22 301.049C1232.82 361.699 1301.15 390.404 1361.45 415.731C1402.91 433.151 1438.73 448.197 1468.61 470.667C1501.58 495.464 1522.73 526.431 1535.16 568.123C1553.66 630.125 1609.13 654.808 1667.86 680.941C1703.13 696.632 1739.59 712.857 1770.27 737.998C1786.85 751.593 1800.19 766.46 1811.03 783.451C1823.26 802.618 1831.97 823.883 1837.65 848.46L1836.38 848.672V848.676Z" fill="#E8A274"/>
<path d="M1855.66 836.069C1827.98 737.441 1755.1 701.722 1690.79 670.205C1662.32 656.25 1635.43 643.072 1613.12 625.473C1587.96 605.632 1572.56 583.235 1564.63 554.981C1539.55 465.572 1475.97 437.469 1395.48 401.882C1337.46 376.236 1271.71 347.166 1203.29 289.244C1165.33 257.112 1144.67 224.184 1138.27 185.617C1132.4 150.235 1138.58 112.953 1145.73 69.7812C1153.21 24.5803 1161.7 -26.6494 1158.39 -88.2993C1152.64 -195.374 1129.83 -272.311 1111.7 -317.996C1092.08 -367.467 1073.59 -391.923 1073.41 -392.165L1074.5 -392.762C1074.69 -392.52 1093.26 -367.947 1112.94 -318.347C1124.49 -289.229 1134.16 -257.302 1141.69 -223.448C1151.09 -181.137 1157.15 -135.683 1159.69 -88.3506C1163 -26.6017 1154.51 24.6828 1147.02 69.9313C1132.67 156.546 1122.31 219.13 1204.22 288.464C1272.49 346.265 1338.16 375.295 1396.09 400.904C1437.27 419.111 1472.85 434.839 1501.99 457.558C1534 482.516 1554.31 513.392 1565.9 554.721C1583.14 616.173 1635.75 641.955 1691.45 669.253C1724.58 685.489 1758.84 702.279 1788.49 727.489C1822.12 756.08 1844.5 791.516 1856.93 835.812L1855.67 836.065L1855.66 836.069Z" fill="#E8A274"/>
<path d="M1874.94 823.465C1843.35 728.441 1774.96 691.463 1714.61 658.84C1687.51 644.185 1661.92 630.348 1640.85 612.368C1617.17 592.15 1602.71 569.65 1595.35 541.558C1572.11 452.826 1512.23 425.012 1429.36 386.517C1373.84 360.725 1310.91 331.493 1243.28 276.67C1222.16 259.547 1206.28 242.307 1194.75 223.957C1184.19 207.157 1177.31 189.444 1173.74 169.805C1166.97 132.709 1172.72 93.1123 1179.36 47.2668C1185.71 3.50532 1192.9 -46.0981 1190.58 -104.151C1186.29 -211.383 1167.3 -290.225 1152.12 -337.481C1135.68 -388.66 1120.07 -414.807 1119.92 -415.067L1121.08 -415.565C1121.23 -415.305 1136.91 -389.055 1153.38 -337.767C1163.05 -307.656 1171.1 -274.927 1177.31 -240.483C1185.08 -197.436 1189.98 -151.579 1191.88 -104.184C1194.2 -46.0431 1187 3.60422 1180.65 47.406C1167.32 139.346 1157.69 205.776 1244.18 275.887C1311.69 330.607 1374.53 359.805 1429.99 385.561C1471.13 404.669 1506.66 421.173 1535.17 444.211C1566.33 469.385 1585.86 500.243 1596.62 541.327C1612.62 602.398 1662.5 629.366 1715.31 657.921C1746.29 674.666 1778.31 691.983 1806.89 717.212C1839.35 745.872 1862.02 780.535 1876.19 823.176L1874.94 823.473L1874.94 823.465Z" fill="#E8A274"/>
<path d="M1894.22 810.859C1858.95 719.728 1795.12 681.596 1738.81 647.951C1712.97 632.516 1688.57 617.935 1668.7 599.512C1646.42 578.855 1632.88 556.172 1626.08 528.134C1604.67 439.802 1544.96 410.724 1462.34 370.475C1409.47 344.723 1349.54 315.535 1283.28 264.1C1260.96 246.772 1244.11 229.118 1231.77 210.134C1220.47 192.752 1213.01 174.27 1208.96 153.623C1201.3 114.623 1206.64 72.4953 1212.83 23.716C1218.16 -18.2545 1224.2 -65.8251 1222.77 -120.011C1219.96 -227.396 1204.79 -308.147 1192.56 -356.974C1179.31 -409.863 1166.57 -437.703 1166.44 -437.977L1167.65 -438.376C1167.78 -438.102 1180.55 -410.174 1193.83 -357.201C1206.07 -308.326 1221.26 -227.506 1224.08 -120.033C1225.5 -65.7775 1219.46 -18.1666 1214.13 23.8368C1201.71 121.656 1192.74 192.327 1284.16 263.294C1350.32 314.649 1410.17 343.803 1462.99 369.526C1545.91 409.918 1605.82 439.099 1627.35 527.918C1642.12 588.843 1687.28 615.818 1739.57 647.057C1796.04 680.798 1860.06 719.043 1895.46 810.518L1894.22 810.859H1894.22Z" fill="#E8A274"/>
<path d="M1913.51 798.252C1874.9 711.41 1815.72 672.278 1763.51 637.75C1713.57 604.728 1670.45 576.21 1656.81 514.714C1637.22 426.433 1580.28 397.436 1494.1 353.542C1444.1 328.08 1387.44 299.222 1323.28 251.526C1299.66 233.971 1281.78 215.863 1268.59 196.169C1256.52 178.141 1248.45 158.795 1243.91 137.028C1235.34 95.9108 1240.35 51.0102 1246.14 -0.984955C1250.57 -40.7651 1255.6 -85.8525 1254.97 -135.866C1253.63 -243.409 1242.28 -326.061 1232.99 -376.463C1222.93 -431.058 1213.06 -460.594 1212.97 -460.887L1214.22 -461.188C1214.32 -460.894 1224.2 -431.293 1234.27 -376.631C1243.57 -326.193 1254.93 -243.482 1256.27 -135.877C1256.9 -85.8049 1251.87 -40.6882 1247.43 -0.88239C1235.81 103.43 1227.41 178.801 1324.13 250.702C1388.21 298.332 1444.82 327.164 1494.77 352.601C1536.82 374.017 1573.14 392.513 1600.88 416.478C1615.51 429.114 1627.06 442.648 1636.21 457.859C1646.13 474.363 1653.29 492.896 1658.08 514.513C1671.64 575.602 1714.58 604.003 1764.31 636.886C1816.66 671.502 1875.99 710.74 1914.72 797.867L1913.5 798.252H1913.51Z" fill="#E8A274"/>
<path d="M1932.79 785.649C1891.35 703.656 1836.92 663.759 1788.89 628.557C1741.17 593.582 1699.95 563.376 1687.52 501.291C1669.77 412.621 1611.86 381.906 1524.21 335.412C1477.41 310.587 1424.36 282.447 1363.27 238.956C1338.26 221.152 1319.26 202.535 1305.18 182.038C1292.29 163.285 1283.59 142.976 1278.57 119.956C1269.09 76.4804 1273.82 28.5324 1279.3 -26.9825C1282.96 -64.1183 1287.11 -106.21 1287.16 -151.718C1287.3 -259.404 1279.77 -343.96 1273.43 -395.93C1266.56 -452.24 1259.56 -483.482 1259.5 -483.793L1260.77 -483.999C1260.84 -483.691 1267.84 -452.412 1274.72 -396.062C1281.06 -344.063 1288.6 -259.463 1288.46 -151.718C1288.41 -106.166 1284.26 -64.0487 1280.59 -26.891C1269.6 84.6151 1261.66 165.183 1364.11 238.121C1425.13 281.56 1478.14 309.678 1524.91 334.486C1568.19 357.443 1605.56 377.269 1633.26 401.915C1647.82 414.87 1659.21 428.656 1668.09 444.061C1677.67 460.69 1684.45 479.351 1688.81 501.111C1701.16 562.805 1742.21 592.894 1789.74 627.729C1837.87 663.008 1892.43 702.997 1933.99 785.22L1932.79 785.652L1932.79 785.649Z" fill="#E8A274"/>
<path d="M1952.08 773.042C1908.59 696.712 1859.02 656.438 1815.29 620.899C1792.12 602.073 1770.24 584.29 1753.29 563.75C1734.54 541.031 1723.41 516.916 1718.25 487.864C1702.36 398.238 1645.78 367.146 1552.04 315.634C1508.91 291.933 1460.02 265.067 1403.27 226.382C1376.76 208.307 1356.57 189.119 1341.53 167.714C1327.79 148.144 1318.43 126.758 1312.94 102.328C1302.56 56.2115 1307.09 4.9232 1312.35 -54.4595C1315.5 -90.1009 1318.77 -126.958 1319.37 -167.577C1322.46 -373.968 1306.21 -505.392 1306.04 -506.696L1307.34 -506.813C1307.5 -505.509 1323.76 -374.019 1320.67 -167.563C1320.06 -126.907 1316.8 -90.035 1313.64 -54.3753C1303.07 65.1228 1295.43 151.459 1404.09 225.533C1460.79 264.185 1509.65 291.032 1552.75 314.719C1599.94 340.647 1637.21 361.128 1665.21 386.675C1695.25 414.087 1712.01 445.249 1719.54 487.706C1730.71 550.653 1768.43 581.305 1816.19 620.111C1837.24 637.212 1861.1 656.599 1884.53 680.772C1911.34 708.44 1933.82 738.467 1953.25 772.57L1952.08 773.046V773.042Z" fill="#E8A274"/>
<path d="M1971.37 760.438C1927.09 691.027 1882.58 651.031 1843.31 615.741C1819.25 594.117 1798.47 575.441 1782.09 553.659C1764.12 529.764 1753.59 504.594 1748.98 474.443C1734.98 383.118 1678.69 351.304 1576.5 293.548C1537.81 271.685 1493.96 246.904 1443.26 213.812C1415.12 195.44 1393.64 175.603 1377.59 153.169C1362.94 132.68 1352.91 110.074 1346.94 84.0546C1335.68 34.9713 1340.14 -19.9907 1345.31 -83.6294C1347.89 -115.344 1350.54 -148.136 1351.56 -183.433C1357.49 -390.117 1352.63 -528.225 1352.58 -529.599L1353.88 -529.632C1353.93 -528.262 1358.79 -390.125 1352.86 -183.408C1351.85 -148.085 1349.18 -115.278 1346.61 -83.5525C1336.18 44.8458 1328.65 137.614 1444.06 212.944C1494.73 246.014 1538.56 270.784 1577.22 292.636C1627.78 321.208 1667.71 343.778 1696.52 370.53C1727.04 398.875 1743.61 430.879 1750.27 474.3C1760.26 539.492 1797.33 572.808 1844.26 614.987C1863.09 631.905 1884.42 651.079 1906.14 674.307C1931.04 700.935 1952.75 728.94 1972.51 759.918L1971.37 760.438V760.438Z" fill="#E8A274"/>
<path d="M1990.66 747.832C1947.72 687.38 1906.97 647.193 1874.22 614.899C1824.49 565.849 1788.55 530.413 1779.7 461.016C1767.7 366.992 1710.26 333.94 1595.82 268.093C1562.88 249.142 1525.55 227.66 1483.26 201.238C1453.34 182.536 1430.46 161.963 1413.35 138.35C1397.74 116.814 1387.02 92.8232 1380.59 65.0016C1368.48 12.5669 1373.02 -46.4459 1378.27 -114.773C1380.36 -141.844 1382.51 -169.834 1383.76 -199.289C1392.54 -406.266 1399.07 -551.055 1399.13 -552.494L1400.43 -552.454C1400.36 -551.014 1393.84 -406.229 1385.06 -199.252C1383.81 -169.779 1381.66 -141.781 1379.57 -114.703C1369.33 18.4491 1361.24 123.619 1484.04 200.355C1526.31 226.767 1563.63 248.241 1596.56 267.188C1652.43 299.339 1696.57 324.736 1726.93 353.143C1742.66 367.86 1754.5 383.181 1763.11 399.974C1772.17 417.65 1778.02 437.579 1781 460.903C1789.81 529.958 1825.63 565.288 1875.22 614.189C1908 646.512 1948.78 686.739 1991.78 747.271L1990.66 747.835L1990.66 747.832Z" fill="#E8A274"/>
<path d="M2009.95 735.225C1972.19 687.259 1939.67 652.738 1910.98 622.279C1881.97 591.491 1859.06 567.175 1842.06 540.631C1823.78 512.107 1814.02 483.41 1810.43 447.592C1800.58 349.499 1739.85 314.418 1606.8 237.55C1581.96 223.199 1553.81 206.934 1523.26 188.664C1462.79 152.488 1428.01 106.837 1413.83 44.9962C1400.93 -11.2586 1405.75 -74.7472 1411.33 -148.261C1412.97 -169.837 1414.66 -192.15 1415.96 -215.148C1427.6 -422.418 1445.5 -573.884 1445.68 -575.389L1446.97 -575.279C1446.79 -573.774 1428.9 -422.334 1417.25 -215.097C1415.96 -192.092 1414.27 -169.775 1412.63 -148.191C1401.7 -4.24827 1393.07 109.444 1524.01 187.77C1554.55 206.036 1582.7 222.298 1607.53 236.645C1740.93 313.715 1801.82 348.887 1811.72 447.501C1819.33 523.234 1854.21 560.256 1912 621.598C1940.7 652.075 1973.24 686.614 2011.03 734.621L2009.95 735.229V735.225Z" fill="#E8A274"/>
<path d="M2029.24 722.618C2003.99 693.565 1981.52 668.945 1961.69 647.222C1922.79 604.614 1894.69 573.829 1874.96 542.089C1854.29 508.857 1844.18 476.578 1841.15 434.165C1833.7 330.065 1770.96 294.357 1603.3 198.927C1590.47 191.627 1577.22 184.082 1563.26 176.094C1498.67 139.123 1461.61 90.7316 1446.62 23.8001C1440.41 -3.91525 1437.75 -34.9929 1438.25 -74.0149C1438.69 -108.807 1441.58 -145.616 1444.64 -184.591C1445.83 -199.663 1447.05 -215.247 1448.15 -231.004C1462.66 -438.56 1491.93 -596.706 1492.23 -598.277L1493.51 -598.105C1493.22 -596.534 1463.96 -438.435 1449.45 -230.938C1448.35 -215.178 1447.12 -199.589 1445.94 -184.517C1433.67 -28.3306 1423.97 95.0352 1563.99 175.185C1577.94 183.173 1591.2 190.719 1604.02 198.018C1685.68 244.497 1744.68 278.077 1782.61 312.191C1802.21 329.83 1815.8 347.037 1825.37 366.347C1834.99 385.766 1840.58 407.929 1842.45 434.102C1848.71 521.658 1886.81 563.398 1962.72 646.555C1982.55 668.282 2005.03 692.91 2030.29 721.973L2029.24 722.625V722.618Z" fill="#E8A274"/>
<path d="M2048.53 710.011C1985.86 644.49 1940.57 597.15 1912.71 554.495C1898.83 533.236 1889.35 513.443 1882.9 492.204C1876.51 471.176 1873.01 448.468 1871.88 420.734C1869.68 366.684 1851.91 329.581 1810.56 292.673C1768.37 255.024 1701.09 217.09 1603.26 163.516C1566.9 143.602 1539.12 120.139 1518.35 91.7868C1499.55 66.1262 1486.75 36.6967 1479.2 1.81713C1465.05 -63.6236 1471.5 -140.811 1478.34 -222.528C1479.01 -230.571 1479.69 -238.684 1480.35 -246.859C1489.67 -355.454 1505.06 -451.437 1516.34 -512.838C1528.55 -579.367 1538.69 -620.755 1538.79 -621.165L1540.06 -620.942C1539.96 -620.531 1529.83 -579.165 1517.62 -512.662C1506.36 -451.283 1490.97 -355.333 1481.65 -246.782C1480.99 -238.607 1480.31 -230.494 1479.64 -222.451C1466.04 -59.8254 1454.29 80.623 1603.97 162.597C1701.88 216.215 1769.22 254.186 1811.51 291.922C1853.1 329.043 1870.97 366.355 1873.18 420.701C1877.62 529.592 1920.94 574.881 2049.55 709.323L2048.54 710.011H2048.53Z" fill="#E8A274"/>
<path d="M2067.83 697.404C1995.16 628.217 1956.21 583.254 1933.37 542.21C1921.7 521.245 1914.02 500.979 1909.2 478.436C1904.86 458.156 1902.83 436.22 1902.61 407.31C1902.19 353.649 1886.51 316.835 1848.5 280.242C1807.26 240.557 1736.63 199.854 1643.26 150.95C1604.39 130.589 1574.73 105.939 1552.59 75.583C1532.6 48.1827 1519.08 16.4933 1511.25 -21.2944C1504.55 -53.665 1502 -89.9363 1503.25 -135.438C1504.38 -177.086 1508.72 -222.576 1512.56 -262.711C1523.36 -371.452 1542.57 -469.341 1556.79 -532.313C1572.2 -600.544 1585.22 -643.621 1585.35 -644.046L1586.61 -643.771C1586.48 -643.343 1573.47 -600.295 1558.07 -532.093C1543.86 -469.15 1524.65 -371.306 1513.86 -262.62C1497.06 -86.5703 1482.54 65.4741 1643.95 150.016C1699.66 179.192 1738.47 200.883 1769.79 220.335C1804.81 242.088 1830.13 260.895 1849.48 279.516C1887.73 316.33 1903.5 353.352 1903.92 407.303C1904.72 510.616 1926.46 561.131 2068.82 696.675L2067.84 697.404H2067.83Z" fill="#E8A274"/>
<path d="M2087.12 684.794C2016.19 623.151 1975.13 575.386 1954 529.918C1932.68 484.076 1932.03 441.187 1933.33 393.88C1934.8 340.57 1921.2 304.042 1886.4 267.8C1850.48 230.397 1789.73 191.69 1683.25 138.369C1663.22 128.34 1645.1 116.807 1629.39 104.09C1614.3 91.8785 1600.93 78.1655 1589.65 63.3353C1568.54 35.5834 1554 3.47646 1545.2 -34.8203C1528.24 -108.667 1535.68 -195.732 1544.75 -278.574C1557.02 -387.461 1580.06 -487.251 1597.23 -551.794C1615.83 -621.725 1631.74 -666.49 1631.9 -666.934L1633.14 -666.615C1632.98 -666.172 1617.09 -621.436 1598.5 -551.541C1581.34 -487.035 1558.31 -387.297 1546.05 -278.472C1526.35 -98.569 1523.12 56.9037 1683.92 137.424C1790.53 190.811 1851.39 229.595 1887.41 267.108C1905.64 286.087 1918.11 305.525 1925.54 326.531C1932.47 346.111 1935.36 367.519 1934.64 393.902C1931.94 491.695 1937.74 553.385 2088.06 684.025L2087.13 684.79L2087.12 684.794Z" fill="#E8A274"/>
<path d="M2106.42 672.183C2069.06 642.493 2040.3 615.456 2018.51 589.517C1998.44 565.625 1984.26 542.583 1975.16 519.069C1957.88 474.45 1960.65 432.374 1963.85 383.649L1964.06 380.444C1967.53 327.464 1956.01 291.226 1924.29 255.357C1888.91 215.357 1826.91 175.398 1723.25 125.791C1702.83 116.015 1684.24 104.631 1668.02 91.9585C1652.43 79.7838 1638.53 66.0342 1626.7 51.0905C1604.47 22.9979 1588.92 -9.52285 1579.15 -48.3397C1570.61 -82.2926 1566.67 -120.692 1567.08 -165.739C1567.42 -201.791 1570.55 -242.684 1576.95 -294.438C1590.7 -403.471 1617.56 -505.162 1637.68 -571.273C1659.47 -642.903 1678.26 -689.357 1678.45 -689.818L1679.68 -689.463C1679.49 -689.002 1660.72 -642.581 1638.94 -570.991C1618.83 -504.92 1591.98 -403.285 1578.24 -294.324C1557.61 -127.38 1551.86 42.5016 1723.9 124.831C1827.71 174.515 1889.84 214.566 1925.33 254.694C1942.19 273.762 1953.42 293.405 1959.65 314.747C1965.23 333.863 1967.04 354.754 1965.36 380.496L1965.15 383.701C1958.81 480.098 1954.23 549.747 2107.31 671.37L2106.42 672.172L2106.42 672.183Z" fill="#E8A274"/>
<path d="M2125.72 659.573C2056.06 608.911 2015.57 562.919 1998.29 514.835C1982.7 471.466 1987.49 430.301 1992.56 386.719C1993.31 380.306 1994.08 373.676 1994.79 367.018C2000.39 314.451 1990.9 278.531 1962.06 243.044C1927.98 201.103 1864.8 159.85 1763.25 113.224C1742.41 103.738 1723.35 92.5304 1706.6 79.9198C1690.51 67.8037 1676.08 54.0321 1663.7 38.9786C1640.66 10.9665 1623.62 -22.9204 1613.05 -61.741C1603.55 -96.6352 1598.95 -135.591 1598.98 -180.832C1599.01 -218.499 1602.34 -260.843 1609.15 -310.282C1615.87 -358.494 1626.14 -409.646 1639.69 -462.323C1650.52 -504.462 1663.45 -547.666 1678.13 -590.736C1703.12 -664.066 1724.79 -712.208 1725.01 -712.684L1726.22 -712.292C1726 -711.816 1704.35 -663.711 1679.38 -590.421C1656.33 -522.782 1625.66 -419.257 1610.44 -310.157C1587.85 -146.092 1588.41 32.3968 1763.88 112.257C1865.62 158.971 1928.94 200.333 1963.14 242.425C1978.71 261.581 1988.71 281.403 1993.71 303.027C1998.01 321.648 1998.77 342.013 1996.09 367.117C1995.38 373.779 1994.61 380.412 1993.87 386.829C1983.77 473.609 1975.06 548.55 2126.58 658.741L2125.73 659.573H2125.72Z" fill="#E8A274"/>
<path d="M2145.02 646.959C1991.69 544.8 2005.71 466.18 2020.55 382.943C2022.26 373.365 2024.02 363.465 2025.52 353.579C2037.13 276.605 2028.87 199.341 1803.25 100.643C1761.63 82.5165 1727.15 57.6361 1700.79 26.6903C1676.65 -1.64774 1658.57 -35.9632 1647.03 -75.3039C1627.63 -141.525 1625.76 -223.576 1641.34 -326.149C1648.72 -374.423 1660.15 -425.986 1675.33 -479.405C1687.47 -522.138 1702.02 -566.152 1718.57 -610.217C1746.76 -685.247 1771.31 -735.074 1771.56 -735.568L1772.76 -735.144C1772.51 -734.649 1747.98 -684.859 1719.81 -609.869C1693.82 -540.667 1659.33 -435.245 1642.64 -326.006C1608.08 -98.5288 1659.31 36.7333 1803.85 99.6688C1856.53 122.714 1898.27 144.767 1931.46 167.095C1962.33 187.869 1985.1 208.428 2001.05 229.946C2015.33 249.223 2024.07 269.261 2027.76 291.204C2030.81 309.338 2030.51 329.201 2026.81 353.718C2025.32 363.615 2023.55 373.522 2021.84 383.104C2007.06 466.016 1993.09 544.331 2145.83 646.094L2145.02 646.955L2145.02 646.959Z" fill="#E8A274"/>
</g>
<defs>
<clipPath id="clip0_182_1410">
<rect width="1728" height="912" fill="white"/>
</clipPath>
</defs>
</svg>
